mtllib part_4.mtl
usemtl part_4

v -0.007272568941116333 0.2033331298828125 0.01
v -0.006972817182540894 0.19740997314453126 0.01
v -0.007998183965682984 0.20017045974731446 0.01
v -0.007272568941116333 0.2033331298828125 0.02
v -0.007998183965682984 0.20017045974731446 0.02
v -0.007499359846115113 0.19721439361572266 0.01
v -0.005350498557090759 0.20594745635986328 0.02
v 0.2603759765625 0.2906810760498047 0.02
v -0.005350498557090759 0.20594745635986328 0.01
v -0.002785605788230896 0.20749935150146484 0.02
v -0.002785605788230896 0.20749935150146484 0.01
v 0.2503177833557129 0.30151355743408204 0.02
v 0.2548443984985352 0.2893271064758301 0.02
v 0.25299686431884766 0.2890153312683105 0.01
v 0.25299686431884766 0.2890153312683105 0.02
v 0.25102020263671876 0.2894688415527344 0.01
v 0.25102020263671876 0.2894688415527344 0.02
v 0.24938623428344728 0.29067014694213866 0.01
v 0.24938623428344728 0.29067014694213866 0.02
v 0.24841629028320314 0.2922731971740723 0.01
v 0.2548443984985352 0.2893271064758301 0.01
v 0.2564474678039551 0.29029705047607424 0.02
v 0.2564474678039551 0.29029705047607424 0.01
v 0.25764875411987304 0.2919309997558594 0.02
v 0.25764875411987304 0.2919309997558594 0.01
v 0.2581022644042969 0.2939076614379883 0.02
v 0.2581022644042969 0.2939076614379883 0.01
v 0.25779048919677733 0.29575519561767577 0.02
v 0.25779048919677733 0.29575519561767577 0.01
v 0.25682056427001954 0.2973582649230957 0.02
v 0.25682056427001954 0.2973582649230957 0.01
v 0.255186595916748 0.2985595512390137 0.02
v 0.2564365196228027 0.30128677368164064 0.02
v 0.255186595916748 0.2985595512390137 0.01
v 0.2532099342346191 0.2990130615234375 0.02
v 0.2532099342346191 0.2990130615234375 0.01
v 0.25136240005493166 0.2987013053894043 0.02
v 0.2532738494873047 0.3020123863220215 0.01
v 0.2532738494873047 0.3020123863220215 0.02
v 0.2503177833557129 0.30151355743408204 0.01
v 0.2564365196228027 0.30128677368164064 0.01
v 0.2590508460998535 0.2993647003173828 0.02
v 0.25136240005493166 0.2987013053894043 0.01
v 0.24975933074951173 0.2977313613891602 0.02
v 0.24975933074951173 0.2977313613891602 0.01
v 0.24855804443359375 0.296097412109375 0.02
v 0.24855804443359375 0.296097412109375 0.01
v 0.24810453414916991 0.29412073135375977 0.02
v 0.24810453414916991 0.29412073135375977 0.01
v 0.24841629028320314 0.2922731971740723 0.02
v 0.2600762176513672 0.29660423278808595 0.02
v 0.2590508460998535 0.2993647003173828 0.01
v 0.2606027603149414 0.29679981231689456 0.02
v 0.2606027603149414 0.29679981231689456 0.01
v 0.26110158920288085 0.29384374618530273 0.02
v 0.26110158920288085 0.29384374618530273 0.01
v 0.2603759765625 0.2906810760498047 0.01
v 0.2584539031982422 0.2880667495727539 0.02
v -0.001741003692150116 0.20468709945678712 0.02
v -0.0033440616726875304 0.20371715545654298 0.02
v -0.0045453557372093206 0.20208320617675782 0.02
v -0.0033440616726875304 0.20371715545654298 0.01
v -0.001741003692150116 0.20468709945678712 0.01
v -0.0045453557372093206 0.20208320617675782 0.01
v -0.004998864829540253 0.20010652542114257 0.02
v -0.004998864829540253 0.20010652542114257 0.01
v -0.0046871000528335574 0.19825899124145507 0.02
v -0.0037171563506126406 0.1966559410095215 0.02
v -0.0046871000528335574 0.19825899124145507 0.01
v -0.0037171563506126406 0.1966559410095215 0.01
v -0.002083204686641693 0.1954546356201172 0.02
v -0.00017045093700289728 0.1920018196105957 0.02
v -0.002083204686641693 0.1954546356201172 0.01
v -0.00010653182864189149 0.1950011444091797 0.02
v -0.00010653182864189149 0.1950011444091797 0.01
v 0.001741003692150116 0.1953129005432129 0.02
v 0.001741003692150116 0.1953129005432129 0.01
v 0.0033440616726875304 0.19628284454345704 0.02
v 0.0033440616726875304 0.19628284454345704 0.01
v 0.0045453557372093206 0.1979167938232422 0.02
v 0.0045453557372093206 0.1979167938232422 0.01
v 0.004998864829540253 0.19989347457885742 0.02
v 0.004998864829540253 0.19989347457885742 0.01
v 0.0046871000528335574 0.20174100875854492 0.02
v 0.0046871000528335574 0.20174100875854492 0.01
v 0.0037171563506126406 0.20334405899047853 0.02
v 0.0037171563506126406 0.20334405899047853 0.01
v 0.002083204686641693 0.20454536437988283 0.02
v 0.002083204686641693 0.20454536437988283 0.01
v 0.00010653182864189149 0.20499885559082032 0.02
v 0.00010653182864189149 0.20499885559082032 0.01
v -0.003333127498626709 0.19272743225097658 0.01
v -0.003333127498626709 0.19272743225097658 0.02
v -0.00017045093700289728 0.1920018196105957 0.01
v 0.002785605788230896 0.19250064849853515 0.01
v -0.005947450399398804 0.1946495056152344 0.02
v -0.005416243672370911 0.19497091293334962 0.02
v -0.005947450399398804 0.1946495056152344 0.01
v -0.007499359846115113 0.19721439361572266 0.02
v 0.2584539031982422 0.2880667495727539 0.01
v 0.2558889961242676 0.28651483535766603 0.01
v 0.002785605788230896 0.19250064849853515 0.02
v 0.2558889961242676 0.28651483535766603 0.02
vn -0.0 -0.0 -1.0
vn -0.974676251411438 0.22362057864665985 -1.2829581147455471e-11
vn -0.9860593676567078 -0.16639398038387299 1.1846809123972069e-11
vn -0.974676251411438 0.22362057864665985 -3.5070319214056556e-15
vn -0.8056842088699341 0.5923452973365784 -4.3406563371049204e-15
vn 0.0 -0.0 1.0
vn -0.8056842088699341 0.5923452973365784 -2.9082702602222215e-15
vn -0.5176743865013123 0.8555777072906494 -1.788880512692981e-16
vn 0.0 -0.0 1.0
vn -0.5176743865013123 0.8555777072906494 -1.8285533389506654e-15
vn -0.3482007384300232 0.9374200105667114 -1.2370575263887787e-15
vn 0.0 -0.0 1.0
vn -0.16639398038387299 0.9860593676567078 5.911501701798478e-16
vn 0.22362057864665985 0.974676251411438 -8.799317069256574e-15
vn 0.5923452973365784 0.8056842088699341 8.019155652017051e-12
vn 0.8555777072906494 0.5176743865013123 -7.405592632181435e-12
vn 0.5923452973365784 0.8056842088699341 -4.379513126527264e-15
vn -0.0 0.0 1.0
vn 0.22362057864665985 0.974676251411438 -7.954975039796582e-16
vn -0.0 0.0 1.0
vn -0.16639398038387299 0.9860593676567078 -4.096885337082816e-15
vn -0.5176743865013123 0.8555777072906494 -4.8792282605729376e-15
vn -0.5176743865013123 0.8555777072906494 -7.411671103241257e-12
vn -0.8056842088699341 0.5923452973365784 8.014946345502594e-12
vn 0.0 -0.0 1.0
vn -0.8056842088699341 0.5923452973365784 -2.856947898673373e-15
vn -0.974676251411438 0.22362057864665985 -3.4627456507914118e-15
vn -0.0 -0.0 1.0
vn -0.974676251411438 0.22362057864665985 7.954975039796582e-16
vn -0.9860593676567078 -0.16639398038387299 -5.911501701798478e-16
vn -0.0 -0.0 1.0
vn -0.9860593676567078 -0.16639398038387299 0.0
vn -0.8555777072906494 -0.5176743865013123 0.0
vn -0.8555777072906494 -0.5176743865013123 -7.403752957935161e-12
vn -0.5923452973365784 -0.8056842088699341 8.022017945752413e-12
vn 0.0 0.0 1.0
vn -0.5923452973365784 -0.8056842088699341 5.713895797346746e-15
vn -0.22362057864665985 -0.974676251411438 6.9254913015828236e-15
vn 0.0 -0.0 1.0
vn -0.22362057864665985 -0.974676251411438 -5.055258224154853e-15
vn 0.16639398038387299 -0.9860593676567078 -2.320886157344544e-15
vn 0.0 0.0 1.0
vn 0.22362057864665985 0.974676251411438 -1.2825542711203397e-11
vn -0.16639398038387299 0.9860593676567078 1.1853683833107365e-11
vn 0.22362057864665985 0.974676251411438 2.779964250470982e-16
vn 0.5923452973365784 0.8056842088699341 -5.5553680755539465e-15
vn 0.0 0.0 1.0
vn 0.0 0.0 1.0
vn -0.0 0.0 1.0
vn 0.16639398038387299 -0.9860593676567078 5.925438570154363e-16
vn 0.5176743865013123 -0.8555777072906494 1.833182585765647e-15
vn 0.5176743865013123 -0.8555777072906494 -7.405592632181435e-12
vn 0.8056842088699341 -0.5923452973365784 8.019155652017051e-12
vn -0.0 0.0 1.0
vn 0.8056842088699341 -0.5923452973365784 2.275293761925634e-15
vn 0.974676251411438 -0.22362057864665985 8.004857762972453e-15
vn -0.0 0.0 1.0
vn 0.974676251411438 -0.22362057864665985 -1.87326820823622e-15
vn 0.9860593676567078 0.16639398038387299 -4.685486838063935e-15
vn -0.0 0.0 1.0
vn 0.8555777072906494 0.5176743865013123 0.0
vn 0.9860593676567078 0.16639398038387299 0.0
vn -0.0 0.0 1.0
vn -0.0 0.0 1.0
vn -0.0 0.0 1.0
vn -0.0 0.0 1.0
vn 0.0 0.0 1.0
vn -0.0 -0.0 1.0
vn 0.5923452973365784 0.8056842088699341 -2.8655016608912206e-15
vn 0.8555777072906494 0.5176743865013123 -1.8391488740878694e-15
vn -0.0 0.0 1.0
vn 0.8555777072906494 0.5176743865013123 4.883857295629682e-15
vn 0.9860593676567078 0.16639398038387299 4.091098407987175e-15
vn 0.9860593676567078 0.16639398038387299 1.1848998344998751e-11
vn 0.974676251411438 -0.22362057864665985 -1.282741707991919e-11
vn 0.0 0.0 1.0
vn 0.974676251411438 -0.22362057864665985 3.742259747121753e-15
vn 0.8056842088699341 -0.5923452973365784 -2.693002554149935e-15
vn 0.0 -0.0 1.0
vn 0.0 -0.0 1.0
vn -0.0 0.0 1.0
vn 0.8056842088699341 -0.5923452973365784 8.015928198989997e-12
vn 0.5176743865013123 -0.8555777072906494 -7.412728417199865e-12
vn 0.8056842088699341 -0.5923452973365784 7.014063842811311e-16
vn 0.974676251411438 -0.22362057864665985 2.6141804209355284e-15
vn 0.0 0.0 1.0
vn 0.974676251411438 -0.22362057864665985 1.87326820823622e-15
vn 0.9860593676567078 0.16639398038387299 4.685486838063935e-15
vn 0.0 0.0 1.0
vn 0.8555777072906494 0.5176743865013123 4.8792282605729376e-15
vn 0.8555777072906494 0.5176743865013123 -7.403515300818952e-12
vn 0.5923452973365784 0.8056842088699341 8.022181877120893e-12
vn -0.0 -0.0 1.0
vn 0.5923452973365784 0.8056842088699341 5.662573647556134e-15
vn 0.22362057864665985 0.974676251411438 4.5240944508435216e-15
vn -0.0 0.0 1.0
vn 0.22362057864665985 0.974676251411438 -3.438602035421112e-15
vn -0.16639398038387299 0.9860593676567078 -3.5236805657421757e-15
vn -0.0 0.0 1.0
vn -0.16639398038387299 0.9860593676567078 -5.925438570154363e-16
vn -0.5176743865013123 0.8555777072906494 -1.84244107939561e-15
vn -0.5176743865013123 0.8555777072906494 -7.405053133180406e-12
vn -0.8056842088699341 0.5923452973365784 8.017368886836795e-12
vn 0.0 -0.0 1.0
vn -0.8056842088699341 0.5923452973365784 -2.959592833529307e-15
vn -0.974676251411438 0.22362057864665985 -3.5709566509019904e-15
vn 0.0 -0.0 1.0
vn -0.974676251411438 0.22362057864665985 -5.431622491190724e-15
vn -0.9860593676567078 -0.16639398038387299 -2.7040472285074207e-15
vn 0.0 -0.0 1.0
vn -0.9860593676567078 -0.16639398038387299 -3.4997120744337208e-15
vn -0.8555777072906494 -0.5176743865013123 -3.0460456748072906e-15
vn -0.8555777072906494 -0.5176743865013123 -7.4104368474881e-12
vn -0.5923452973365784 -0.8056842088699341 8.01580156417625e-12
vn 0.0 -0.0 1.0
vn -0.5923452973365784 -0.8056842088699341 -5.4230687289728765e-15
vn -0.22362057864665985 -0.974676251411438 -4.4309936714790124e-15
vn 0.0 -0.0 1.0
vn -0.22362057864665985 -0.974676251411438 -7.698362702656747e-16
vn 0.16639398038387299 -0.9860593676567078 5.720994462840329e-16
vn 0.0 -0.0 1.0
vn 0.16639398038387299 -0.9860593676567078 5.879146102004548e-16
vn 0.5176743865013123 -0.8555777072906494 1.84244107939561e-15
vn -0.0 0.0 -1.0
vn 0.0 -0.0 -1.0
vn 0.0 -0.0 -1.0
vn 0.0 -0.0 -1.0
vn 0.0 -0.0 -1.0
vn 0.0 -0.0 -1.0
vn 0.0 -0.0 -1.0
vn 0.0 -0.0 -1.0
vn 0.0 -0.0 -1.0
vn -0.0 0.0 -1.0
vn -0.0 0.0 -1.0
vn -0.0 0.0 -1.0
vn -0.0 -0.0 -1.0
vn 0.9860593676567078 0.16639398038387299 4.092255878509598e-15
vn 0.0 0.0 1.0
vn -0.0 -0.0 1.0
vn -0.22362057864665985 -0.974676251411438 -1.2834479139189892e-11
vn 0.16639398038387299 -0.9860593676567078 1.1848174351347662e-11
vn -0.22362057864665985 -0.974676251411438 2.020820288856735e-15
vn -0.5923452973365784 -0.8056842088699341 -9.519200842007347e-16
vn 0.0 0.0 1.0
vn -0.5923452973365784 -0.8056842088699341 -5.346085292528722e-15
vn -0.8555777072906494 -0.5176743865013123 -5.448700792989739e-15
vn 0.0 -0.0 1.0
vn -0.8555777072906494 -0.5176743865013123 -3.0553041684372537e-15
vn -0.9860593676567078 -0.16639398038387299 -3.500869333197907e-15
vn 0.0 0.0 -1.0
vn 0.0 0.0 -1.0
vn 0.0 0.0 -1.0
vn 0.0 0.0 -1.0
vn 0.0 0.0 -1.0
vn 0.0 0.0 -1.0
vn 0.0 -0.0 -1.0
vn -0.16639398038387299 0.9860593676567078 -5.902292336079455e-16
vn -0.3482007384300232 0.9374200105667114 -2.1053118253453514e-15
vn -0.0 0.0 1.0
vn 0.0 -0.0 -1.0
vn 0.0 -0.0 -1.0
vn 0.0 0.0 -1.0
vn 0.0 -0.0 -1.0
vn -0.0 0.0 -1.0
vn -0.0 0.0 -1.0
vn -0.0 0.0 -1.0
vn -0.0 0.0 -1.0
vn 0.0 -0.0 -1.0
vn 0.0 -0.0 -1.0
vn 0.0 -0.0 -1.0
vn 0.0 -0.0 -1.0
vn 0.0 -0.0 -1.0
vn -0.0 -0.0 -1.0
vn -0.0 -0.0 -1.0
vn -0.0 0.0 -1.0
vn -0.0 0.0 -1.0
vn -0.0 0.0 -1.0
vn -0.0 0.0 -1.0
vn -0.0 0.0 -1.0
vn -0.0 0.0 -1.0
vn -0.0 0.0 -1.0
vn -0.0 0.0 -1.0
vn -0.0 0.0 -1.0
vn 0.0 -0.0 -1.0
vn 0.0 0.0 -1.0
vn -0.0 0.0 -1.0
vn 0.3482007384300232 -0.9374200105667114 1.0526559126726757e-15
vn 0.3482007384300232 -0.9374200105667114 1.2370575263887787e-15
vn 0.5176743865013123 -0.8555777072906494 4.31697329589969e-15
vn 0.8056842088699341 -0.5923452973365784 9.344957059152954e-15
vn 0.0 -0.0 1.0
vn 0.16639398038387299 -0.9860593676567078 5.902292336079455e-16
vn -0.0 0.0 -1.0
vn 0.5176743865013123 -0.8555777072906494 1.8516995730255732e-15
vn 0.0 -0.0 1.0
vn 0.0 -0.0 1.0
vn 0.0 -0.0 1.0
vn 0.0 -0.0 1.0
vn 0.0 -0.0 1.0
vn 0.0 0.0 1.0
vn 0.0 0.0 1.0
vn -0.0 -0.0 1.0
vn -0.0 0.0 1.0
vn -0.0 0.0 1.0
vn -0.0 0.0 -1.0
vn -0.0 0.0 -1.0
vn -0.0 0.0 -1.0
vn -0.0 0.0 -1.0
vn -0.0 0.0 -1.0
vn 0.0 0.0 1.0
f 1//1 2//1 3//1
f 4//2 3//2 5//2
f 6//3 5//3 3//3
f 1//4 3//4 4//4
f 7//5 1//5 4//5
f 4//6 8//6 7//6
f 9//7 1//7 7//7
f 10//8 9//8 7//8
f 7//9 8//9 10//9
f 11//10 9//10 10//10
f 12//11 11//11 10//11
f 10//12 8//12 13//12
f 13//13 14//13 15//13
f 15//14 16//14 17//14
f 17//15 18//15 19//15
f 20//16 19//16 18//16
f 16//17 18//17 17//17
f 17//18 10//18 15//18
f 14//19 16//19 15//19
f 15//20 10//20 13//20
f 21//21 14//21 13//21
f 13//22 22//22 21//22
f 21//23 22//23 23//23
f 24//24 23//24 22//24
f 22//25 8//25 24//25
f 25//26 23//26 24//26
f 26//27 25//27 24//27
f 24//28 8//28 26//28
f 27//29 25//29 26//29
f 28//30 27//30 26//30
f 26//31 8//31 28//31
f 29//32 27//32 28//32
f 28//33 30//33 29//33
f 29//34 30//34 31//34
f 32//35 31//35 30//35
f 30//36 33//36 32//36
f 34//37 31//37 32//37
f 35//38 34//38 32//38
f 32//39 33//39 35//39
f 36//40 34//40 35//40
f 37//41 36//41 35//41
f 37//42 35//42 33//42
f 33//43 38//43 39//43
f 40//44 39//44 38//44
f 41//45 38//45 33//45
f 42//46 41//46 33//46
f 28//47 33//47 30//47
f 8//48 33//48 28//48
f 33//49 10//49 37//49
f 43//50 36//50 37//50
f 37//51 44//51 43//51
f 43//52 44//52 45//52
f 46//53 45//53 44//53
f 44//54 10//54 46//54
f 47//55 45//55 46//55
f 48//56 47//56 46//56
f 46//57 10//57 48//57
f 49//58 47//58 48//58
f 50//59 49//59 48//59
f 48//60 10//60 50//60
f 50//61 19//61 20//61
f 20//62 49//62 50//62
f 50//63 10//63 19//63
f 19//64 10//64 17//64
f 37//65 10//65 44//65
f 39//66 10//66 33//66
f 8//67 51//67 33//67
f 33//68 51//68 42//68
f 52//69 41//69 42//69
f 53//70 52//70 42//70
f 42//71 51//71 53//71
f 54//72 52//72 53//72
f 53//73 55//73 54//73
f 54//74 55//74 56//74
f 8//75 56//75 55//75
f 55//76 51//76 8//76
f 57//77 56//77 8//77
f 58//78 57//78 8//78
f 13//79 8//79 22//79
f 59//80 8//80 4//80
f 4//81 5//81 60//81
f 61//82 62//82 60//82
f 63//83 60//83 62//83
f 64//84 62//84 61//84
f 65//85 64//85 61//85
f 61//86 5//86 65//86
f 66//87 64//87 65//87
f 67//88 66//88 65//88
f 65//89 5//89 67//89
f 67//90 68//90 69//90
f 69//91 68//91 70//91
f 71//92 70//92 68//92
f 68//93 72//93 71//93
f 73//94 70//94 71//94
f 74//95 73//95 71//95
f 71//96 72//96 74//96
f 75//97 73//97 74//97
f 76//98 75//98 74//98
f 74//99 72//99 76//99
f 77//100 75//100 76//100
f 76//101 78//101 77//101
f 77//102 78//102 79//102
f 80//103 79//103 78//103
f 78//104 8//104 80//104
f 81//105 79//105 80//105
f 82//106 81//106 80//106
f 80//107 8//107 82//107
f 83//108 81//108 82//108
f 84//109 83//109 82//109
f 82//110 8//110 84//110
f 85//111 83//111 84//111
f 84//112 86//112 85//112
f 85//113 86//113 87//113
f 88//114 87//114 86//114
f 86//115 8//115 88//115
f 89//116 87//116 88//116
f 90//117 89//117 88//117
f 88//118 8//118 90//118
f 91//119 89//119 90//119
f 59//120 91//120 90//120
f 90//121 8//121 59//121
f 63//122 91//122 59//122
f 59//123 60//123 63//123
f 62//124 1//124 63//124
f 63//125 40//125 91//125
f 91//126 40//126 89//126
f 89//127 40//127 87//127
f 87//128 40//128 85//128
f 85//129 40//129 83//129
f 83//130 40//130 81//130
f 81//131 40//131 79//131
f 79//132 40//132 77//132
f 77//133 92//133 75//133
f 75//134 92//134 73//134
f 73//135 92//135 70//135
f 70//136 92//136 69//136
f 69//137 66//137 67//137
f 67//138 5//138 68//138
f 5//139 72//139 68//139
f 93//140 94//140 72//140
f 95//141 72//141 94//141
f 92//142 94//142 93//142
f 96//143 92//143 93//143
f 93//144 97//144 96//144
f 98//145 92//145 96//145
f 99//146 98//146 96//146
f 96//147 97//147 99//147
f 6//148 98//148 99//148
f 99//149 5//149 6//149
f 6//150 2//150 98//150
f 98//151 2//151 92//151
f 92//152 1//152 69//152
f 69//153 1//153 66//153
f 66//154 1//154 64//154
f 64//155 1//155 62//155
f 1//156 40//156 63//156
f 12//157 39//157 40//157
f 40//158 11//158 12//158
f 12//159 10//159 39//159
f 11//160 40//160 9//160
f 9//161 40//161 1//161
f 92//162 2//162 1//162
f 3//163 2//163 6//163
f 40//164 92//164 77//164
f 38//165 92//165 40//165
f 41//166 92//166 38//166
f 43//167 92//167 41//167
f 41//168 52//168 36//168
f 36//169 52//169 34//169
f 34//170 52//170 31//170
f 31//171 52//171 29//171
f 29//172 52//172 27//172
f 27//173 100//173 25//173
f 25//174 100//174 23//174
f 23//175 101//175 21//175
f 21//176 95//176 14//176
f 14//177 94//177 16//177
f 16//178 92//178 18//178
f 18//179 92//179 20//179
f 20//180 92//180 49//180
f 49//181 92//181 47//181
f 47//182 92//182 45//182
f 45//183 92//183 43//183
f 43//184 41//184 36//184
f 94//185 92//185 16//185
f 95//186 94//186 14//186
f 95//187 101//187 102//187
f 102//188 101//188 103//188
f 103//189 100//189 58//189
f 100//190 57//190 58//190
f 58//191 8//191 72//191
f 102//192 72//192 95//192
f 101//193 95//193 21//193
f 101//194 100//194 103//194
f 103//195 58//195 102//195
f 102//196 58//196 72//196
f 72//197 8//197 76//197
f 76//198 8//198 78//198
f 84//199 8//199 86//199
f 5//200 97//200 72//200
f 72//201 97//201 93//201
f 99//202 97//202 5//202
f 60//203 5//203 61//203
f 59//204 4//204 60//204
f 100//205 101//205 23//205
f 52//206 100//206 27//206
f 57//207 100//207 52//207
f 54//208 57//208 52//208
f 56//209 57//209 54//209
f 53//210 51//210 55//210
