mtllib part_6.mtl
usemtl part_6

v 0.39396034240722655 0.06860121250152589 0.04
v 0.3973944473266602 0.06376585960388184 0.04
v 0.39648921966552736 0.06656804084777831 0.04
v 0.39396034240722655 0.06860121250152589 0.03
v 0.39648921966552736 0.06656804084777831 0.03
v 0.3979289245605469 0.06393852233886718 0.04
v 0.39083194732666016 0.06946272373199464 0.03
v 0.19635581970214844 -0.007121538519859314 0.03
v 0.39083194732666016 0.06946272373199464 0.04
v 0.3878571319580078 0.06909201622009277 0.03
v 0.3878571319580078 0.06909201622009277 0.04
v 0.19754074096679688 0.007612967491149903 0.03
v 0.20153688430786132 -0.004757597446441651 0.03
v 0.2031803321838379 -0.0038577836751937868 0.04
v 0.2031803321838379 -0.0038577836751937868 0.03
v 0.20445106506347657 -0.0022772316634654998 0.04
v 0.20445106506347657 -0.0022772316634654998 0.03
v 0.20498950958251955 -0.0003219867125153542 0.04
v 0.20498950958251955 -0.0003219867125153542 0.03
v 0.20475780487060546 0.0015372884273529054 0.04
v 0.20153688430786132 -0.004757597446441651 0.04
v 0.19967760086059572 -0.004989289343357086 0.03
v 0.19967760086059572 -0.004989289343357086 0.04
v 0.1977223587036133 -0.00445084422826767 0.03
v 0.1977223587036133 -0.00445084422826767 0.04
v 0.19614179611206056 -0.0031801116466522216 0.03
v 0.19614179611206056 -0.0031801116466522216 0.04
v 0.19524198532104492 -0.001536664068698883 0.03
v 0.19524198532104492 -0.001536664068698883 0.04
v 0.19501029968261718 0.0003226109966635704 0.03
v 0.19501029968261718 0.0003226109966635704 0.04
v 0.19554874420166016 0.0022778560221195223 0.03
v 0.19287805557250978 0.0036443823575973513 0.03
v 0.19554874420166016 0.0022778560221195223 0.04
v 0.19681947708129882 0.003858408033847809 0.03
v 0.19681947708129882 0.003858408033847809 0.04
v 0.19846292495727538 0.004758221805095672 0.03
v 0.19491121292114258 0.00617326557636261 0.04
v 0.19491121292114258 0.00617326557636261 0.03
v 0.19754074096679688 0.007612967491149903 0.04
v 0.19287805557250978 0.0036443823575973513 0.04
v 0.19201654434204102 0.0005159902945160866 0.03
v 0.19846292495727538 0.004758221805095672 0.04
v 0.2003221893310547 0.004989913702011108 0.03
v 0.2003221893310547 0.004989913702011108 0.04
v 0.20227745056152344 0.004451468586921692 0.03
v 0.20227745056152344 0.004451468586921692 0.04
v 0.20385799407958985 0.003180736005306244 0.03
v 0.20385799407958985 0.003180736005306244 0.04
v 0.20475780487060546 0.0015372884273529054 0.03
v 0.19292173385620118 -0.00228618785738945 0.03
v 0.19201654434204102 0.0005159902945160866 0.04
v 0.19238723754882814 -0.002458849847316742 0.03
v 0.19238723754882814 -0.002458849847316742 0.04
v 0.19382694244384766 -0.005088366270065307 0.03
v 0.19382694244384766 -0.005088366270065307 0.04
v 0.19635581970214844 -0.007121538519859314 0.04
v 0.19948421478271486 -0.007983050346374513 0.03
v 0.388779296875 0.06623727321624756 0.03
v 0.3906385803222656 0.06646896362304687 0.03
v 0.39259384155273436 0.06593051910400391 0.03
v 0.3906385803222656 0.06646896362304687 0.04
v 0.388779296875 0.06623727321624756 0.04
v 0.39259384155273436 0.06593051910400391 0.04
v 0.39417438507080077 0.06465978622436523 0.03
v 0.39417438507080077 0.06465978622436523 0.04
v 0.3950741958618164 0.06301633834838867 0.03
v 0.3953059005737305 0.06115706443786621 0.03
v 0.3950741958618164 0.06301633834838867 0.04
v 0.3953059005737305 0.06115706443786621 0.04
v 0.3947674560546875 0.05920181751251221 0.03
v 0.3954049682617188 0.055306406021118165 0.03
v 0.3947674560546875 0.05920181751251221 0.04
v 0.3934967041015625 0.05762126445770264 0.03
v 0.3934967041015625 0.05762126445770264 0.04
v 0.3918532562255859 0.056721453666687016 0.03
v 0.3918532562255859 0.056721453666687016 0.04
v 0.3899939727783203 0.056489758491516114 0.03
v 0.3899939727783203 0.056489758491516114 0.04
v 0.3880387496948242 0.05702820301055908 0.03
v 0.3880387496948242 0.05702820301055908 0.04
v 0.3864582061767578 0.05829893589019775 0.03
v 0.3864582061767578 0.05829893589019775 0.04
v 0.3855583572387695 0.05994238376617432 0.03
v 0.3855583572387695 0.05994238376617432 0.04
v 0.38532669067382813 0.06180166244506836 0.03
v 0.38532669067382813 0.06180166244506836 0.04
v 0.3858651351928711 0.06375690460205079 0.03
v 0.3858651351928711 0.06375690460205079 0.04
v 0.3871358489990234 0.06533745765686036 0.03
v 0.3871358489990234 0.06533745765686036 0.04
v 0.3974381256103516 0.057835292816162114 0.04
v 0.3974381256103516 0.057835292816162114 0.03
v 0.3954049682617188 0.055306406021118165 0.04
v 0.39277545928955077 0.053866705894470214 0.04
v 0.3982996368408203 0.060963683128356934 0.03
v 0.39768352508544924 0.06088690757751465 0.03
v 0.3982996368408203 0.060963683128356934 0.04
v 0.3979289245605469 0.06393852233886718 0.03
v 0.19948421478271486 -0.007983050346374513 0.04
v 0.20245906829833984 -0.0076123434305191045 0.04
v 0.39277545928955077 0.053866705894470214 0.03
v 0.20245906829833984 -0.0076123434305191045 0.03
vn -0.0 -0.0 1.0
vn 0.6265847086906433 0.7793533205986023 1.2835099302832553e-11
vn 0.877134382724762 0.48024502396583557 -1.184186689678901e-11
vn 0.6265847086906433 0.7793533205986023 4.447942800753571e-15
vn 0.2655014991760254 0.9641104340553284 1.8865016157294107e-15
vn -0.0 0.0 -1.0
vn 0.2655014991760254 0.9641104340553284 -3.774336037801326e-15
vn -0.12365768104791641 0.992324948310852 1.7572813397907284e-15
vn -0.0 0.0 -1.0
vn -0.12365768104791641 0.992324948310852 0.0
vn -0.30739524960517883 0.9515819549560547 0.0
vn -0.0 0.0 -1.0
vn -0.48024502396583557 0.877134382724762 1.1685777713394655e-15
vn -0.7793533205986023 0.6265847086906433 -7.593418285107255e-15
vn -0.9641104340553284 0.2655014991760254 -8.019159988825741e-12
vn -0.992324948310852 -0.12365768104791641 7.406506831453274e-12
vn -0.9641104340553284 0.2655014991760254 -9.973656252824144e-15
vn 0.0 -0.0 -1.0
vn -0.7793533205986023 0.6265847086906433 8.382661562502183e-16
vn 0.0 -0.0 -1.0
vn -0.48024502396583557 0.877134382724762 0.0
vn -0.12365768104791641 0.992324948310852 0.0
vn -0.12365768104791641 0.992324948310852 7.407499093281533e-12
vn 0.2655014991760254 0.9641104340553284 -8.017855476771807e-12
vn 1.9907586660422062e-15 -1.0186206465443402e-15 -1.0
vn 0.2655014991760254 0.9641104340553284 -1.9588056186564586e-15
vn 0.6265847086906433 0.7793533205986023 -3.048069236518281e-15
vn -0.0 0.0 -1.0
vn 0.6265847086906433 0.7793533205986023 3.421494563924976e-16
vn 0.877134382724762 0.48024502396583557 2.132716332274123e-16
vn -0.0 -0.0 -1.0
vn 0.877134382724762 0.48024502396583557 0.0
vn 0.992324948310852 0.12365768104791641 0.0
vn 0.992324948310852 0.12365768104791641 7.406538056475842e-12
vn 0.9641104340553284 -0.2655014991760254 -8.019228510403043e-12
vn 4.9521548327162174e-15 3.1787939488504054e-15 -1.0
vn 0.9641104340553284 -0.2655014991760254 -2.395046274156822e-16
vn 0.7793533205986023 -0.6265847086906433 -5.391277888396528e-16
vn 3.190733142939751e-16 -5.875947599716597e-15 -1.0
vn 0.7793533205986023 -0.6265847086906433 1.3857052441265671e-15
vn 0.48024502396583557 -0.877134382724762 1.9476296541921486e-15
vn 0.0 0.0 -1.0
vn -0.7793533205986023 0.6265847086906433 1.2828619243288042e-11
vn -0.48024502396583557 0.877134382724762 -1.185256493646536e-11
vn -0.7793533205986023 0.6265847086906433 1.218907410274132e-15
vn -0.9641104340553284 0.2655014991760254 5.158403120207903e-16
vn 0.0 0.0 -1.0
vn 0.0 0.0 -1.0
vn 0.0 -0.0 -1.0
vn 0.48024502396583557 -0.877134382724762 0.0
vn 0.12365768104791641 -0.992324948310852 0.0
vn 0.12365768104791641 -0.992324948310852 7.407938845682693e-12
vn -0.2655014991760254 -0.9641104340553284 -8.018799166342738e-12
vn -2.5368605006530773e-15 7.283195009274209e-15 -1.0
vn -0.2655014991760254 -0.9641104340553284 -7.18513855777267e-16
vn -0.6265847086906433 -0.7793533205986023 8.849291483748985e-16
vn 8.493203597283606e-16 -2.4383550158103753e-15 -1.0
vn -0.6265847086906433 -0.7793533205986023 2.2410789248124806e-15
vn -0.877134382724762 -0.48024502396583557 1.3862656623002943e-15
vn -8.294238204951531e-16 2.2480576292649088e-15 -1.0
vn -0.992324948310852 -0.12365768104791641 0.0
vn -0.877134382724762 -0.48024502396583557 0.0
vn 0.0 -0.0 -1.0
vn 0.0 -0.0 -1.0
vn 7.544901084921476e-15 -2.2211661966620687e-14 -1.0
vn -8.073204957365521e-16 2.4051381952673243e-15 -1.0
vn 0.0 0.0 -1.0
vn -0.0 -0.0 -1.0
vn -0.9641104340553284 0.2655014991760254 -8.55373640981244e-17
vn -0.992324948310852 -0.12365768104791641 3.861213917565264e-17
vn 0.0 -0.0 -1.0
vn -0.992324948310852 -0.12365768104791641 0.0
vn -0.877134382724762 -0.48024502396583557 0.0
vn -0.877134382724762 -0.48024502396583557 -1.1852571875359263e-11
vn -0.6265847086906433 -0.7793533205986023 1.2829050322071822e-11
vn 0.0 0.0 -1.0
vn -0.6265847086906433 -0.7793533205986023 -1.56105684019685e-15
vn -0.2655014991760254 -0.9641104340553284 -1.926679776549471e-15
vn -3.28595653393052e-15 7.201827330295067e-15 -1.0
vn -0.0 0.0 -1.0
vn 7.43383960718515e-16 9.246296355522668e-16 -1.0
vn -0.2655014991760254 -0.9641104340553284 -8.020042963075014e-12
vn 0.12365768104791641 -0.992324948310852 7.409478412767623e-12
vn -0.2655014991760254 -0.9641104340553284 2.7457494133578285e-15
vn -0.6265847086906433 -0.7793533205986023 5.144356772843585e-15
vn 0.0 -0.0 -1.0
vn -0.6265847086906433 -0.7793533205986023 3.763643940908135e-15
vn -0.877134382724762 -0.48024502396583557 5.805871293440828e-15
vn 3.069627283817087e-15 -3.723691090852044e-15 -1.0
vn -0.992324948310852 -0.12365768104791641 0.0
vn -0.992324948310852 -0.12365768104791641 7.410032656918197e-12
vn -0.9641104340553284 0.2655014991760254 -8.015736512045901e-12
vn -0.0 -0.0 -1.0
vn -0.9641104340553284 0.2655014991760254 4.704554926135169e-16
vn -0.7793533205986023 0.6265847086906433 1.1130380327462378e-15
vn -2.9036723536262883e-15 -4.752142825298691e-16 -1.0
vn -0.7793533205986023 0.6265847086906433 5.47439140815908e-16
vn -0.48024502396583557 0.877134382724762 7.790518299131239e-16
vn 2.999968776542551e-15 4.39145629108355e-15 -1.0
vn -0.48024502396583557 0.877134382724762 0.0
vn -0.12365768104791641 0.992324948310852 0.0
vn -0.12365768104791641 0.992324948310852 7.405076551947332e-12
vn 0.2655014991760254 0.9641104340553284 -8.018839064982686e-12
vn 1.2459898064549305e-15 -3.723085038778284e-15 -1.0
vn 0.2655014991760254 0.9641104340553284 0.0
vn 0.6265847086906433 0.7793533205986023 0.0
vn -8.258176306617771e-16 2.4675878168860157e-15 -1.0
vn 0.6265847086906433 0.7793533205986023 -5.149349185034702e-15
vn 0.877134382724762 0.48024502396583557 -6.658957985169155e-15
vn 8.021332130280076e-16 -2.2629997139709482e-15 -1.0
vn 0.877134382724762 0.48024502396583557 0.0
vn 0.992324948310852 0.12365768104791641 0.0
vn 0.992324948310852 0.12365768104791641 7.410362254378633e-12
vn 0.9641104340553284 -0.2655014991760254 -8.0164442792241e-12
vn -9.470190456888029e-16 2.532066294171618e-15 -1.0
vn 0.9641104340553284 -0.2655014991760254 -2.129880439496936e-15
vn 0.7793533205986023 -0.6265847086906433 -5.0086709885393925e-15
vn 1.502725492767709e-15 -4.01787113914762e-15 -1.0
vn 0.7793533205986023 -0.6265847086906433 -4.978274364194225e-15
vn 0.48024502396583557 -0.877134382724762 -2.633294354665032e-15
vn -6.19540184060882e-15 1.6250820066249054e-14 -1.0
vn 0.48024502396583557 -0.877134382724762 0.0
vn 0.12365768104791641 -0.992324948310852 0.0
vn 0.0 -0.0 1.0
vn -0.0 0.0 1.0
vn -0.0 0.0 1.0
vn -0.0 0.0 1.0
vn -0.0 0.0 1.0
vn -0.0 0.0 1.0
vn -0.0 0.0 1.0
vn -0.0 0.0 1.0
vn -0.0 0.0 1.0
vn 0.0 -0.0 1.0
vn 0.0 -0.0 1.0
vn -0.0 -0.0 1.0
vn -0.0 -0.0 1.0
vn -0.877134382724762 -0.48024502396583557 0.0
vn -1.3914629505855283e-14 3.043055436745246e-15 -1.0
vn -0.0 0.0 -1.0
vn 0.7793533205986023 -0.6265847086906433 1.2838776916601624e-11
vn 0.48024502396583557 -0.877134382724762 -1.1849195236113275e-11
vn 0.7793533205986023 -0.6265847086906433 -8.853117213934378e-15
vn 0.9641104340553284 -0.2655014991760254 -1.2757582499905908e-14
vn 0.0 0.0 -1.0
vn 0.9641104340553284 -0.2655014991760254 -6.137305968339016e-15
vn 0.992324948310852 0.12365768104791641 -7.38038272260922e-15
vn -1.8318150246025253e-16 1.4699901045760536e-15 -1.0
vn 0.992324948310852 0.12365768104791641 0.0
vn 0.877134382724762 0.48024502396583557 0.0
vn 0.0 0.0 1.0
vn 0.0 0.0 1.0
vn 0.0 0.0 1.0
vn 0.0 0.0 1.0
vn 0.0 0.0 1.0
vn 0.0 -0.0 1.0
vn -0.0 0.0 1.0
vn -0.48024502396583557 0.877134382724762 0.0
vn -0.30739524960517883 0.9515819549560547 0.0
vn 2.430344836986428e-15 -7.523448281466366e-15 -1.0
vn -0.0 0.0 1.0
vn -0.0 0.0 1.0
vn 0.0 0.0 1.0
vn -0.0 0.0 1.0
vn 0.0 -0.0 1.0
vn 0.0 -0.0 1.0
vn 0.0 -0.0 1.0
vn 0.0 -0.0 1.0
vn -0.0 0.0 1.0
vn -0.0 0.0 1.0
vn 0.0 0.0 1.0
vn 0.0 0.0 1.0
vn 0.0 0.0 1.0
vn -0.0 -0.0 1.0
vn -0.0 0.0 1.0
vn -0.0 -0.0 1.0
vn 0.0 -0.0 1.0
vn 0.0 -0.0 1.0
vn 0.0 -0.0 1.0
vn 0.0 -0.0 1.0
vn 0.0 -0.0 1.0
vn 0.0 -0.0 1.0
vn 0.0 -0.0 1.0
vn 0.0 -0.0 1.0
vn -0.0 0.0 1.0
vn 0.0 -0.0 1.0
vn 0.0 -0.0 1.0
vn 0.30739524960517883 -0.9515819549560547 0.0
vn 0.30739524960517883 -0.9515819549560547 0.0
vn 0.12365768104791641 -0.992324948310852 1.098981097470079e-15
vn -0.2655014991760254 -0.9641104340553284 -1.6679785502825891e-15
vn 0.0 0.0 -1.0
vn 0.48024502396583557 -0.877134382724762 0.0
vn 0.0 -0.0 1.0
vn 0.12365768104791641 -0.992324948310852 0.0
vn -0.0 0.0 -1.0
vn -0.0 0.0 -1.0
vn 5.50738969420174e-16 -1.756010260974255e-15 -1.0
vn -7.710634092480094e-15 2.3541634136883816e-14 -1.0
vn 8.108065657100956e-16 -2.287469437025941e-15 -1.0
vn 0.0 -0.0 -1.0
vn 0.0 -0.0 -1.0
vn 5.00709677780692e-15 1.0526022319596435e-15 -1.0
vn 8.46646594351234e-16 -5.173212220741224e-15 -1.0
vn -3.28595653393052e-15 7.201827330295067e-15 -1.0
vn 0.0 -0.0 1.0
vn -0.0 -0.0 1.0
vn -0.0 -0.0 1.0
vn -0.0 -0.0 1.0
vn -0.0 -0.0 1.0
vn 0.0 0.0 -1.0
f 1//1 2//1 3//1
f 4//2 3//2 5//2
f 6//3 5//3 3//3
f 1//4 3//4 4//4
f 7//5 1//5 4//5
f 4//6 8//6 7//6
f 9//7 1//7 7//7
f 10//8 9//8 7//8
f 7//9 8//9 10//9
f 11//10 9//10 10//10
f 12//11 11//11 10//11
f 10//12 8//12 13//12
f 13//13 14//13 15//13
f 15//14 16//14 17//14
f 17//15 18//15 19//15
f 20//16 19//16 18//16
f 16//17 18//17 17//17
f 17//18 10//18 15//18
f 14//19 16//19 15//19
f 15//20 10//20 13//20
f 21//21 14//21 13//21
f 13//22 22//22 21//22
f 21//23 22//23 23//23
f 24//24 23//24 22//24
f 22//25 8//25 24//25
f 25//26 23//26 24//26
f 26//27 25//27 24//27
f 24//28 8//28 26//28
f 27//29 25//29 26//29
f 28//30 27//30 26//30
f 26//31 8//31 28//31
f 29//32 27//32 28//32
f 28//33 30//33 29//33
f 29//34 30//34 31//34
f 32//35 31//35 30//35
f 30//36 33//36 32//36
f 34//37 31//37 32//37
f 35//38 34//38 32//38
f 32//39 33//39 35//39
f 36//40 34//40 35//40
f 37//41 36//41 35//41
f 37//42 35//42 33//42
f 33//43 38//43 39//43
f 40//44 39//44 38//44
f 41//45 38//45 33//45
f 42//46 41//46 33//46
f 28//47 33//47 30//47
f 8//48 33//48 28//48
f 33//49 10//49 37//49
f 43//50 36//50 37//50
f 37//51 44//51 43//51
f 43//52 44//52 45//52
f 46//53 45//53 44//53
f 44//54 10//54 46//54
f 47//55 45//55 46//55
f 48//56 47//56 46//56
f 46//57 10//57 48//57
f 49//58 47//58 48//58
f 50//59 49//59 48//59
f 48//60 10//60 50//60
f 50//61 19//61 20//61
f 20//62 49//62 50//62
f 50//63 10//63 19//63
f 19//64 10//64 17//64
f 37//65 10//65 44//65
f 39//66 10//66 33//66
f 8//67 51//67 33//67
f 33//68 51//68 42//68
f 52//69 41//69 42//69
f 53//70 52//70 42//70
f 42//71 51//71 53//71
f 54//72 52//72 53//72
f 53//73 55//73 54//73
f 54//74 55//74 56//74
f 8//75 56//75 55//75
f 55//76 51//76 8//76
f 57//77 56//77 8//77
f 58//78 57//78 8//78
f 13//79 8//79 22//79
f 59//80 8//80 4//80
f 4//81 5//81 60//81
f 61//82 62//82 60//82
f 63//83 60//83 62//83
f 64//84 62//84 61//84
f 65//85 64//85 61//85
f 61//86 5//86 65//86
f 66//87 64//87 65//87
f 67//88 66//88 65//88
f 65//89 5//89 67//89
f 67//90 68//90 69//90
f 69//91 68//91 70//91
f 71//92 70//92 68//92
f 68//93 72//93 71//93
f 73//94 70//94 71//94
f 74//95 73//95 71//95
f 71//96 72//96 74//96
f 75//97 73//97 74//97
f 76//98 75//98 74//98
f 74//99 72//99 76//99
f 77//100 75//100 76//100
f 76//101 78//101 77//101
f 77//102 78//102 79//102
f 80//103 79//103 78//103
f 78//104 8//104 80//104
f 81//105 79//105 80//105
f 82//106 81//106 80//106
f 80//107 8//107 82//107
f 83//108 81//108 82//108
f 84//109 83//109 82//109
f 82//110 8//110 84//110
f 85//111 83//111 84//111
f 84//112 86//112 85//112
f 85//113 86//113 87//113
f 88//114 87//114 86//114
f 86//115 8//115 88//115
f 89//116 87//116 88//116
f 90//117 89//117 88//117
f 88//118 8//118 90//118
f 91//119 89//119 90//119
f 59//120 91//120 90//120
f 90//121 8//121 59//121
f 63//122 91//122 59//122
f 59//123 60//123 63//123
f 62//124 1//124 63//124
f 63//125 40//125 91//125
f 91//126 40//126 89//126
f 89//127 40//127 87//127
f 87//128 40//128 85//128
f 85//129 40//129 83//129
f 83//130 40//130 81//130
f 81//131 40//131 79//131
f 79//132 40//132 77//132
f 77//133 92//133 75//133
f 75//134 92//134 73//134
f 73//135 92//135 70//135
f 70//136 92//136 69//136
f 69//137 66//137 67//137
f 67//138 5//138 68//138
f 5//139 72//139 68//139
f 93//140 94//140 72//140
f 95//141 72//141 94//141
f 92//142 94//142 93//142
f 96//143 92//143 93//143
f 93//144 97//144 96//144
f 98//145 92//145 96//145
f 99//146 98//146 96//146
f 96//147 97//147 99//147
f 6//148 98//148 99//148
f 99//149 5//149 6//149
f 6//150 2//150 98//150
f 98//151 2//151 92//151
f 92//152 1//152 69//152
f 69//153 1//153 66//153
f 66//154 1//154 64//154
f 64//155 1//155 62//155
f 1//156 40//156 63//156
f 12//157 39//157 40//157
f 40//158 11//158 12//158
f 12//159 10//159 39//159
f 11//160 40//160 9//160
f 9//161 40//161 1//161
f 92//162 2//162 1//162
f 3//163 2//163 6//163
f 40//164 92//164 77//164
f 38//165 92//165 40//165
f 41//166 92//166 38//166
f 43//167 92//167 41//167
f 41//168 52//168 36//168
f 36//169 52//169 34//169
f 34//170 52//170 31//170
f 31//171 52//171 29//171
f 29//172 52//172 27//172
f 27//173 100//173 25//173
f 25//174 100//174 23//174
f 23//175 101//175 21//175
f 21//176 95//176 14//176
f 14//177 94//177 16//177
f 16//178 92//178 18//178
f 18//179 92//179 20//179
f 20//180 92//180 49//180
f 49//181 92//181 47//181
f 47//182 92//182 45//182
f 45//183 92//183 43//183
f 43//184 41//184 36//184
f 94//185 92//185 16//185
f 95//186 94//186 14//186
f 95//187 101//187 102//187
f 102//188 101//188 103//188
f 103//189 100//189 58//189
f 100//190 57//190 58//190
f 58//191 8//191 72//191
f 102//192 72//192 95//192
f 101//193 95//193 21//193
f 101//194 100//194 103//194
f 103//195 58//195 102//195
f 102//196 58//196 72//196
f 72//197 8//197 76//197
f 76//198 8//198 78//198
f 84//199 8//199 86//199
f 5//200 97//200 72//200
f 72//201 97//201 93//201
f 99//202 97//202 5//202
f 60//203 5//203 61//203
f 59//204 4//204 60//204
f 100//205 101//205 23//205
f 52//206 100//206 27//206
f 57//207 100//207 52//207
f 54//208 57//208 52//208
f 56//209 57//209 54//209
f 53//210 51//210 55//210
