mtllib part_8.mtl
usemtl part_8

v -0.12476177215576172 -0.10750567436218261 0.08750000000000001
v -0.124091215133667 -0.11254334449768066 0.08750000000000001
v -0.12385697364807129 -0.10763240814208985 0.08750000000000001
v -0.12294012069702148 -0.10794403076171875 0.08750000000000001
v -0.12385697364807129 -0.10763240814208985 0.05
v -0.12294012069702148 -0.10794403076171875 0.05
v -0.12206766128540039 -0.10845013618469239 0.08750000000000001
v -0.12206766128540039 -0.10845013618469239 0.05
v -0.12130002975463867 -0.1091369342803955 0.08750000000000001
v -0.12130002975463867 -0.1091369342803955 0.05
v -0.12068942070007324 -0.10996644973754884 0.08750000000000001
v -0.12068942070007324 -0.10996644973754884 0.05
v -0.12026865005493165 -0.11088311195373535 0.08750000000000001
v -0.12480084419250488 -0.11113279342651368 0.05
v -0.12476177215576172 -0.10750567436218261 0.05
v -0.12567453384399413 -0.10754570960998536 0.05
v -0.12567453384399413 -0.10754570960998536 0.08750000000000001
v -0.12661688804626464 -0.10776865005493164 0.05
v -0.12661688804626464 -0.10776865005493164 0.08750000000000001
v -0.12753355026245117 -0.10818942070007324 0.05
v -0.12753355026245117 -0.10818942070007324 0.08750000000000001
v -0.12836306571960449 -0.10880002975463868 0.05
v -0.12637995719909667 -0.1125681209564209 0.08750000000000001
v -0.12523822784423827 -0.11749432563781738 0.08750000000000001
v -0.1261430263519287 -0.11736759185791015 0.08750000000000001
v -0.12523822784423827 -0.11749432563781738 0.05
v -0.1261430263519287 -0.11736759185791015 0.05
v -0.12705987930297852 -0.11705596923828125 0.08750000000000001
v -0.12705987930297852 -0.11705596923828125 0.05
v -0.1279323387145996 -0.11654986381530762 0.08750000000000001
v -0.1279323387145996 -0.11654986381530762 0.05
v -0.12869997024536134 -0.11586306571960449 0.08750000000000001
v -0.12869997024536134 -0.11586306571960449 0.05
v -0.12931057929992676 -0.11503355026245117 0.08750000000000001
v -0.12931057929992676 -0.11503355026245117 0.05
v -0.12973134994506835 -0.11411688804626464 0.08750000000000001
v -0.12504334449768068 -0.113408784866333 0.05
v -0.12432546615600586 -0.11745429039001465 0.05
v -0.12432546615600586 -0.11745429039001465 0.08750000000000001
v -0.12338311195373536 -0.11723134994506836 0.05
v -0.12338311195373536 -0.11723134994506836 0.08750000000000001
v -0.12246644973754883 -0.11681057929992676 0.05
v -0.12246644973754883 -0.11681057929992676 0.08750000000000001
v -0.12163693428039551 -0.11619997024536133 0.05
v -0.12973134994506835 -0.11411688804626464 0.05
v -0.12995429039001466 -0.11317453384399415 0.08750000000000001
v -0.12995429039001466 -0.11317453384399415 0.05
v -0.12999432563781738 -0.11226177215576172 0.08750000000000001
v -0.12986759185791016 -0.11135697364807129 0.08750000000000001
v -0.12999432563781738 -0.11226177215576172 0.05
v -0.12986759185791016 -0.11135697364807129 0.05
v -0.12955596923828125 -0.11044012069702148 0.08750000000000001
v -0.12955596923828125 -0.11044012069702148 0.05
v -0.1290498638153076 -0.1095676612854004 0.08750000000000001
v -0.1290498638153076 -0.1095676612854004 0.05
v -0.12836306571960449 -0.10880002975463868 0.08750000000000001
v -0.12000567436218262 -0.11273822784423829 0.05
v -0.12004570960998535 -0.11182546615600586 0.05
v -0.12000567436218262 -0.11273822784423829 0.08750000000000001
v -0.12004570960998535 -0.11182546615600586 0.08750000000000001
v -0.12026865005493165 -0.11088311195373535 0.05
v -0.12013240814208985 -0.11364302635192872 0.08750000000000001
v -0.12013240814208985 -0.11364302635192872 0.05
v -0.12044403076171875 -0.11455987930297852 0.08750000000000001
v -0.12044403076171875 -0.11455987930297852 0.05
v -0.12095013618469239 -0.11543233871459961 0.08750000000000001
v -0.12095013618469239 -0.11543233871459961 0.05
v -0.12163693428039551 -0.11619997024536133 0.08750000000000001
vn -0.0 0.0 1.0
vn 0.32180356979370117 0.9468064308166504 6.007155014949538e-16
vn 0.32180356979370117 0.9468064308166504 0.0
vn 0.5017805695533752 0.8649949431419373 -6.474349271897448e-16
vn 0.6667768955230713 0.7452573776245117 3.717580621640331e-17
vn 0.8053387999534607 0.5928148031234741 -2.808134978109884e-16
vn 0.9088281393051147 0.4171707034111023 -1.97611741038134e-16
vn 0.8053387999534607 0.5928148031234741 -1.0104930345431902e-16
vn 4.503258287374013e-15 -7.8988753065461e-15 -1.0
vn 0.6667768955230713 0.7452573776245117 -6.669254200038623e-16
vn -7.60571042723781e-15 4.438119759664263e-15 -1.0
vn 0.5017805695533752 0.8649949431419373 0.0
vn -0.0 0.0 -1.0
vn 0.13870559632778168 0.9903336763381958 5.348204145446279e-16
vn -0.0 0.0 -1.0
vn 0.13870559632778168 0.9903336763381958 0.0
vn -0.043814171105623245 0.9990397095680237 0.0
vn -0.043814171105623245 0.9990397095680237 -4.249771311227134e-14
vn -0.2302238643169403 0.9731376767158508 1.1648000043947113e-15
vn -0.4171707034111023 0.9088281393051147 0.0
vn -0.5928148031234741 0.8053387999534607 0.0
vn -0.4171707034111023 0.9088281393051147 8.954921256831925e-16
vn -8.655058888009694e-16 3.658423814134311e-15 1.0
vn -0.2302238643169403 0.9731376767158508 4.611058645911763e-14
vn 0.0 0.0 1.0
vn -0.13870559632778168 -0.9903336763381958 0.0
vn -0.13870559632778168 -0.9903336763381958 6.570417366494867e-17
vn -0.32180356979370117 -0.9468064308166504 -1.2018688131445196e-15
vn -0.5017805695533752 -0.8649949431419373 -4.0974392966303206e-16
vn -0.6667768955230713 -0.7452573776245117 -3.717580621640331e-17
vn -0.8053387999534607 -0.5928148031234741 3.814851105976157e-16
vn -0.9088281393051147 -0.4171707034111023 4.3050748652709314e-16
vn -0.8053387999534607 -0.5928148031234741 9.880376617158867e-17
vn 0.0 -0.0 -1.0
vn -0.6667768955230713 -0.7452573776245117 -3.5254980337491874e-16
vn 0.0 -0.0 -1.0
vn -0.5017805695533752 -0.8649949431419373 -1.295654418646884e-15
vn 0.0 -0.0 -1.0
vn -0.32180356979370117 -0.9468064308166504 1.528659682848945e-16
vn 9.448634738929828e-15 -2.624648054097697e-15 -1.0
vn 0.043814171105623245 -0.9990397095680237 0.0
vn 0.043814171105623245 -0.9990397095680237 -4.247695741693182e-14
vn 0.2302238643169403 -0.9731376767158508 0.0
vn 0.4171707034111023 -0.9088281393051147 0.0
vn 0.5928148031234741 -0.8053387999534607 0.0
vn 0.4171707034111023 -0.9088281393051147 0.0
vn 0.0 0.0 1.0
vn 0.2302238643169403 -0.9731376767158508 4.6219264174382144e-14
vn 0.0 -0.0 1.0
vn 1.9189595794550166e-14 8.415844078210871e-16 1.0
vn -5.21990141794771e-16 -3.726917862864609e-15 1.0
vn -1.2794251614983731e-15 -3.7643088617717296e-15 1.0
vn -2.1106121340127952e-15 -3.63838132053638e-15 1.0
vn -2.9592250094719616e-15 -3.3075291925476662e-15 1.0
vn -3.743290586218561e-15 -2.7554589520322045e-15 1.0
vn -4.372777520530698e-15 -2.007194281592492e-15 1.0
vn -0.9088281393051147 -0.4171707034111023 -3.5544500169330334e-17
vn -0.9731376767158508 -0.2302238643169403 -2.4285877200769083e-16
vn -4.777980294805263e-15 -1.1303693856382449e-15 1.0
vn -0.9731376767158508 -0.2302238643169403 4.5649600636035736e-14
vn -0.9990397095680237 -0.043814171105623245 -4.2970953808034104e-14
vn -4.9330512751403176e-15 -2.1634531726965115e-16 1.0
vn -0.9903336763381958 0.13870559632778168 0.0
vn -0.9903336763381958 0.13870559632778168 8.068241873690203e-16
vn -0.9468064308166504 0.32180356979370117 6.009344065722598e-16
vn -0.8649949431419373 0.5017805695533752 -4.0974392966303206e-16
vn -0.7452573776245117 0.6667768955230713 3.717580621640331e-17
vn -0.5928148031234741 0.8053387999534607 -1.0104930345431902e-16
vn -0.0 -0.0 -1.0
vn -0.7452573776245117 0.6667768955230713 -3.5254980337491874e-16
vn -0.0 -0.0 -1.0
vn -0.8649949431419373 0.5017805695533752 6.466805914106556e-16
vn 0.0 -0.0 -1.0
vn -0.9468064308166504 0.32180356979370117 5.923556039429091e-16
vn 0.0 0.0 -1.0
vn 0.9990397095680237 0.043814171105623245 0.0
vn 0.9990397095680237 0.043814171105623245 -4.2991706115241834e-14
vn 0.9731376767158508 0.2302238643169403 1.0309971743322648e-15
vn 0.9088281393051147 0.4171707034111023 1.0583089046835325e-15
vn -0.0 0.0 1.0
vn 0.9731376767158508 0.2302238643169403 4.554092292077122e-14
vn -3.426788678663993e-15 1.9311112835229162e-14 1.0
vn 0.9903336763381958 -0.13870559632778168 0.0
vn 0.9903336763381958 -0.13870559632778168 3.377079067846717e-16
vn 0.9468064308166504 -0.32180356979370117 3.048736010266448e-16
vn 0.8649949431419373 -0.5017805695533752 0.0
vn 0.7452573776245117 -0.6667768955230713 0.0
vn 0.5928148031234741 -0.8053387999534607 0.0
vn -5.470315803254248e-15 -6.676074403450796e-15 -1.0
vn 0.7452573776245117 -0.6667768955230713 0.0
vn -1.6862856851298331e-15 9.782083869934823e-16 -1.0
vn 0.8649949431419373 -0.5017805695533752 4.74691080866262e-16
vn 4.547023209209222e-16 9.532712076307237e-15 -1.0
vn 0.9468064308166504 -0.32180356979370117 1.4331184692144982e-16
vn 0.0 0.0 -1.0
vn 0.0 0.0 -1.0
vn 3.306412803123185e-15 9.875706209836604e-15 -1.0
vn 1.934498314169102e-15 4.576614834617143e-16 -1.0
vn 2.4319889279370488e-15 -8.572917867949708e-15 -1.0
vn -0.0 0.0 -1.0
vn -0.0 -0.0 -1.0
vn -0.0 -0.0 -1.0
vn -0.0 -0.0 -1.0
vn -0.0 0.0 -1.0
vn -0.0 0.0 -1.0
vn -0.9990397095680237 -0.043814171105623245 0.0
vn -4.857055479112662e-15 6.802765650767214e-16 1.0
vn -4.555592641536594e-15 1.5483692395590462e-15 1.0
vn -4.027597194964467e-15 2.3363951188505334e-15 1.0
vn 9.649821157528722e-15 1.4507028255538942e-14 1.0
vn -2.0437129636188822e-14 -1.3274522472450472e-15 1.0
vn -1.6612596731867312e-15 3.6191409671394986e-15 1.0
vn 4.547023209209222e-16 9.532712076307237e-15 -1.0
vn 3.1403655463411355e-15 -8.247758860157727e-15 -1.0
vn 0.0 -0.0 -1.0
vn 0.0 0.0 -1.0
vn 0.0 0.0 -1.0
vn 0.0 0.0 -1.0
vn -9.655556417614581e-15 -1.7133943393319966e-15 -1.0
vn -0.0 -0.0 -1.0
vn 0.0 0.0 1.0
vn 0.0 0.0 1.0
vn 0.0 0.0 1.0
vn 0.0 0.0 1.0
vn 0.0 -0.0 1.0
vn 0.0 0.0 1.0
vn -5.249296108195394e-15 -1.8897269477859656e-14 1.0
vn -0.0 0.0 1.0
vn -0.0 0.0 1.0
vn -0.0 0.0 1.0
vn -0.0 0.0 1.0
vn -0.0 0.0 1.0
f 1//1 2//1 3//1
f 3//2 4//2 5//2
f 5//3 4//3 6//3
f 6//4 7//4 8//4
f 8//5 9//5 10//5
f 10//6 11//6 12//6
f 13//7 12//7 11//7
f 9//8 11//8 10//8
f 10//9 14//9 8//9
f 7//10 9//10 8//10
f 8//11 14//11 6//11
f 4//12 7//12 6//12
f 6//13 14//13 5//13
f 15//14 3//14 5//14
f 5//15 14//15 15//15
f 1//16 3//16 15//16
f 15//17 16//17 1//17
f 1//18 16//18 17//18
f 17//19 18//19 19//19
f 19//20 20//20 21//20
f 22//21 21//21 20//21
f 18//22 20//22 19//22
f 19//23 23//23 17//23
f 16//24 18//24 17//24
f 1//25 17//25 24//25
f 24//26 25//26 26//26
f 26//27 25//27 27//27
f 27//28 28//28 29//28
f 29//29 30//29 31//29
f 31//30 32//30 33//30
f 33//31 34//31 35//31
f 36//32 35//32 34//32
f 32//33 34//33 33//33
f 33//34 37//34 31//34
f 30//35 32//35 31//35
f 31//36 37//36 29//36
f 28//37 30//37 29//37
f 29//38 37//38 27//38
f 25//39 28//39 27//39
f 27//40 37//40 26//40
f 26//41 38//41 24//41
f 24//42 38//42 39//42
f 39//43 40//43 41//43
f 41//44 42//44 43//44
f 44//45 43//45 42//45
f 40//46 42//46 41//46
f 41//47 2//47 39//47
f 38//48 40//48 39//48
f 39//49 2//49 24//49
f 17//50 23//50 24//50
f 24//51 23//51 25//51
f 25//52 23//52 28//52
f 28//53 23//53 30//53
f 30//54 23//54 32//54
f 32//55 23//55 34//55
f 34//56 23//56 36//56
f 45//57 35//57 36//57
f 46//58 45//58 36//58
f 36//59 23//59 46//59
f 47//60 45//60 46//60
f 48//61 47//61 46//61
f 46//62 23//62 48//62
f 48//63 49//63 50//63
f 50//64 49//64 51//64
f 51//65 52//65 53//65
f 53//66 54//66 55//66
f 55//67 56//67 22//67
f 56//68 21//68 22//68
f 22//69 14//69 55//69
f 54//70 56//70 55//70
f 55//71 14//71 53//71
f 52//72 54//72 53//72
f 53//73 14//73 51//73
f 49//74 52//74 51//74
f 50//75 51//75 57//75
f 57//76 58//76 59//76
f 59//77 58//77 60//77
f 60//78 61//78 13//78
f 61//79 12//79 13//79
f 13//80 2//80 60//80
f 58//81 61//81 60//81
f 60//82 2//82 59//82
f 59//83 62//83 57//83
f 57//84 62//84 63//84
f 63//85 64//85 65//85
f 65//86 66//86 67//86
f 67//87 68//87 44//87
f 68//88 43//88 44//88
f 44//89 37//89 67//89
f 66//90 68//90 67//90
f 67//91 37//91 65//91
f 64//92 66//92 65//92
f 65//93 37//93 63//93
f 62//94 64//94 63//94
f 63//95 37//95 57//95
f 51//96 14//96 57//96
f 57//97 14//97 58//97
f 58//98 14//98 61//98
f 61//99 14//99 12//99
f 12//100 14//100 10//100
f 20//101 14//101 22//101
f 18//102 14//102 20//102
f 16//103 14//103 18//103
f 15//104 14//104 16//104
f 57//105 37//105 50//105
f 50//106 47//106 48//106
f 48//107 23//107 49//107
f 49//108 23//108 52//108
f 52//109 23//109 54//109
f 54//110 23//110 56//110
f 56//111 23//111 21//111
f 21//112 23//112 19//112
f 47//113 37//113 45//113
f 45//114 37//114 35//114
f 35//115 37//115 33//115
f 42//116 37//116 44//116
f 40//117 37//117 42//117
f 38//118 37//118 40//118
f 26//119 37//119 38//119
f 50//120 37//120 47//120
f 64//121 2//121 66//121
f 66//122 2//122 68//122
f 68//123 2//123 43//123
f 43//124 2//124 41//124
f 24//125 2//125 1//125
f 62//126 2//126 64//126
f 59//127 2//127 62//127
f 11//128 2//128 13//128
f 9//129 2//129 11//129
f 7//130 2//130 9//130
f 4//131 2//131 7//131
f 3//132 2//132 4//132
