mtllib part_9.mtl
usemtl part_9

v 0.25 -0.1075 0.075
v 0.2509098243713379 -0.1125 0.075
v 0.2509098243713379 -0.10758347511291504 0.075
v 0.2518404769897461 -0.1078510570526123 0.075
v 0.2509098243713379 -0.10758347511291504 0.0375
v 0.2518404769897461 -0.1078510570526123 0.0375
v 0.2527360534667969 -0.10831501960754394 0.075
v 0.2527360534667969 -0.10831501960754394 0.0375
v 0.2535355377197266 -0.10896446228027344 0.075
v 0.2535355377197266 -0.10896446228027344 0.0375
v 0.2541849708557129 -0.10976394653320312 0.075
v 0.2541849708557129 -0.10976394653320312 0.0375
v 0.25464893341064454 -0.1106595230102539 0.075
v 0.2501338005065918 -0.11112485885620117 0.0375
v 0.25 -0.1075 0.0375
v 0.24909017562866212 -0.10758347511291504 0.0375
v 0.24909017562866212 -0.10758347511291504 0.075
v 0.2481595230102539 -0.1078510570526123 0.0375
v 0.2481595230102539 -0.1078510570526123 0.075
v 0.24726394653320313 -0.10831501960754394 0.0375
v 0.24726394653320313 -0.10831501960754394 0.075
v 0.24646446228027344 -0.10896446228027344 0.0375
v 0.24862485885620117 -0.11263379096984863 0.075
v 0.25 -0.11750000000000001 0.075
v 0.24909017562866212 -0.11741652488708497 0.075
v 0.25 -0.11750000000000001 0.0375
v 0.24909017562866212 -0.11741652488708497 0.0375
v 0.2481595230102539 -0.1171489429473877 0.075
v 0.2481595230102539 -0.1171489429473877 0.0375
v 0.24726394653320313 -0.11668498039245606 0.075
v 0.24726394653320313 -0.11668498039245606 0.0375
v 0.24646446228027344 -0.11603553771972656 0.075
v 0.24646446228027344 -0.11603553771972656 0.0375
v 0.24581502914428713 -0.11523605346679688 0.075
v 0.24581502914428713 -0.11523605346679688 0.0375
v 0.2453510665893555 -0.1143404769897461 0.075
v 0.25 -0.11340981483459472 0.0375
v 0.2509098243713379 -0.11741652488708497 0.0375
v 0.2509098243713379 -0.11741652488708497 0.075
v 0.2518404769897461 -0.1171489429473877 0.0375
v 0.2518404769897461 -0.1171489429473877 0.075
v 0.2527360534667969 -0.11668498039245606 0.0375
v 0.2527360534667969 -0.11668498039245606 0.075
v 0.2535355377197266 -0.11603553771972656 0.0375
v 0.2453510665893555 -0.1143404769897461 0.0375
v 0.2450834655761719 -0.11340981483459472 0.075
v 0.2450834655761719 -0.11340981483459472 0.0375
v 0.245 -0.1125 0.075
v 0.2450834655761719 -0.11159018516540528 0.075
v 0.245 -0.1125 0.0375
v 0.2450834655761719 -0.11159018516540528 0.0375
v 0.2453510665893555 -0.1106595230102539 0.075
v 0.2453510665893555 -0.1106595230102539 0.0375
v 0.24581502914428713 -0.10976394653320312 0.075
v 0.24581502914428713 -0.10976394653320312 0.0375
v 0.24646446228027344 -0.10896446228027344 0.075
v 0.255 -0.1125 0.0375
v 0.2549165344238281 -0.11159018516540528 0.0375
v 0.255 -0.1125 0.075
v 0.2549165344238281 -0.11159018516540528 0.075
v 0.25464893341064454 -0.1106595230102539 0.0375
v 0.2549165344238281 -0.11340981483459472 0.075
v 0.2549165344238281 -0.11340981483459472 0.0375
v 0.25464893341064454 -0.1143404769897461 0.075
v 0.25464893341064454 -0.1143404769897461 0.0375
v 0.2541849708557129 -0.11523605346679688 0.075
v 0.2541849708557129 -0.11523605346679688 0.0375
v 0.2535355377197266 -0.11603553771972656 0.075
vn -0.0 0.0 1.0
vn 0.276327520608902 0.9610635042190552 -6.484860950772874e-16
vn 0.276327520608902 0.9610635042190552 5.680327352251466e-17
vn 0.4599980413913727 0.8879199624061584 8.564010787113737e-16
vn 0.6305118799209595 0.7761795520782471 -2.2966837790635284e-16
vn 0.7761795520782471 0.6305118799209595 1.172019583841515e-15
vn 0.8879199624061584 0.4599980413913727 1.464514671846765e-15
vn 0.7761795520782471 0.6305118799209595 -4.3563476224528063e-16
vn -2.4372428615506304e-15 3.83767334994874e-15 -1.0
vn 0.6305118799209595 0.7761795520782471 9.633367119011834e-16
vn 3.904263692130084e-15 -2.035352833132777e-15 -1.0
vn 0.4599980413913727 0.8879199624061584 -9.172774954492179e-16
vn -0.0 0.0 -1.0
vn 0.09136364609003067 0.9958176016807556 -8.568709172993038e-16
vn -0.0 0.0 -1.0
vn 0.09136364609003067 0.9958176016807556 0.0
vn -0.09136364609003067 0.9958176016807556 0.0
vn -0.09136364609003067 0.9958176016807556 -4.258212502766291e-14
vn -0.276327520608902 0.9610635042190552 -7.17041183119347e-16
vn -0.4599980413913727 0.8879199624061584 -4.509919989745931e-16
vn -0.6305118799209595 0.7761795520782471 -8.270092471998863e-16
vn -0.4599980413913727 0.8879199624061584 -8.57654422775514e-16
vn -0.0 0.0 1.0
vn -0.276327520608902 0.9610635042190552 4.6069979699626257e-14
vn 0.0 0.0 1.0
vn -0.09136364609003067 -0.9958176016807556 0.0
vn -0.09136364609003067 -0.9958176016807556 -2.985999191539078e-16
vn -0.276327520608902 -0.9610635042190552 -3.8692221508604104e-16
vn -0.4599980413913727 -0.8879199624061584 -3.038861723683831e-17
vn -0.6305118799209595 -0.7761795520782471 4.593367558127057e-16
vn -0.7761795520782471 -0.6305118799209595 -1.3800413995060737e-16
vn -0.8879199624061584 -0.4599980413913727 -4.0540905326700097e-16
vn -0.7761795520782471 -0.6305118799209595 8.712695244905613e-16
vn 0.0 -0.0 -1.0
vn -0.6305118799209595 -0.7761795520782471 -4.603357252948737e-16
vn 0.0 -0.0 -1.0
vn -0.4599980413913727 -0.8879199624061584 2.981151648451721e-17
vn 0.0 -0.0 -1.0
vn -0.276327520608902 -0.9610635042190552 6.807312629507193e-17
vn 0.0 0.0 -1.0
vn 0.09136364609003067 -0.9958176016807556 0.0
vn 0.09136364609003067 -0.9958176016807556 -4.288072447036079e-14
vn 0.276327520608902 -0.9610635042190552 -1.1722923284505308e-15
vn 0.4599980413913727 -0.8879199624061584 1.7128021574227474e-15
vn 0.6305118799209595 -0.7761795520782471 1.9300268272405465e-15
vn 0.4599980413913727 -0.8879199624061584 -1.2773088496796582e-15
vn 0.0 0.0 1.0
vn 0.276327520608902 -0.9610635042190552 4.613805404353119e-14
vn 0.0 -0.0 1.0
vn 0.0 0.0 1.0
vn 0.0 0.0 1.0
vn 0.0 0.0 1.0
vn 0.0 -0.0 1.0
vn 0.0 -0.0 1.0
vn 0.0 -0.0 1.0
vn 0.0 -0.0 1.0
vn -0.8879199624061584 -0.4599980413913727 4.0589527664850454e-16
vn -0.9610635042190552 -0.276327520608902 6.487122528742043e-16
vn 0.0 -0.0 1.0
vn -0.9610635042190552 -0.276327520608902 4.698120419175528e-14
vn -0.9958176016807556 -0.09136364609003067 -4.1638696342879283e-14
vn 0.0 -0.0 1.0
vn -0.9958176016807556 0.09136364609003067 0.0
vn -0.9958176016807556 0.09136364609003067 -1.8868558872595998e-15
vn -0.9610635042190552 0.276327520608902 -2.6179003778816325e-16
vn -0.8879199624061584 0.4599980413913727 -6.233078819014757e-16
vn -0.7761795520782471 0.6305118799209595 1.3800413995060737e-16
vn -0.6305118799209595 0.7761795520782471 -1.3697794630011898e-16
vn -0.0 -0.0 -1.0
vn -0.7761795520782471 0.6305118799209595 -4.378803259977906e-16
vn -0.0 -0.0 -1.0
vn -0.8879199624061584 0.4599980413913727 -4.3570678651557685e-16
vn 0.0 -0.0 -1.0
vn -0.9610635042190552 0.276327520608902 -1.8200603513467833e-15
vn 0.0 0.0 -1.0
vn 0.9958176016807556 0.09136364609003067 0.0
vn 0.9958176016807556 0.09136364609003067 -4.3482273716973635e-14
vn 0.9610635042190552 0.276327520608902 2.4697168341989394e-15
vn 0.8879199624061584 0.4599980413913727 2.086806273030213e-15
vn -0.0 0.0 1.0
vn 0.9610635042190552 0.276327520608902 4.529012662948459e-14
vn -0.0 0.0 1.0
vn 0.9958176016807556 -0.09136364609003067 0.0
vn 0.9958176016807556 -0.09136364609003067 -1.8868558872595998e-15
vn 0.9610635042190552 -0.276327520608902 2.8624017320625066e-15
vn 0.8879199624061584 -0.4599980413913727 -1.0591055391704252e-15
vn 0.7761795520782471 -0.6305118799209595 -4.366745745973741e-16
vn 0.6305118799209595 -0.7761795520782471 -2.3129063128880204e-16
vn 0.0 0.0 -1.0
vn 0.7761795520782471 -0.6305118799209595 -1.035194010827673e-15
vn 0.0 0.0 -1.0
vn 0.8879199624061584 -0.4599980413913727 2.7426596489244816e-15
vn 0.0 0.0 -1.0
vn 0.9610635042190552 -0.276327520608902 -1.821254667802412e-15
vn 0.0 0.0 -1.0
vn 0.0 0.0 -1.0
vn 0.0 0.0 -1.0
vn 4.776239853856892e-16 4.909102689106123e-15 -1.0
vn 1.4188418082978658e-15 -4.223654829067737e-15 -1.0
vn -0.0 0.0 -1.0
vn 4.668390748573028e-15 7.929055937489719e-15 -1.0
vn -7.55659183365948e-15 -4.5570093041408764e-15 -1.0
vn -0.0 -0.0 -1.0
vn -0.0 -0.0 -1.0
vn -0.0 0.0 -1.0
vn -0.9958176016807556 -0.09136364609003067 0.0
vn -0.0 -0.0 1.0
vn -2.5927039005578956e-15 -8.798088871483055e-15 1.0
vn 6.62417965938784e-15 6.485668173171607e-15 1.0
vn -0.0 -0.0 1.0
vn -7.51510246583707e-15 -4.4246667588794964e-15 1.0
vn 9.441515427008156e-15 9.185985492095794e-16 1.0
vn 0.0 -0.0 -1.0
vn 0.0 -0.0 -1.0
vn 0.0 -0.0 -1.0
vn 0.0 0.0 -1.0
vn 0.0 0.0 -1.0
vn 0.0 0.0 -1.0
vn 0.0 0.0 -1.0
vn -0.0 -0.0 -1.0
vn 0.0 0.0 1.0
vn 0.0 0.0 1.0
vn 0.0 0.0 1.0
vn 0.0 0.0 1.0
vn 0.0 -0.0 1.0
vn 0.0 0.0 1.0
vn 0.0 0.0 1.0
vn -0.0 0.0 1.0
vn -0.0 0.0 1.0
vn 1.3858250992886036e-14 -1.0292043232202827e-14 1.0
vn -1.797104742036655e-14 3.597572543687089e-15 1.0
vn -0.0 0.0 1.0
f 1//1 2//1 3//1
f 3//2 4//2 5//2
f 5//3 4//3 6//3
f 6//4 7//4 8//4
f 8//5 9//5 10//5
f 10//6 11//6 12//6
f 13//7 12//7 11//7
f 9//8 11//8 10//8
f 10//9 14//9 8//9
f 7//10 9//10 8//10
f 8//11 14//11 6//11
f 4//12 7//12 6//12
f 6//13 14//13 5//13
f 15//14 3//14 5//14
f 5//15 14//15 15//15
f 1//16 3//16 15//16
f 15//17 16//17 1//17
f 1//18 16//18 17//18
f 17//19 18//19 19//19
f 19//20 20//20 21//20
f 22//21 21//21 20//21
f 18//22 20//22 19//22
f 19//23 23//23 17//23
f 16//24 18//24 17//24
f 1//25 17//25 24//25
f 24//26 25//26 26//26
f 26//27 25//27 27//27
f 27//28 28//28 29//28
f 29//29 30//29 31//29
f 31//30 32//30 33//30
f 33//31 34//31 35//31
f 36//32 35//32 34//32
f 32//33 34//33 33//33
f 33//34 37//34 31//34
f 30//35 32//35 31//35
f 31//36 37//36 29//36
f 28//37 30//37 29//37
f 29//38 37//38 27//38
f 25//39 28//39 27//39
f 27//40 37//40 26//40
f 26//41 38//41 24//41
f 24//42 38//42 39//42
f 39//43 40//43 41//43
f 41//44 42//44 43//44
f 44//45 43//45 42//45
f 40//46 42//46 41//46
f 41//47 2//47 39//47
f 38//48 40//48 39//48
f 39//49 2//49 24//49
f 17//50 23//50 24//50
f 24//51 23//51 25//51
f 25//52 23//52 28//52
f 28//53 23//53 30//53
f 30//54 23//54 32//54
f 32//55 23//55 34//55
f 34//56 23//56 36//56
f 45//57 35//57 36//57
f 46//58 45//58 36//58
f 36//59 23//59 46//59
f 47//60 45//60 46//60
f 48//61 47//61 46//61
f 46//62 23//62 48//62
f 48//63 49//63 50//63
f 50//64 49//64 51//64
f 51//65 52//65 53//65
f 53//66 54//66 55//66
f 55//67 56//67 22//67
f 56//68 21//68 22//68
f 22//69 14//69 55//69
f 54//70 56//70 55//70
f 55//71 14//71 53//71
f 52//72 54//72 53//72
f 53//73 14//73 51//73
f 49//74 52//74 51//74
f 50//75 51//75 57//75
f 57//76 58//76 59//76
f 59//77 58//77 60//77
f 60//78 61//78 13//78
f 61//79 12//79 13//79
f 13//80 2//80 60//80
f 58//81 61//81 60//81
f 60//82 2//82 59//82
f 59//83 62//83 57//83
f 57//84 62//84 63//84
f 63//85 64//85 65//85
f 65//86 66//86 67//86
f 67//87 68//87 44//87
f 68//88 43//88 44//88
f 44//89 37//89 67//89
f 66//90 68//90 67//90
f 67//91 37//91 65//91
f 64//92 66//92 65//92
f 65//93 37//93 63//93
f 62//94 64//94 63//94
f 63//95 37//95 57//95
f 51//96 14//96 57//96
f 57//97 14//97 58//97
f 58//98 14//98 61//98
f 61//99 14//99 12//99
f 12//100 14//100 10//100
f 20//101 14//101 22//101
f 18//102 14//102 20//102
f 16//103 14//103 18//103
f 15//104 14//104 16//104
f 57//105 37//105 50//105
f 50//106 47//106 48//106
f 48//107 23//107 49//107
f 49//108 23//108 52//108
f 52//109 23//109 54//109
f 54//110 23//110 56//110
f 56//111 23//111 21//111
f 21//112 23//112 19//112
f 47//113 37//113 45//113
f 45//114 37//114 35//114
f 35//115 37//115 33//115
f 42//116 37//116 44//116
f 40//117 37//117 42//117
f 38//118 37//118 40//118
f 26//119 37//119 38//119
f 50//120 37//120 47//120
f 64//121 2//121 66//121
f 66//122 2//122 68//122
f 68//123 2//123 43//123
f 43//124 2//124 41//124
f 24//125 2//125 1//125
f 62//126 2//126 64//126
f 59//127 2//127 62//127
f 11//128 2//128 13//128
f 9//129 2//129 11//129
f 7//130 2//130 9//130
f 4//131 2//131 7//131
f 3//132 2//132 4//132
