mtllib part_6.mtl
usemtl part_6

v 0.07249388217926026 -0.31401987075805665 0.08750000000000001
v 0.06883952617645264 -0.3204700088500977 0.08750000000000001
v 0.07153221607208252 -0.31796028137207033 0.08750000000000001
v 0.07249388217926026 -0.31401987075805665 0.075
v 0.07153221607208252 -0.31796028137207033 0.075
v 0.06931824207305909 -0.32098361968994144 0.08750000000000001
v 0.07181139945983887 -0.3100216293334961 0.075
v -0.1349937629699707 -0.11214848518371583 0.075
v 0.07181139945983887 -0.3100216293334961 0.08750000000000001
v 0.06981527805328369 -0.3068502235412598 0.075
v 0.06981527805328369 -0.3068502235412598 0.08750000000000001
v -0.1176847267150879 -0.1056817626953125 0.075
v -0.12957195281982423 -0.11676131248474121 0.075
v -0.12768235206604003 -0.11814504623413086 0.08750000000000001
v -0.12768235206604003 -0.11814504623413086 0.075
v -0.12521960258483886 -0.11874608039855958 0.08750000000000001
v -0.12521960258483886 -0.11874608039855958 0.075
v -0.1227207088470459 -0.11831953048706055 0.08750000000000001
v -0.1227207088470459 -0.11831953048706055 0.075
v -0.12073857307434083 -0.11707195281982422 0.08750000000000001
v -0.12957195281982423 -0.11676131248474121 0.08750000000000001
v -0.13081953048706055 -0.11477917671203614 0.075
v -0.13081953048706055 -0.11477917671203614 0.08750000000000001
v -0.13124608039855956 -0.11228028297424317 0.075
v -0.13124608039855956 -0.11228028297424317 0.08750000000000001
v -0.1306450366973877 -0.10981752395629883 0.075
v -0.1306450366973877 -0.10981752395629883 0.08750000000000001
v -0.12926130294799804 -0.10792793273925781 0.075
v -0.12926130294799804 -0.10792793273925781 0.08750000000000001
v -0.12727917671203615 -0.10668035507202149 0.075
v -0.12727917671203615 -0.10668035507202149 0.08750000000000001
v -0.12478028297424316 -0.10625380516052246 0.075
v -0.12464848518371582 -0.10250612258911133 0.075
v -0.12478028297424316 -0.10625380516052246 0.08750000000000001
v -0.12231752395629883 -0.10685484886169434 0.075
v -0.12231752395629883 -0.10685484886169434 0.08750000000000001
v -0.12042793273925781 -0.10823858261108399 0.075
v -0.12070807456970215 -0.10346778869628906 0.08750000000000001
v -0.12070807456970215 -0.10346778869628906 0.075
v -0.1176847267150879 -0.1056817626953125 0.08750000000000001
v -0.12464848518371582 -0.10250612258911133 0.08750000000000001
v -0.12864671707153322 -0.10318860054016113 0.075
v -0.12042793273925781 -0.10823858261108399 0.08750000000000001
v -0.11918035507202149 -0.1102207088470459 0.075
v -0.11918035507202149 -0.1102207088470459 0.08750000000000001
v -0.11875380516052246 -0.11271960258483887 0.075
v -0.11875380516052246 -0.11271960258483887 0.08750000000000001
v -0.11935483932495117 -0.11518236160278321 0.075
v -0.11935483932495117 -0.11518236160278321 0.08750000000000001
v -0.12073857307434083 -0.11707195281982422 0.075
v -0.1313394069671631 -0.10569833755493165 0.075
v -0.12864671707153322 -0.10318860054016113 0.08750000000000001
v -0.13181812286376954 -0.1051847267150879 0.075
v -0.13181812286376954 -0.1051847267150879 0.08750000000000001
v -0.13403209686279297 -0.10820807456970215 0.075
v -0.13403209686279297 -0.10820807456970215 0.08750000000000001
v -0.1349937629699707 -0.11214848518371583 0.08750000000000001
v -0.13431127548217775 -0.1161467170715332 0.075
v 0.06707207202911378 -0.30940704345703124 0.075
v 0.06831964492797851 -0.31138917922973636 0.075
v 0.06874619960784913 -0.3138880729675293 0.075
v 0.06831964492797851 -0.31138917922973636 0.08750000000000001
v 0.06707207202911378 -0.30940704345703124 0.08750000000000001
v 0.06874619960784913 -0.3138880729675293 0.08750000000000001
v 0.06814516067504883 -0.3163508224487305 0.075
v 0.06814516067504883 -0.3163508224487305 0.08750000000000001
v 0.0667614221572876 -0.3182404136657715 0.075
v 0.0647792911529541 -0.3194879913330078 0.075
v 0.0667614221572876 -0.3182404136657715 0.08750000000000001
v 0.0647792911529541 -0.3194879913330078 0.08750000000000001
v 0.062280397415161136 -0.31991455078125003 0.075
v 0.0582081937789917 -0.3227005767822266 0.075
v 0.062280397415161136 -0.31991455078125003 0.08750000000000001
v 0.05981764316558838 -0.3193135070800781 0.075
v 0.05981764316558838 -0.3193135070800781 0.08750000000000001
v 0.05792804718017578 -0.31792976379394533 0.075
v 0.05792804718017578 -0.31792976379394533 0.08750000000000001
v 0.05668047428131104 -0.31594764709472656 0.075
v 0.05668047428131104 -0.31594764709472656 0.08750000000000001
v 0.05625391960144043 -0.3134487533569336 0.075
v 0.05625391960144043 -0.3134487533569336 0.08750000000000001
v 0.056854963302612305 -0.3109859848022461 0.075
v 0.056854963302612305 -0.3109859848022461 0.08750000000000001
v 0.05823869705200196 -0.3090963935852051 0.075
v 0.05823869705200196 -0.3090963935852051 0.08750000000000001
v 0.06022082805633545 -0.30784881591796875 0.075
v 0.06022082805633545 -0.30784881591796875 0.08750000000000001
v 0.06271972179412842 -0.3074222755432129 0.075
v 0.06271972179412842 -0.3074222755432129 0.08750000000000001
v 0.06518247604370117 -0.30802330017089846 0.075
v 0.06518247604370117 -0.30802330017089846 0.08750000000000001
v 0.062148604393005374 -0.32366222381591797 0.08750000000000001
v 0.062148604393005374 -0.32366222381591797 0.075
v 0.0582081937789917 -0.3227005767822266 0.08750000000000001
v 0.05518484115600586 -0.3204866027832031 0.08750000000000001
v 0.06614683151245117 -0.322979736328125 0.075
v 0.06573342323303223 -0.3223229217529297 0.075
v 0.06614683151245117 -0.322979736328125 0.08750000000000001
v 0.06931824207305909 -0.32098361968994144 0.075
v -0.13431127548217775 -0.1161467170715332 0.08750000000000001
v -0.13231515884399414 -0.11931812286376953 0.08750000000000001
v 0.05518484115600586 -0.3204866027832031 0.075
v -0.13231515884399414 -0.11931812286376953 0.075
vn -0.0 0.0 1.0
vn 0.9714869260787964 -0.23709306120872498 1.2828418882726567e-11
vn 0.8068053126335144 -0.590817391872406 -1.1851871047074969e-11
vn 0.9714869260787964 -0.23709306120872498 3.4078085761401556e-15
vn 0.9857422709465027 0.16826237738132477 -3.386737162504437e-17
vn 5.1331192529068114e-17 8.762035542740441e-18 -1.0
vn 0.9857422709465027 0.16826237738132477 1.8749790030314368e-15
vn 0.846315860748291 0.532681405544281 2.71665870205909e-15
vn -6.6285969362077715e-15 -6.9726989888321475e-15 -1.0
vn 0.846315860748291 0.532681405544281 0.0
vn 0.7315216660499573 0.6818181872367859 0.0
vn 0.0 0.0 -1.0
vn 0.590817391872406 0.8068053126335144 -2.257273453610154e-16
vn 0.23709306120872498 0.9714869260787964 2.4242023658111768e-15
vn -0.16826237738132477 0.9857422709465027 -8.014994917759921e-12
vn -0.532681405544281 0.846315860748291 7.408590234347923e-12
vn -0.16826237738132477 0.9857422709465027 3.038287064768678e-15
vn -0.0 -0.0 -1.0
vn 0.23709306120872498 0.9714869260787964 1.7463307919695064e-15
vn -0.0 -0.0 -1.0
vn 0.590817391872406 0.8068053126335144 0.0
vn 0.846315860748291 0.532681405544281 0.0
vn 0.846315860748291 0.532681405544281 7.406050599179093e-12
vn 0.9857422709465027 0.16826237738132477 -8.01988076643001e-12
vn 0.0 0.0 -1.0
vn 0.9857422709465027 0.16826237738132477 3.038287064768678e-15
vn 0.9714869260787964 -0.23709306120872498 2.4242023658111768e-15
vn 0.0 0.0 -1.0
vn 0.9714869260787964 -0.23709306120872498 3.339378690155612e-16
vn 0.8068053126335144 -0.590817391872406 8.396019801475976e-16
vn -0.0 0.0 -1.0
vn 0.8068053126335144 -0.590817391872406 0.0
vn 0.532681405544281 -0.846315860748291 0.0
vn 0.532681405544281 -0.846315860748291 7.40618504024848e-12
vn 0.16826237738132477 -0.9857422709465027 -8.017796496173624e-12
vn -4.0698265519454224e-16 2.3842524803704013e-15 -1.0
vn 0.16826237738132477 -0.9857422709465027 -1.1605709806473074e-15
vn -0.23709306120872498 -0.9714869260787964 -1.717495461104365e-15
vn 5.734660280653093e-16 2.3497725219447574e-15 -1.0
vn -0.23709306120872498 -0.9714869260787964 1.7134844424617607e-15
vn -0.590817391872406 -0.8068053126335144 1.9861412776884862e-15
vn 2.462000999324163e-15 3.362046562373558e-15 -1.0
vn 0.23709306120872498 0.9714869260787964 1.2831886594955044e-11
vn 0.590817391872406 0.8068053126335144 -1.185011117010859e-11
vn 0.23709306120872498 0.9714869260787964 -3.4351804458306783e-15
vn -0.16826237738132477 0.9857422709465027 -2.3234175153074134e-15
vn -2.219741953112908e-15 3.526691344353191e-15 -1.0
vn -3.2283129772545495e-15 4.38477277761324e-15 -1.0
vn 6.991497191030562e-15 6.6969126845026726e-15 -1.0
vn -0.590817391872406 -0.8068053126335144 0.0
vn -0.846315860748291 -0.532681405544281 0.0
vn -0.846315860748291 -0.532681405544281 7.404401744515177e-12
vn -0.9857422709465027 -0.16826237738132477 -8.022443820365766e-12
vn -0.0 -0.0 -1.0
vn -0.9857422709465027 -0.16826237738132477 1.877716190000489e-15
vn -0.9714869260787964 0.23709306120872498 7.067070105859301e-16
vn -0.0 -0.0 -1.0
vn -0.9714869260787964 0.23709306120872498 3.3941226942344534e-16
vn -0.8068053126335144 0.590817391872406 8.396019801475976e-16
vn -0.0 -0.0 -1.0
vn -0.532681405544281 0.846315860748291 0.0
vn -0.8068053126335144 0.590817391872406 0.0
vn -0.0 -0.0 -1.0
vn -0.0 -0.0 -1.0
vn -0.0 -0.0 -1.0
vn -2.9220739326471512e-15 -2.7373224943238322e-15 -1.0
vn 1.819158684774431e-15 -1.0306516907689035e-15 -1.0
vn -7.395165141604702e-16 4.332356684771249e-15 -1.0
vn -0.16826237738132477 0.9857422709465027 1.1633081676163596e-15
vn -0.532681405544281 0.846315860748291 4.457013782464836e-16
vn 1.7650940540588468e-15 1.6451640354856497e-15 -1.0
vn -0.532681405544281 0.846315860748291 0.0
vn -0.8068053126335144 0.590817391872406 0.0
vn -0.8068053126335144 0.590817391872406 -1.1852097428488584e-11
vn -0.9714869260787964 0.23709306120872498 1.2830169218713827e-11
vn 0.0 -0.0 -1.0
vn -0.9714869260787964 0.23709306120872498 -3.421494563924976e-16
vn -0.9857422709465027 -0.16826237738132477 2.3911523048796165e-16
vn 0.0 0.0 -1.0
vn -2.981695470073638e-16 -3.504621583275125e-16 -1.0
vn 3.688249961789503e-15 -9.001238077178974e-16 -1.0
vn -0.9857422709465027 -0.16826237738132477 -8.017540624460917e-12
vn -0.846315860748291 -0.532681405544281 7.408611051029634e-12
vn -0.9857422709465027 -0.16826237738132477 0.0
vn -0.9714869260787964 0.23709306120872498 0.0
vn -0.0 -0.0 -1.0
vn -0.9714869260787964 0.23709306120872498 0.0
vn -0.8068053126335144 0.590817391872406 0.0
vn 1.6569401227930895e-15 3.4870017097854596e-15 -1.0
vn -0.532681405544281 0.846315860748291 0.0
vn -0.532681405544281 0.846315860748291 7.402442374349061e-12
vn -0.16826237738132477 0.9857422709465027 -8.024083134050564e-12
vn 7.250844491677962e-16 -4.247808397075167e-15 -1.0
vn -0.16826237738132477 0.9857422709465027 8.288228400311643e-15
vn 0.23709306120872498 0.9714869260787964 8.45186076616107e-15
vn -3.2316718864068865e-15 1.5356134527689884e-15 -1.0
vn 0.23709306120872498 0.9714869260787964 -2.2554492622791234e-15
vn 0.590817391872406 0.8068053126335144 -1.0336755983906014e-15
vn 3.4870017097854596e-15 -1.6569401227930895e-15 -1.0
vn 0.590817391872406 0.8068053126335144 0.0
vn 0.846315860748291 0.532681405544281 0.0
vn 0.846315860748291 0.532681405544281 7.408611051029634e-12
vn 0.9857422709465027 0.16826237738132477 -8.017540624460917e-12
vn 0.0 0.0 -1.0
vn 0.9857422709465027 0.16826237738132477 1.1441477529538753e-15
vn 0.9714869260787964 -0.23709306120872498 3.4185669533614692e-15
vn 3.0201827943123014e-15 2.8693603194824375e-15 -1.0
vn 0.9714869260787964 -0.23709306120872498 6.897732867230998e-16
vn 0.8068053126335144 -0.590817391872406 5.732696752402239e-16
vn -2.7432540542952173e-15 -2.691502247042111e-15 -1.0
vn 0.8068053126335144 -0.590817391872406 0.0
vn 0.532681405544281 -0.846315860748291 0.0
vn 0.532681405544281 -0.846315860748291 7.411684981029065e-12
vn 0.16826237738132477 -0.9857422709465027 -8.012996516315596e-12
vn -3.0371446290810688e-15 -3.0296060358505055e-15 -1.0
vn 0.16826237738132477 -0.9857422709465027 4.762720149227529e-16
vn -0.23709306120872498 -0.9714869260787964 -6.738590199518492e-16
vn 1.4743524963079806e-17 6.041148167658527e-17 -1.0
vn -0.23709306120872498 -0.9714869260787964 -5.693367106837091e-15
vn -0.590817391872406 -0.8068053126335144 -5.0059583655258106e-15
vn 3.749183648542494e-14 3.836050265415211e-14 -1.0
vn -0.590817391872406 -0.8068053126335144 0.0
vn -0.846315860748291 -0.532681405544281 0.0
vn -9.361272607782967e-15 -1.4853954316009464e-14 1.0
vn -2.779743598388222e-14 -2.512207394965004e-14 1.0
vn 0.0 0.0 1.0
vn 0.0 0.0 1.0
vn 0.0 0.0 1.0
vn 0.0 0.0 1.0
vn 0.0 0.0 1.0
vn 0.0 0.0 1.0
vn 0.0 0.0 1.0
vn -0.0 -0.0 1.0
vn -0.0 0.0 1.0
vn -0.0 0.0 1.0
vn -0.0 0.0 1.0
vn -0.8068053126335144 0.590817391872406 0.0
vn 2.053256568538891e-15 -3.2621818014087495e-15 -1.0
vn 3.612238919168797e-15 -1.0153289918080153e-14 -1.0
vn -0.23709306120872498 -0.9714869260787964 1.2823233794256872e-11
vn -0.590817391872406 -0.8068053126335144 -1.1855618049783079e-11
vn -0.23709306120872498 -0.9714869260787964 3.421494563924976e-16
vn 0.16826237738132477 -0.9857422709465027 -2.3911523048796165e-16
vn 0.0 0.0 -1.0
vn 0.16826237738132477 -0.9857422709465027 -3.5583544417731817e-16
vn 0.532681405544281 -0.846315860748291 -1.1354786883760828e-15
vn 0.0 0.0 -1.0
vn 0.532681405544281 -0.846315860748291 0.0
vn 0.8068053126335144 -0.590817391872406 0.0
vn 0.0 0.0 1.0
vn 0.0 -0.0 1.0
vn 0.0 -0.0 1.0
vn 1.501877845721568e-14 -2.039887085202724e-14 1.0
vn 2.514998050888852e-16 7.151503408832794e-15 1.0
vn -0.0 -0.0 1.0
vn 1.466777308607118e-14 1.3389277649111537e-14 1.0
vn 0.590817391872406 0.8068053126335144 0.0
vn 0.7315216660499573 0.6818181872367859 0.0
vn -0.0 -0.0 -1.0
vn 0.0 0.0 1.0
vn 0.0 0.0 1.0
vn 0.0 0.0 1.0
vn 0.0 0.0 1.0
vn -0.0 -0.0 1.0
vn -0.0 -0.0 1.0
vn -0.0 -0.0 1.0
vn 2.859075687788523e-14 2.414887036270453e-14 1.0
vn 0.0 0.0 1.0
vn 0.0 0.0 1.0
vn 0.0 0.0 1.0
vn 0.0 0.0 1.0
vn 0.0 -0.0 1.0
vn -8.372757206249939e-15 2.0433858818463e-15 1.0
vn 2.609603054888566e-15 -6.663124116720225e-15 1.0
vn -5.264524913554079e-15 5.648300718878426e-15 1.0
vn -0.0 -0.0 1.0
vn 9.268469984015891e-15 8.422754172994571e-15 1.0
vn -6.161665788869102e-15 -5.547326344752714e-15 1.0
vn -0.0 -0.0 1.0
vn 5.811683633524887e-15 5.144881086237936e-15 1.0
vn -1.301833989865225e-14 -1.1248616174261948e-14 1.0
vn 2.0820312094933617e-14 1.7771093434705912e-14 1.0
vn -8.179892039324871e-14 -6.940893579289106e-14 1.0
vn -1.547486842986244e-14 -8.29468617950151e-15 1.0
vn 2.723328715941803e-17 1.1158818664573053e-16 1.0
vn -0.0 -0.0 1.0
vn -0.7315216660499573 -0.6818181872367859 0.0
vn -0.7315216660499573 -0.6818181872367859 -0.0
vn -0.846315860748291 -0.532681405544281 -1.959672980394447e-15
vn -0.9857422709465027 -0.16826237738132477 -1.6354744020855342e-15
vn 3.030673085605809e-15 2.7387533447299816e-15 -1.0
vn -0.590817391872406 -0.8068053126335144 0.0
vn -0.0 -0.0 1.0
vn -0.846315860748291 -0.532681405544281 0.0
vn -9.253753633590295e-15 -8.625004464975217e-15 -1.0
vn 9.055378517343338e-15 8.354108081850241e-15 -1.0
vn -2.118484034708103e-15 -1.9860978672499394e-15 -1.0
vn 0.0 0.0 -1.0
vn 0.0 0.0 -1.0
vn -1.3740893519252769e-15 3.862293633110107e-15 -1.0
vn -1.3634018078341774e-15 3.649324139181958e-15 -1.0
vn -1.510913972027053e-15 4.044159653698604e-15 -1.0
vn -1.3844486707493154e-14 -9.471773137949974e-15 -1.0
vn 1.6414654872972875e-14 1.929343695168586e-14 -1.0
vn -1.7598651079172092e-15 4.493479715514436e-15 1.0
vn -1.0102860117499474e-14 3.045563501302066e-15 1.0
vn 5.053978357371551e-15 -3.580163475522171e-15 1.0
vn -0.0 0.0 1.0
vn -0.0 0.0 1.0
vn 0.0 -0.0 -1.0
f 1//1 2//1 3//1
f 4//2 3//2 5//2
f 6//3 5//3 3//3
f 1//4 3//4 4//4
f 7//5 1//5 4//5
f 4//6 8//6 7//6
f 9//7 1//7 7//7
f 10//8 9//8 7//8
f 7//9 8//9 10//9
f 11//10 9//10 10//10
f 12//11 11//11 10//11
f 10//12 8//12 13//12
f 13//13 14//13 15//13
f 15//14 16//14 17//14
f 17//15 18//15 19//15
f 20//16 19//16 18//16
f 16//17 18//17 17//17
f 17//18 10//18 15//18
f 14//19 16//19 15//19
f 15//20 10//20 13//20
f 21//21 14//21 13//21
f 13//22 22//22 21//22
f 21//23 22//23 23//23
f 24//24 23//24 22//24
f 22//25 8//25 24//25
f 25//26 23//26 24//26
f 26//27 25//27 24//27
f 24//28 8//28 26//28
f 27//29 25//29 26//29
f 28//30 27//30 26//30
f 26//31 8//31 28//31
f 29//32 27//32 28//32
f 28//33 30//33 29//33
f 29//34 30//34 31//34
f 32//35 31//35 30//35
f 30//36 33//36 32//36
f 34//37 31//37 32//37
f 35//38 34//38 32//38
f 32//39 33//39 35//39
f 36//40 34//40 35//40
f 37//41 36//41 35//41
f 37//42 35//42 33//42
f 33//43 38//43 39//43
f 40//44 39//44 38//44
f 41//45 38//45 33//45
f 42//46 41//46 33//46
f 28//47 33//47 30//47
f 8//48 33//48 28//48
f 33//49 10//49 37//49
f 43//50 36//50 37//50
f 37//51 44//51 43//51
f 43//52 44//52 45//52
f 46//53 45//53 44//53
f 44//54 10//54 46//54
f 47//55 45//55 46//55
f 48//56 47//56 46//56
f 46//57 10//57 48//57
f 49//58 47//58 48//58
f 50//59 49//59 48//59
f 48//60 10//60 50//60
f 50//61 19//61 20//61
f 20//62 49//62 50//62
f 50//63 10//63 19//63
f 19//64 10//64 17//64
f 37//65 10//65 44//65
f 39//66 10//66 33//66
f 8//67 51//67 33//67
f 33//68 51//68 42//68
f 52//69 41//69 42//69
f 53//70 52//70 42//70
f 42//71 51//71 53//71
f 54//72 52//72 53//72
f 53//73 55//73 54//73
f 54//74 55//74 56//74
f 8//75 56//75 55//75
f 55//76 51//76 8//76
f 57//77 56//77 8//77
f 58//78 57//78 8//78
f 13//79 8//79 22//79
f 59//80 8//80 4//80
f 4//81 5//81 60//81
f 61//82 62//82 60//82
f 63//83 60//83 62//83
f 64//84 62//84 61//84
f 65//85 64//85 61//85
f 61//86 5//86 65//86
f 66//87 64//87 65//87
f 67//88 66//88 65//88
f 65//89 5//89 67//89
f 67//90 68//90 69//90
f 69//91 68//91 70//91
f 71//92 70//92 68//92
f 68//93 72//93 71//93
f 73//94 70//94 71//94
f 74//95 73//95 71//95
f 71//96 72//96 74//96
f 75//97 73//97 74//97
f 76//98 75//98 74//98
f 74//99 72//99 76//99
f 77//100 75//100 76//100
f 76//101 78//101 77//101
f 77//102 78//102 79//102
f 80//103 79//103 78//103
f 78//104 8//104 80//104
f 81//105 79//105 80//105
f 82//106 81//106 80//106
f 80//107 8//107 82//107
f 83//108 81//108 82//108
f 84//109 83//109 82//109
f 82//110 8//110 84//110
f 85//111 83//111 84//111
f 84//112 86//112 85//112
f 85//113 86//113 87//113
f 88//114 87//114 86//114
f 86//115 8//115 88//115
f 89//116 87//116 88//116
f 90//117 89//117 88//117
f 88//118 8//118 90//118
f 91//119 89//119 90//119
f 59//120 91//120 90//120
f 90//121 8//121 59//121
f 63//122 91//122 59//122
f 59//123 60//123 63//123
f 62//124 1//124 63//124
f 63//125 40//125 91//125
f 91//126 40//126 89//126
f 89//127 40//127 87//127
f 87//128 40//128 85//128
f 85//129 40//129 83//129
f 83//130 40//130 81//130
f 81//131 40//131 79//131
f 79//132 40//132 77//132
f 77//133 92//133 75//133
f 75//134 92//134 73//134
f 73//135 92//135 70//135
f 70//136 92//136 69//136
f 69//137 66//137 67//137
f 67//138 5//138 68//138
f 5//139 72//139 68//139
f 93//140 94//140 72//140
f 95//141 72//141 94//141
f 92//142 94//142 93//142
f 96//143 92//143 93//143
f 93//144 97//144 96//144
f 98//145 92//145 96//145
f 99//146 98//146 96//146
f 96//147 97//147 99//147
f 6//148 98//148 99//148
f 99//149 5//149 6//149
f 6//150 2//150 98//150
f 98//151 2//151 92//151
f 92//152 1//152 69//152
f 69//153 1//153 66//153
f 66//154 1//154 64//154
f 64//155 1//155 62//155
f 1//156 40//156 63//156
f 12//157 39//157 40//157
f 40//158 11//158 12//158
f 12//159 10//159 39//159
f 11//160 40//160 9//160
f 9//161 40//161 1//161
f 92//162 2//162 1//162
f 3//163 2//163 6//163
f 40//164 92//164 77//164
f 38//165 92//165 40//165
f 41//166 92//166 38//166
f 43//167 92//167 41//167
f 41//168 52//168 36//168
f 36//169 52//169 34//169
f 34//170 52//170 31//170
f 31//171 52//171 29//171
f 29//172 52//172 27//172
f 27//173 100//173 25//173
f 25//174 100//174 23//174
f 23//175 101//175 21//175
f 21//176 95//176 14//176
f 14//177 94//177 16//177
f 16//178 92//178 18//178
f 18//179 92//179 20//179
f 20//180 92//180 49//180
f 49//181 92//181 47//181
f 47//182 92//182 45//182
f 45//183 92//183 43//183
f 43//184 41//184 36//184
f 94//185 92//185 16//185
f 95//186 94//186 14//186
f 95//187 101//187 102//187
f 102//188 101//188 103//188
f 103//189 100//189 58//189
f 100//190 57//190 58//190
f 58//191 8//191 72//191
f 102//192 72//192 95//192
f 101//193 95//193 21//193
f 101//194 100//194 103//194
f 103//195 58//195 102//195
f 102//196 58//196 72//196
f 72//197 8//197 76//197
f 76//198 8//198 78//198
f 84//199 8//199 86//199
f 5//200 97//200 72//200
f 72//201 97//201 93//201
f 99//202 97//202 5//202
f 60//203 5//203 61//203
f 59//204 4//204 60//204
f 100//205 101//205 23//205
f 52//206 100//206 27//206
f 57//207 100//207 52//207
f 54//208 57//208 52//208
f 56//209 57//209 54//209
f 53//210 51//210 55//210
