mtllib part_10.mtl
usemtl part_10

v 0.0625 -0.3086684608459473 0.08750000000000001
v 0.06340981483459472 -0.3136684608459473 0.08750000000000001
v 0.06340981483459472 -0.3087519264221191 0.08750000000000001
v 0.06434047222137451 -0.30901952743530275 0.08750000000000001
v 0.06340981483459472 -0.3087519264221191 0.05
v 0.06434047222137451 -0.30901952743530275 0.05
v 0.0652360486984253 -0.3094834899902344 0.08750000000000001
v 0.0652360486984253 -0.3094834899902344 0.05
v 0.06603553295135497 -0.3101329231262207 0.08750000000000001
v 0.06603553295135497 -0.3101329231262207 0.05
v 0.06668497562408447 -0.3109324073791504 0.08750000000000001
v 0.06668497562408447 -0.3109324073791504 0.05
v 0.0671489429473877 -0.3118279838562012 0.08750000000000001
v 0.06263379096984864 -0.31229331970214846 0.05
v 0.0625 -0.3086684608459473 0.05
v 0.06159018516540527 -0.3087519264221191 0.05
v 0.06159018516540527 -0.3087519264221191 0.08750000000000001
v 0.06065952777862549 -0.30901952743530275 0.05
v 0.06065952777862549 -0.30901952743530275 0.08750000000000001
v 0.059763951301574705 -0.3094834899902344 0.05
v 0.059763951301574705 -0.3094834899902344 0.08750000000000001
v 0.05896446704864502 -0.3101329231262207 0.05
v 0.06112485408782959 -0.3138022613525391 0.08750000000000001
v 0.0625 -0.3186684608459473 0.08750000000000001
v 0.06159018516540527 -0.3185849952697754 0.08750000000000001
v 0.0625 -0.3186684608459473 0.05
v 0.06159018516540527 -0.3185849952697754 0.05
v 0.06065952777862549 -0.3183173942565918 0.08750000000000001
v 0.06065952777862549 -0.3183173942565918 0.05
v 0.059763951301574705 -0.31785343170166014 0.08750000000000001
v 0.059763951301574705 -0.31785343170166014 0.05
v 0.05896446704864502 -0.31720399856567383 0.08750000000000001
v 0.05896446704864502 -0.31720399856567383 0.05
v 0.05831502437591553 -0.31640451431274413 0.08750000000000001
v 0.05831502437591553 -0.31640451431274413 0.05
v 0.05785105705261231 -0.3155089378356934 0.08750000000000001
v 0.0625 -0.31457828521728515 0.05
v 0.06340981483459472 -0.3185849952697754 0.05
v 0.06340981483459472 -0.3185849952697754 0.08750000000000001
v 0.06434047222137451 -0.3183173942565918 0.05
v 0.06434047222137451 -0.3183173942565918 0.08750000000000001
v 0.0652360486984253 -0.31785343170166014 0.05
v 0.0652360486984253 -0.31785343170166014 0.08750000000000001
v 0.06603553295135497 -0.31720399856567383 0.05
v 0.05785105705261231 -0.3155089378356934 0.05
v 0.05758347511291504 -0.31457828521728515 0.08750000000000001
v 0.05758347511291504 -0.31457828521728515 0.05
v 0.0575 -0.3136684608459473 0.08750000000000001
v 0.05758347511291504 -0.31275865554809573 0.08750000000000001
v 0.0575 -0.3136684608459473 0.05
v 0.05758347511291504 -0.31275865554809573 0.05
v 0.05785105705261231 -0.3118279838562012 0.08750000000000001
v 0.05785105705261231 -0.3118279838562012 0.05
v 0.05831502437591553 -0.3109324073791504 0.08750000000000001
v 0.05831502437591553 -0.3109324073791504 0.05
v 0.05896446704864502 -0.3101329231262207 0.08750000000000001
v 0.0675 -0.3136684608459473 0.05
v 0.06741652488708497 -0.31275865554809573 0.05
v 0.0675 -0.3136684608459473 0.08750000000000001
v 0.06741652488708497 -0.31275865554809573 0.08750000000000001
v 0.0671489429473877 -0.3118279838562012 0.05
v 0.06741652488708497 -0.31457828521728515 0.08750000000000001
v 0.06741652488708497 -0.31457828521728515 0.05
v 0.0671489429473877 -0.3155089378356934 0.08750000000000001
v 0.0671489429473877 -0.3155089378356934 0.05
v 0.06668497562408447 -0.31640451431274413 0.08750000000000001
v 0.06668497562408447 -0.31640451431274413 0.05
v 0.06603553295135497 -0.31720399856567383 0.08750000000000001
vn -0.0 0.0 1.0
vn 0.276327520608902 0.9610635042190552 -7.786610300870845e-16
vn 0.276327520608902 0.9610635042190552 8.450547547455471e-16
vn 0.4599980413913727 0.8879199624061584 2.0878225008086814e-15
vn 0.6305118799209595 0.7761795520782471 -7.240139583411444e-16
vn 0.7761795520782471 0.6305118799209595 1.838362589284801e-16
vn 0.8879199624061584 0.4599980413913727 2.103016842514325e-16
vn 0.7761795520782471 0.6305118799209595 -2.762014298829683e-16
vn 6.3398251932804146e-15 -5.87146891300799e-15 -1.0
vn 0.6305118799209595 0.7761795520782471 1.6078067061381829e-15
vn -0.0 0.0 -1.0
vn 0.4599980413913727 0.8879199624061584 7.315287817096254e-16
vn -8.299533749058646e-15 4.326674787761067e-15 -1.0
vn 0.09136364609003067 0.9958176016807556 -9.001494304645519e-16
vn 9.795354970394167e-15 3.6154452565115096e-16 -1.0
vn 0.09136364609003067 0.9958176016807556 0.0
vn -0.09136364609003067 0.9958176016807556 0.0
vn -0.09136364609003067 0.9958176016807556 -4.1595419735538167e-14
vn -0.276327520608902 0.9610635042190552 6.544750944704081e-17
vn -0.4599980413913727 0.8879199624061584 1.5734640729291125e-15
vn -0.6305118799209595 0.7761795520782471 1.3213547746951187e-15
vn -0.4599980413913727 0.8879199624061584 1.1007329468934582e-16
vn -0.0 0.0 1.0
vn -0.276327520608902 0.9610635042190552 4.711137960322111e-14
vn 0.0 0.0 1.0
vn -0.09136364609003067 -0.9958176016807556 0.0
vn -0.09136364609003067 -0.9958176016807556 -9.217886870471759e-16
vn -0.276327520608902 -0.9610635042190552 -6.544750944704081e-17
vn -0.4599980413913727 -0.8879199624061584 6.233078819014757e-16
vn -0.6305118799209595 -0.7761795520782471 1.1331075718414771e-17
vn -0.7761795520782471 -0.6305118799209595 1.4701821692968435e-15
vn -0.8879199624061584 -0.4599980413913727 6.916822872279741e-16
vn -0.7761795520782471 -0.6305118799209595 3.211122284771346e-16
vn 0.0 -0.0 -1.0
vn -0.6305118799209595 -0.7761795520782471 4.378803259977906e-16
vn 0.0 -0.0 -1.0
vn -0.4599980413913727 -0.8879199624061584 -1.0778009856844261e-16
vn 8.360355796869189e-15 -4.115135932480831e-15 -1.0
vn -0.276327520608902 -0.9610635042190552 -8.45539892866087e-16
vn -9.762184313146741e-15 -0.0 -1.0
vn 0.09136364609003067 -0.9958176016807556 0.0
vn 0.09136364609003067 -0.9958176016807556 -4.440406240402081e-14
vn 0.276327520608902 -0.9610635042190552 -6.544750944704081e-17
vn 0.4599980413913727 -0.8879199624061584 -1.0591055391704252e-15
vn 0.6305118799209595 -0.7761795520782471 -1.0340154703606871e-15
vn 0.4599980413913727 -0.8879199624061584 -1.0778009856844261e-16
vn 0.0 0.0 1.0
vn 0.276327520608902 -0.9610635042190552 4.444578047073898e-14
vn 0.0 -0.0 1.0
vn 0.0 0.0 1.0
vn 0.0 0.0 1.0
vn 0.0 0.0 1.0
vn 0.0 -0.0 1.0
vn 0.0 -0.0 1.0
vn 0.0 -0.0 1.0
vn 0.0 -0.0 1.0
vn -0.8879199624061584 -0.4599980413913727 4.517591461270095e-16
vn -0.9610635042190552 -0.276327520608902 6.832891701025293e-17
vn -8.653349575522135e-15 1.6599067498117293e-14 1.0
vn -0.9610635042190552 -0.276327520608902 4.538686118019282e-14
vn -0.9958176016807556 -0.09136364609003067 -4.3289695694217686e-14
vn -7.230890513023019e-16 -1.9590709940788334e-14 1.0
vn -0.9958176016807556 0.09136364609003067 0.0
vn -0.9958176016807556 0.09136364609003067 -8.655703294794097e-17
vn -0.9610635042190552 0.276327520608902 2.276255726655919e-16
vn -0.8879199624061584 0.4599980413913727 6.309050792240771e-16
vn -0.7761795520782471 0.6305118799209595 -2.2966837790635284e-16
vn -0.6305118799209595 0.7761795520782471 -4.3563476224528063e-16
vn 2.7872512749162106e-15 8.845219478734179e-15 -1.0
vn -0.7761795520782471 0.6305118799209595 5.524028597659366e-16
vn -0.0 -0.0 -1.0
vn -0.8879199624061584 0.4599980413913727 2.086806220090654e-16
vn 0.0 -0.0 -1.0
vn -0.9610635042190552 0.276327520608902 -2.615441070658839e-16
vn 0.0 0.0 -1.0
vn 0.9958176016807556 0.09136364609003067 0.0
vn 0.9958176016807556 0.09136364609003067 -4.3352440506818496e-14
vn 0.9610635042190552 0.276327520608902 -3.6428340668609774e-16
vn 0.8879199624061584 0.4599980413913727 -1.112198940732864e-15
vn -0.0 0.0 1.0
vn 0.9610635042190552 0.276327520608902 4.568303810866155e-14
vn -0.0 0.0 1.0
vn 0.9958176016807556 -0.09136364609003067 0.0
vn 0.9958176016807556 -0.09136364609003067 -2.381411293637294e-17
vn 0.9610635042190552 -0.276327520608902 1.9346110754302052e-16
vn 0.8879199624061584 -0.4599980413913727 -1.0667027894325858e-15
vn 0.7761795520782471 -0.6305118799209595 1.2405138443300498e-15
vn 0.6305118799209595 -0.7761795520782471 1.756012378556623e-15
vn 0.0 0.0 -1.0
vn 0.7761795520782471 -0.6305118799209595 -1.1497164651864803e-15
vn 0.0 0.0 -1.0
vn 0.8879199624061584 -0.4599980413913727 -1.3759161836168227e-17
vn 0.0 0.0 -1.0
vn 0.9610635042190552 -0.276327520608902 -5.577219090373384e-16
vn 0.0 0.0 -1.0
vn 0.0 0.0 -1.0
vn 0.0 0.0 -1.0
vn 0.0 0.0 -1.0
vn -0.0 0.0 -1.0
vn -2.9318844800004873e-15 8.727730079719376e-15 -1.0
vn -6.071774840858213e-15 -6.201447114753374e-15 -1.0
vn -0.0 -0.0 -1.0
vn 8.13330946239062e-15 4.904799338217598e-15 -1.0
vn -9.729237272597391e-15 -3.591041443207725e-16 -1.0
vn -0.0 0.0 -1.0
vn -0.9958176016807556 -0.09136364609003067 0.0
vn -0.0 -0.0 1.0
vn -0.0 -0.0 1.0
vn -0.0 -0.0 1.0
vn 1.2402894229506748e-14 1.2143549681716426e-14 1.0
vn -1.7690438957468357e-14 -5.574502549832421e-15 1.0
vn -0.0 -0.0 1.0
vn 0.0 -9.543550709900303e-15 -1.0
vn -3.5297635328528825e-15 8.0887690818922e-15 -1.0
vn 0.0 -0.0 -1.0
vn 0.0 0.0 -1.0
vn 0.0 0.0 -1.0
vn -8.360355796869189e-15 -4.115135932480831e-15 -1.0
vn 9.762184313146741e-15 0.0 -1.0
vn -0.0 -0.0 -1.0
vn 0.0 0.0 1.0
vn 0.0 0.0 1.0
vn 0.0 0.0 1.0
vn 0.0 0.0 1.0
vn 0.0 -0.0 1.0
vn 0.0 0.0 1.0
vn 0.0 0.0 1.0
vn -0.0 0.0 1.0
vn -0.0 0.0 1.0
vn -0.0 0.0 1.0
vn -0.0 0.0 1.0
vn -0.0 0.0 1.0
f 1//1 2//1 3//1
f 3//2 4//2 5//2
f 5//3 4//3 6//3
f 6//4 7//4 8//4
f 8//5 9//5 10//5
f 10//6 11//6 12//6
f 13//7 12//7 11//7
f 9//8 11//8 10//8
f 10//9 14//9 8//9
f 7//10 9//10 8//10
f 8//11 14//11 6//11
f 4//12 7//12 6//12
f 6//13 14//13 5//13
f 15//14 3//14 5//14
f 5//15 14//15 15//15
f 1//16 3//16 15//16
f 15//17 16//17 1//17
f 1//18 16//18 17//18
f 17//19 18//19 19//19
f 19//20 20//20 21//20
f 22//21 21//21 20//21
f 18//22 20//22 19//22
f 19//23 23//23 17//23
f 16//24 18//24 17//24
f 1//25 17//25 24//25
f 24//26 25//26 26//26
f 26//27 25//27 27//27
f 27//28 28//28 29//28
f 29//29 30//29 31//29
f 31//30 32//30 33//30
f 33//31 34//31 35//31
f 36//32 35//32 34//32
f 32//33 34//33 33//33
f 33//34 37//34 31//34
f 30//35 32//35 31//35
f 31//36 37//36 29//36
f 28//37 30//37 29//37
f 29//38 37//38 27//38
f 25//39 28//39 27//39
f 27//40 37//40 26//40
f 26//41 38//41 24//41
f 24//42 38//42 39//42
f 39//43 40//43 41//43
f 41//44 42//44 43//44
f 44//45 43//45 42//45
f 40//46 42//46 41//46
f 41//47 2//47 39//47
f 38//48 40//48 39//48
f 39//49 2//49 24//49
f 17//50 23//50 24//50
f 24//51 23//51 25//51
f 25//52 23//52 28//52
f 28//53 23//53 30//53
f 30//54 23//54 32//54
f 32//55 23//55 34//55
f 34//56 23//56 36//56
f 45//57 35//57 36//57
f 46//58 45//58 36//58
f 36//59 23//59 46//59
f 47//60 45//60 46//60
f 48//61 47//61 46//61
f 46//62 23//62 48//62
f 48//63 49//63 50//63
f 50//64 49//64 51//64
f 51//65 52//65 53//65
f 53//66 54//66 55//66
f 55//67 56//67 22//67
f 56//68 21//68 22//68
f 22//69 14//69 55//69
f 54//70 56//70 55//70
f 55//71 14//71 53//71
f 52//72 54//72 53//72
f 53//73 14//73 51//73
f 49//74 52//74 51//74
f 50//75 51//75 57//75
f 57//76 58//76 59//76
f 59//77 58//77 60//77
f 60//78 61//78 13//78
f 61//79 12//79 13//79
f 13//80 2//80 60//80
f 58//81 61//81 60//81
f 60//82 2//82 59//82
f 59//83 62//83 57//83
f 57//84 62//84 63//84
f 63//85 64//85 65//85
f 65//86 66//86 67//86
f 67//87 68//87 44//87
f 68//88 43//88 44//88
f 44//89 37//89 67//89
f 66//90 68//90 67//90
f 67//91 37//91 65//91
f 64//92 66//92 65//92
f 65//93 37//93 63//93
f 62//94 64//94 63//94
f 63//95 37//95 57//95
f 51//96 14//96 57//96
f 57//97 14//97 58//97
f 58//98 14//98 61//98
f 61//99 14//99 12//99
f 12//100 14//100 10//100
f 20//101 14//101 22//101
f 18//102 14//102 20//102
f 16//103 14//103 18//103
f 15//104 14//104 16//104
f 57//105 37//105 50//105
f 50//106 47//106 48//106
f 48//107 23//107 49//107
f 49//108 23//108 52//108
f 52//109 23//109 54//109
f 54//110 23//110 56//110
f 56//111 23//111 21//111
f 21//112 23//112 19//112
f 47//113 37//113 45//113
f 45//114 37//114 35//114
f 35//115 37//115 33//115
f 42//116 37//116 44//116
f 40//117 37//117 42//117
f 38//118 37//118 40//118
f 26//119 37//119 38//119
f 50//120 37//120 47//120
f 64//121 2//121 66//121
f 66//122 2//122 68//122
f 68//123 2//123 43//123
f 43//124 2//124 41//124
f 24//125 2//125 1//125
f 62//126 2//126 64//126
f 59//127 2//127 62//127
f 11//128 2//128 13//128
f 9//129 2//129 11//129
f 7//130 2//130 9//130
f 4//131 2//131 7//131
f 3//132 2//132 4//132
