mtllib part_1.mtl
usemtl part_1

v 0.36493267059326173 -0.7418653106689453 8.881784197001253e-18
v 0.3370634460449219 -0.7963932800292969 8.881784197001253e-18
v 0.3683771133422852 -0.7799783325195313 8.881784197001253e-18
v 0.34386276245117187 -0.8093638610839844 8.881784197001253e-18
v 0.3683771133422852 -0.7799783325195313 -0.05
v 0.34386276245117187 -0.8093638610839844 -0.05
v 0.30574974060058596 -0.8128083038330078 8.881784197001253e-18
v 0.30574974060058596 -0.8128083038330078 -0.05
v 0.2763641738891602 -0.7882939910888672 8.881784197001253e-18
v 0.2763641738891602 -0.7882939910888672 -0.05
v 0.2037812614440918 -0.649832992553711 8.881784197001253e-18
v 0.2037812614440918 -0.649832992553711 -0.05
v 0.16734216690063478 -0.5990768432617187 8.881784197001253e-18
v 0.16734216690063478 -0.5990768432617187 -0.05
v 0.11599987030029298 -0.5590200805664063 8.881784197001253e-18
v 0.11599987030029298 -0.5590200805664063 -0.05
v 0.05531067848205567 -0.5354108428955078 8.881784197001253e-18
v 0.05531067848205567 -0.5354108428955078 -0.05
v -0.006943511366844178 -0.5300809097290039 8.881784197001253e-18
v 0.16064651489257814 -0.3521638870239258 -0.05
v 0.13499876022338866 -0.3289812469482422 -0.05
v 0.16064651489257814 -0.3521638870239258 8.881784197001253e-18
v 0.36493267059326173 -0.7418653106689453 -0.05
v 0.3370634460449219 -0.7963932800292969 -0.05
v 0.13874881744384765 -0.3865066909790039 -0.05
v 0.14006095886230469 -0.36741756439208983 8.881784197001253e-18
v 0.14006095886230469 -0.36741756439208983 -0.05
v 0.12749073028564453 -0.35299167633056644 8.881784197001253e-18
v 0.12749073028564453 -0.35299167633056644 -0.05
v 0.10840160369873048 -0.3516795349121094 8.881784197001253e-18
v 0.10840160369873048 -0.3516795349121094 -0.05
v 0.0939757251739502 -0.36424976348876953 8.881784197001253e-18
v 0.0939757251739502 -0.36424976348876953 -0.05
v 0.09266358375549316 -0.3833388900756836 8.881784197001253e-18
v 0.09266358375549316 -0.3833388900756836 -0.05
v 0.10523381233215333 -0.39776477813720706 8.881784197001253e-18
v 0.10523381233215333 -0.39776477813720706 -0.05
v 0.12432293891906739 -0.39907691955566404 8.881784197001253e-18
v 0.12432293891906739 -0.39907691955566404 -0.05
v 0.13874881744384765 -0.3865066909790039 8.881784197001253e-18
v -0.006943511366844178 -0.5300809097290039 -0.05
v -0.2623310089111328 -0.5316308212280274 -0.05
v -0.22357379913330078 -0.5159394836425781 -0.05
v -0.20914793014526367 -0.503369255065918 8.881784197001253e-18
v -0.20914793014526367 -0.503369255065918 -0.05
v -0.20783576965332032 -0.4842801284790039 8.881784197001253e-18
v -0.20783576965332032 -0.4842801284790039 -0.05
v -0.22040599822998047 -0.4698542785644531 8.881784197001253e-18
v -0.22040599822998047 -0.4698542785644531 -0.05
v -0.23949512481689453 -0.46854209899902344 8.881784197001253e-18
v -0.23949512481689453 -0.46854209899902344 -0.05
v -0.25392101287841795 -0.4811123275756836 8.881784197001253e-18
v -0.25392101287841795 -0.4811123275756836 -0.05
v -0.255233154296875 -0.5002014541625976 8.881784197001253e-18
v -0.255233154296875 -0.5002014541625976 -0.05
v -0.24266292572021486 -0.5146273422241211 8.881784197001253e-18
v -0.24266292572021486 -0.5146273422241211 -0.05
v -0.22357379913330078 -0.5159394836425781 8.881784197001253e-18
v -0.2806418037414551 -0.501646614074707 -0.05
v -0.27470659255981444 -0.4670184326171875 -0.05
v -0.24745578765869142 -0.4448434448242188 -0.05
v 0.1004409408569336 -0.3279808807373047 8.881784197001253e-18
v 0.1004409408569336 -0.3279808807373047 -0.05
v 0.13499876022338866 -0.3289812469482422 8.881784197001253e-18
v -0.24745578765869142 -0.4448434448242188 8.881784197001253e-18
v -0.22881486892700195 -0.5421667861938476 8.881784197001253e-18
v -0.22881486892700195 -0.5421667861938476 -0.05
v -0.2623310089111328 -0.5316308212280274 -2.220446049250313e-18
v -0.2806418037414551 -0.501646614074707 8.881784197001253e-18
v -0.27470659255981444 -0.4670184326171875 8.881784197001253e-18
v -0.2623310089111328 -0.5316308212280274 8.881784197001253e-18
vn -0.0 0.0 1.0
vn 0.7678819298744202 -0.6405913829803467 7.426950582346012e-16
vn 0.7678819298744202 -0.6405913829803467 0.0
vn 0.09000801295042038 -0.9959410429000854 5.917087566448265e-15
vn -0.6405913829803467 -0.7678819298744202 -0.0
vn -0.8856849670410156 -0.4642866849899292 -0.0
vn -0.812332808971405 -0.5831941366195679 2.486305974470915e-15
vn -0.6151251196861267 -0.7884294986724854 -4.9256067025669e-16
vn -0.3625512719154358 -0.9319638013839722 -3.4923436755332493e-13
vn -0.08530367910861969 -0.9963549971580505 3.330430820448066e-13
vn -0.3625512719154358 -0.9319638013839722 -1.636700270518448e-15
vn 1.1960310356022634e-16 -6.875144748458992e-17 -1.0
vn 0.6705560684204102 0.7418588399887085 0.0
vn 0.8856849670410156 0.4642866849899292 0.0
vn 0.9959410429000854 0.09000801295042038 -1.6711355479561243e-15
vn 2.7080924461052704e-16 2.4474342031533165e-17 -1.0
vn 0.9959410429000854 0.09000801295042038 0.0
vn -5.801934813697582e-17 -3.0414438506839764e-17 -1.0
vn 0.8856849670410156 0.4642866849899292 0.0
vn 4.118733704924294e-15 -2.3675716487818856e-15 -1.0
vn -0.997645914554596 0.06857597827911377 0.0
vn -0.7539327144622803 -0.6569516658782959 9.335844678706393e-16
vn -0.06857597827911377 -0.997645914554596 -0.0
vn 0.6569516658782959 -0.7539327144622803 0.0
vn 0.997645914554596 -0.06857597827911377 0.0
vn 0.7539327144622803 0.6569516658782959 5.357014346888908e-16
vn 0.06857597827911377 0.997645914554596 0.0
vn -0.6569516658782959 0.7539327144622803 2.333961169676598e-16
vn -0.997645914554596 0.06857597827911377 3.539406050045307e-16
vn -5.3177727927502735e-15 5.396224560808493e-15 -1.0
vn -0.6569516658782959 0.7539327144622803 0.0
vn -0.0 0.0 -1.0
vn 0.06857597827911377 0.997645914554596 4.6418441139662575e-17
vn -0.0 0.0 -1.0
vn -0.6569516658782959 0.7539327144622803 1.5381949974339827e-15
vn -0.997645914554596 0.06857597827911377 0.0
vn -0.7539327144622803 -0.6569516658782959 -0.0
vn -0.06857597827911377 -0.997645914554596 -0.0
vn 0.6569516658782959 -0.7539327144622803 6.046106354424619e-16
vn 0.997645914554596 -0.06857597827911377 0.0
vn 0.7539327144622803 0.6569516658782959 1.6071041981875539e-15
vn 0.06857597827911377 0.997645914554596 0.0
vn -0.6569516658782959 0.7539327144622803 0.0
vn 3.9774954608321714e-16 -9.824317991476107e-16 -1.0
vn 0.06857597827911377 0.997645914554596 1.508599295680003e-16
vn -2.575600081891345e-16 -2.2442913502045017e-16 -1.0
vn 0.7539327144622803 0.6569516658782959 0.0
vn -2.656733397441894e-17 4.671059008235997e-16 -1.0
vn 0.997645914554596 -0.06857597827911377 -6.092420527793708e-16
vn 0.0 0.0 -1.0
vn 0.6569516658782959 -0.7539327144622803 0.0
vn 0.0 0.0 -1.0
vn -0.31842660903930664 0.9479475021362305 0.0
vn 0.028935842216014862 0.9995812773704529 0.0
vn 0.6705560684204102 0.7418588399887085 0.0
vn 5.424890273325947e-16 9.8329577275381e-16 -1.0
vn 0.028935842216014862 0.9995812773704529 0.0
vn -2.7156013600954553e-17 4.84076847813995e-18 -1.0
vn -0.31842660903930664 0.9479475021362305 0.0
vn -0.6311709880828857 0.7756437063217163 0.0
vn 0.0 -0.0 -1.0
vn 3.485776423687697e-16 -1.6977863808502968e-15 -1.0
vn -0.06857597827911377 -0.997645914554596 0.0
vn -1.3712264335031166e-16 4.962000531936865e-16 -1.0
vn -0.7539327144622803 -0.6569516658782959 0.0
vn 0.0 -0.0 -1.0
vn -0.997645914554596 0.06857597827911377 8.065204201783112e-16
vn 0.0 -0.0 -1.0
vn 0.0 -0.0 -1.0
vn 8.519653921597295e-17 -4.711359247679581e-16 -1.0
vn 0.7539327144622803 0.6569516658782959 0.0
vn -0.0 0.0 1.0
vn 0.0 0.0 1.0
vn 0.05439179018139839 -0.9985196590423584 0.0
vn 0.05439179018139839 -0.9985196590423584 0.0
vn -0.29988691210746765 -0.9539747834205627 2.1308246694748878e-16
vn -0.8534448742866516 -0.5211831331253052 -0.0
vn -0.9856272339820862 0.16893477737903595 -9.404010713927866e-16
vn -0.6311709880828857 0.7756437063217163 -1.5673823763678266e-15
vn 1.5580815046207212e-16 2.297848449366003e-16 -1.0
vn -0.9856272339820862 0.16893477737903595 0.0
vn 1.6282157003044793e-17 -2.862723075186871e-16 -1.0
vn -0.8534448742866516 -0.5211831331253052 6.067286942666305e-16
vn -3.5404425404400605e-17 1.0327316860500048e-16 -1.0
vn -3.913809700506081e-17 7.184936858052105e-16 -1.0
vn -0.08530367910861969 -0.9963549971580505 0.0
vn 0.0 0.0 1.0
vn -0.29988691210746765 -0.9539747834205627 0.0
vn 0.0 0.0 1.0
vn 0.0 -0.0 1.0
vn 0.0 -0.0 1.0
vn -0.0 0.0 1.0
vn -0.0 0.0 1.0
vn 0.997645914554596 -0.06857597827911377 0.0
vn 7.28902979573137e-16 -1.2993256447287413e-16 -1.0
vn -3.48536687002281e-18 -3.7595035909223967e-16 -1.0
vn 0.6569516658782959 -0.7539327144622803 0.0
vn 7.253644729662026e-17 7.824169541697113e-15 -1.0
vn -0.06857597827911377 -0.997645914554596 1.4157624200181228e-15
vn 2.7722099285366647e-16 -3.7412307079699573e-16 -1.0
vn -0.7539327144622803 -0.6569516658782959 0.0
vn -3.6326982588558957e-16 4.902500702556986e-16 -1.0
vn 1.3126547669449717e-16 -1.3320199253526752e-16 -1.0
vn -0.0 -0.0 1.0
vn -0.0 0.0 1.0
vn 0.0 0.0 1.0
vn 0.0 0.0 1.0
vn -0.8856849670410156 -0.4642866849899292 0.0
vn 0.0 0.0 -1.0
vn -6.094657224170051e-16 -7.811756062096865e-16 -1.0
vn 1.6938191961627129e-16 2.9659292752494794e-16 -1.0
vn -1.166356824481985e-16 2.224971587468815e-16 -1.0
vn -1.741850861181258e-16 -2.0879703609975365e-16 -1.0
vn -0.6405913829803467 -0.7678819298744202 2.553014265990164e-15
vn 5.908629201316102e-17 -6.537913800632963e-16 -1.0
vn 0.09000801295042038 -0.9959410429000854 0.0
vn 5.040806359767037e-16 -4.2051998869711968e-16 -1.0
vn 0.0 -0.0 1.0
vn 0.0 0.0 1.0
vn -0.812332808971405 -0.5831941366195679 0.0
vn -0.6151251196861267 -0.7884294986724854 3.3825138429945372e-15
vn 0.0 -0.0 1.0
vn 0.0 -0.0 1.0
vn 0.0 0.0 1.0
vn 0.0 0.0 1.0
vn 0.0 0.0 1.0
vn -0.0 0.0 1.0
vn 0.0 0.0 1.0
vn 0.0 0.0 1.0
vn -0.0 0.0 1.0
vn 0.0 0.0 1.0
vn 0.0 0.0 1.0
vn 0.0 -0.0 1.0
vn -0.0 0.0 1.0
vn -0.0 0.0 1.0
vn -0.0 0.0 1.0
vn -0.0 0.0 1.0
vn -0.0 0.0 1.0
vn -0.0 0.0 1.0
vn -0.0 -0.0 1.0
vn -0.0 0.0 1.0
vn -0.0 0.0 1.0
vn -0.0 0.0 1.0
vn -0.0 0.0 1.0
f 1//1 2//1 3//1
f 3//2 4//2 5//2
f 5//3 4//3 6//3
f 6//4 7//4 8//4
f 8//5 9//5 10//5
f 10//6 11//6 12//6
f 12//7 13//7 14//7
f 14//8 15//8 16//8
f 16//9 17//9 18//9
f 19//10 18//10 17//10
f 15//11 17//11 16//11
f 16//12 18//12 20//12
f 21//13 22//13 20//13
f 20//14 1//14 23//14
f 23//15 3//15 5//15
f 5//16 24//16 23//16
f 1//17 3//17 23//17
f 23//18 16//18 20//18
f 22//19 1//19 20//19
f 20//20 18//20 25//20
f 25//21 26//21 27//21
f 27//22 28//22 29//22
f 29//23 30//23 31//23
f 31//24 32//24 33//24
f 33//25 34//25 35//25
f 35//26 36//26 37//26
f 37//27 38//27 39//27
f 39//28 40//28 25//28
f 40//29 26//29 25//29
f 25//30 41//30 39//30
f 38//31 40//31 39//31
f 39//32 42//32 37//32
f 36//33 38//33 37//33
f 37//34 42//34 43//34
f 43//35 44//35 45//35
f 45//36 46//36 47//36
f 47//37 48//37 49//37
f 49//38 50//38 51//38
f 51//39 52//39 53//39
f 53//40 54//40 55//40
f 55//41 56//41 57//41
f 57//42 58//42 43//42
f 58//43 44//43 43//43
f 43//44 42//44 57//44
f 56//45 58//45 57//45
f 57//46 42//46 55//46
f 54//47 56//47 55//47
f 55//48 59//48 53//48
f 52//49 54//49 53//49
f 53//50 60//50 51//50
f 50//51 52//51 51//51
f 51//52 60//52 61//52
f 61//53 62//53 63//53
f 63//54 64//54 21//54
f 64//55 22//55 21//55
f 21//56 20//56 63//56
f 62//57 64//57 63//57
f 63//58 33//58 61//58
f 65//59 62//59 61//59
f 60//60 65//60 61//60
f 61//61 37//61 51//61
f 51//62 37//62 49//62
f 48//63 50//63 49//63
f 49//64 37//64 47//64
f 46//65 48//65 47//65
f 47//66 37//66 45//66
f 44//67 46//67 45//67
f 45//68 37//68 43//68
f 35//69 37//69 61//69
f 33//70 35//70 61//70
f 34//71 36//71 35//71
f 36//72 44//72 38//72
f 38//73 58//73 19//73
f 19//74 66//74 41//74
f 41//75 66//75 67//75
f 67//76 68//76 42//76
f 42//77 69//77 59//77
f 59//78 70//78 60//78
f 70//79 65//79 60//79
f 59//80 60//80 53//80
f 69//81 70//81 59//81
f 42//82 59//82 55//82
f 68//83 69//83 42//83
f 41//84 42//84 39//84
f 67//85 42//85 41//85
f 41//86 18//86 19//86
f 19//87 58//87 66//87
f 66//88 68//88 67//88
f 66//89 56//89 71//89
f 71//90 54//90 69//90
f 69//91 52//91 70//91
f 70//92 52//92 50//92
f 50//93 48//93 32//93
f 32//94 34//94 33//94
f 31//95 33//95 63//95
f 63//96 20//96 31//96
f 30//97 32//97 31//97
f 31//98 20//98 29//98
f 28//99 30//99 29//99
f 29//100 20//100 27//100
f 26//101 28//101 27//101
f 27//102 20//102 25//102
f 18//103 41//103 25//103
f 28//104 26//104 64//104
f 64//105 26//105 22//105
f 22//106 40//106 1//106
f 1//107 38//107 9//107
f 9//108 11//108 10//108
f 10//109 12//109 23//109
f 14//110 16//110 23//110
f 12//111 14//111 23//111
f 23//112 24//112 10//112
f 10//113 24//113 8//113
f 7//114 9//114 8//114
f 8//115 24//115 6//115
f 4//116 7//116 6//116
f 6//117 24//117 5//117
f 7//118 2//118 9//118
f 9//119 38//119 11//119
f 11//120 13//120 12//120
f 13//121 15//121 14//121
f 15//122 38//122 17//122
f 17//123 38//123 19//123
f 13//124 38//124 15//124
f 11//125 38//125 13//125
f 40//126 38//126 1//126
f 9//127 2//127 1//127
f 4//128 2//128 7//128
f 3//129 2//129 4//129
f 44//130 58//130 38//130
f 58//131 56//131 66//131
f 56//132 54//132 71//132
f 54//133 52//133 69//133
f 46//134 44//134 36//134
f 34//135 46//135 36//135
f 48//136 46//136 34//136
f 32//137 48//137 34//137
f 30//138 50//138 32//138
f 70//139 50//139 30//139
f 30//140 28//140 62//140
f 62//141 28//141 64//141
f 62//142 70//142 30//142
f 65//143 70//143 62//143
f 26//144 40//144 22//144
