mtllib part_6.mtl
usemtl part_6

v 0.07740583419799806 -0.4067234420776367 8.881784197001253e-18
v 0.11211345672607421 -0.4213775634765625 8.881784197001253e-18
v 0.09305991172790527 -0.4196176528930664 8.881784197001253e-18
v 0.11254761695861816 -0.4252337646484375 3.1086244689504386e-17
v 0.09305991172790527 -0.4196176528930664 0.05
v 0.11254761695861816 -0.4252337646484375 0.05
v 0.13116700172424317 -0.4231374740600586 8.881784197001253e-18
v 0.13116700172424317 -0.4231374740600586 0.05
v 0.14770746231079102 -0.41433467864990237 8.881784197001253e-18
v 0.14770746231079102 -0.41433467864990237 0.05
v 0.1606016731262207 -0.39868061065673827 8.881784197001253e-18
v 0.1606016731262207 -0.39868061065673827 0.05
v 0.16621780395507812 -0.37919288635253906 8.881784197001253e-18
v 0.16621780395507812 -0.37919288635253906 0.05
v 0.16412151336669922 -0.3605735015869141 8.881784197001253e-18
v 0.02330235719680786 0.04423940658569336 0.05
v 0.1402412986755371 -0.36797607421875 0.05
v 0.1384814262390137 -0.38702911376953125 8.881784197001253e-18
v 0.1384814262390137 -0.38702911376953125 0.05
v 0.12376444816589356 -0.39925727844238285 8.881784197001253e-18
v 0.12376444816589356 -0.39925727844238285 0.05
v 0.10471138954162598 -0.39749740600585937 1.9984014443252817e-17
v 0.10471138954162598 -0.39749740600585937 0.05
v 0.09248325347900391 -0.3827804183959961 8.881784197001253e-18
v 0.09248325347900391 -0.3827804183959961 0.05
v 0.09424312591552735 -0.3637273406982422 2.55351295663786e-17
v 0.09424312591552735 -0.3637273406982422 0.05
v 0.1089600944519043 -0.3514992141723633 8.881784197001253e-18
v 0.1089600944519043 -0.3514992141723633 0.05
v 0.12801316261291504 -0.3532590866088867 8.881784197001253e-18
v 0.12801316261291504 -0.3532590866088867 0.05
v 0.1402412986755371 -0.36797607421875 8.881784197001253e-18
v 0.07740583419799806 -0.4067234420776367 0.05
v 0.11211345672607421 -0.4213775634765625 0.05
v 0.06860303401947021 -0.39018295288085936 0.05
v -0.04775923728942871 -0.014804730415344238 0.05
v 0.06860303401947021 -0.39018295288085936 8.881784197001253e-18
v 0.023879022598266603 0.007402180433273315 0.05
v 0.022119150161743165 -0.011650887727737426 8.881784197001253e-18
v 0.022119150161743165 -0.011650887727737426 0.05
v 0.007402180433273315 -0.023879022598266603 8.881784197001253e-18
v 0.007402180433273315 -0.023879022598266603 0.05
v -0.011650887727737426 -0.022119150161743165 8.881784197001253e-18
v -0.011650887727737426 -0.022119150161743165 0.05
v -0.023879022598266603 -0.007402180433273315 8.881784197001253e-18
v -0.023879022598266603 -0.007402180433273315 0.05
v -0.022119150161743165 0.011650887727737426 8.881784197001253e-18
v -0.022119150161743165 0.011650887727737426 0.05
v -0.007402180433273315 0.023879022598266603 8.881784197001253e-18
v -0.007402180433273315 0.023879022598266603 0.05
v 0.011650887727737426 0.022119150161743165 3.1086244689504386e-17
v 0.011650887727737426 0.022119150161743165 0.05
v 0.023879022598266603 0.007402180433273315 8.881784197001253e-18
v 0.003814658224582672 0.049855523109436035 0.05
v 0.003814658224582672 0.049855523109436035 3.1086244689504386e-17
v -0.014804730415344238 0.04775923728942871 8.881784197001253e-18
v 0.02330235719680786 0.04423940658569336 8.881784197001253e-18
v 0.03895643949508667 0.0313451886177063 0.05
v -0.04775923728942871 -0.014804730415344238 8.881784197001253e-18
v 0.09424312591552735 -0.3637273406982422 8.881784197001253e-18
v 0.04775923728942871 0.014804730415344238 8.881784197001253e-18
v 0.16412151336669922 -0.3605735015869141 0.05
v 0.04775923728942871 0.014804730415344238 0.05
v 0.03895643949508667 0.0313451886177063 8.881784197001253e-18
v -0.049855523109436035 0.003814658224582672 0.05
v -0.04423940658569336 0.02330235719680786 0.05
v -0.049855523109436035 0.003814658224582672 8.881784197001253e-18
v -0.04423940658569336 0.02330235719680786 8.881784197001253e-18
v -0.0313451886177063 0.03895643949508667 0.05
v -0.0295220685005188 0.03553079843521118 0.05
v -0.0313451886177063 0.03895643949508667 8.881784197001253e-18
v -0.014804730415344238 0.04775923728942871 0.05
v -0.0295220685005188 0.03553079843521118 8.881784197001253e-18
v 0.003814658224582672 0.049855523109436035 8.881784197001253e-18
v 0.011650887727737426 0.022119150161743165 8.881784197001253e-18
v 0.10471138954162598 -0.39749740600585937 8.881784197001253e-18
v 0.11254761695861816 -0.4252337646484375 8.881784197001253e-18
vn -0.0 -0.0 -1.0
vn -0.27691784501075745 -0.9608935713768005 9.634687431618366e-16
vn -0.27691784501075745 -0.9608935713768005 -1.603679862516305e-11
vn 0.11187932640314102 -0.9937217831611633 1.4815683402336077e-11
vn 0.11187932640314102 -0.9937217831611633 0.0
vn 0.46980783343315125 -0.8827686905860901 0.0
vn 0.46980783343315125 -0.8827686905860901 1.6690927162455837e-16
vn 0.7718667984008789 -0.6357842683792114 -9.035037868147973e-16
vn 0.9608935713768005 -0.27691784501075745 -1.6035426458893554e-11
vn 0.9937217831611633 0.11187932640314102 1.4816110144311168e-11
vn 0.9608935713768005 -0.27691784501075745 -3.722493015687712e-16
vn 8.191724983718895e-16 2.5393261606229754e-16 1.0
vn -0.9957612752914429 0.09197534620761871 0.0
vn -0.6390731930732727 0.7691459655761719 0.0
vn 0.09197534620761871 0.9957612752914429 1.4150619237707435e-15
vn 0.7691459655761719 0.6390731930732727 -0.0
vn 0.9957612752914429 -0.09197534620761871 0.0
vn 0.6390731930732727 -0.7691459655761719 0.0
vn -0.09197534620761871 -0.9957612752914429 -1.3497095202418116e-15
vn -0.7691459655761719 -0.6390731930732727 0.0
vn -0.9957612752914429 0.09197534620761871 0.0
vn 0.0 0.0 1.0
vn 0.7718667984008789 -0.6357842683792114 2.627642050868445e-16
vn 0.0 0.0 1.0
vn -0.6357842683792114 -0.7718667984008789 1.9338490104754723e-16
vn 5.966829364517537e-16 1.4132153919457291e-15 1.0
vn -0.6357842683792114 -0.7718667984008789 -1.3138210254342225e-16
vn -0.8827686905860901 -0.46980783343315125 -1.5681122276007842e-16
vn 4.777770733560156e-17 2.54272044663575e-17 1.0
vn -0.955160915851593 -0.29608720541000366 0.0
vn -0.8827686905860901 -0.46980783343315125 0.0
vn 2.489902052848483e-15 2.800869288307014e-16 1.0
vn -0.9957612752914429 0.09197534620761871 -7.210326273599359e-17
vn -0.6390731930732727 0.7691459655761719 0.0
vn 0.09197534620761871 0.9957612752914429 2.2039432004598391e-16
vn 0.7691459655761719 0.6390731930732727 -0.0
vn 0.9957612752914429 -0.09197534620761871 2.449014713693334e-16
vn 0.6390731930732727 -0.7691459655761719 0.0
vn -0.09197534620761871 -0.9957612752914429 2.0814074438430918e-16
vn -0.7691459655761719 -0.6390731930732727 0.0
vn -0.9957612752914429 0.09197534620761871 0.0
vn 6.979955149514361e-17 2.422016067895195e-16 1.0
vn 0.27691784501075745 0.9608935713768005 -1.603662688753893e-11
vn -0.11187932640314102 0.9937217831611633 1.481585860940715e-11
vn 0.27691784501075745 0.9608935713768005 2.627642050868445e-16
vn 0.6357842683792114 0.7718667984008789 1.0481521193781164e-16
vn -2.6270918764994237e-17 1.6543350861986987e-17 1.0
vn 0.0 0.0 1.0
vn -0.0 0.0 1.0
vn 0.0 0.0 1.0
vn 0.0 0.0 1.0
vn 5.761650985517351e-16 9.279275715672912e-17 1.0
vn -1.0635177337926728e-15 -2.8015654435105386e-16 1.0
vn -0.7691459655761719 -0.6390731930732727 -3.4813829696694074e-16
vn 4.777856627994964e-16 1.2586040063938987e-16 1.0
vn -0.09197534620761871 -0.9957612752914429 0.0
vn -1.5805505755589686e-17 1.902245582556149e-17 1.0
vn 0.6390731930732727 -0.7691459655761719 0.0
vn -8.176678369853208e-17 7.552541150052142e-18 1.0
vn 0.9957612752914429 -0.09197534620761871 0.0
vn 0.7691459655761719 0.6390731930732727 9.28368862497921e-16
vn 9.798548276745378e-32 4.2703582120598717e-32 -1.0
vn -5.182590611313526e-32 -1.8265726068151267e-32 -1.0
vn 1.628030876277273e-31 8.163644872746022e-32 -1.0
vn -4.394786875181983e-31 -2.3115170119371836e-31 -1.0
vn 2.6690281022143515e-31 1.448700514401137e-31 -1.0
vn 0.0 0.0 -1.0
vn 0.0 0.0 -1.0
vn 0.955160915851593 0.29608720541000366 0.0
vn 0.955160915851593 0.29608720541000366 -0.0
vn 0.8827686905860901 0.46980783343315125 -0.0
vn 0.6357842683792114 0.7718667984008789 0.0
vn 1.5750695180015146e-15 1.9121955131514226e-15 1.0
vn 0.8827686905860901 0.46980783343315125 0.0
vn -1.2494010198917604e-15 -4.3461951384865755e-16 1.0
vn 0.9937217831611633 0.11187932640314102 0.0
vn 0.0 0.0 -1.0
vn 0.7691459655761719 0.6390731930732727 -1.856737645586503e-16
vn -4.757417722977718e-16 -1.0373239281131032e-16 1.0
vn 0.09197534620761871 0.9957612752914429 0.0
vn 1.7690685113183763e-17 -2.1291332836455638e-17 1.0
vn -0.6390731930732727 0.7691459655761719 6.962766336385509e-17
vn 2.2755512599415993e-15 2.5597478602834805e-16 1.0
vn 2.2684846758208935e-15 1.2813475027721667e-15 1.0
vn -0.7691459655761719 -0.6390731930732727 -3.2492909128636048e-16
vn -8.965616106582194e-16 3.871416760287187e-16 1.0
vn -0.09197534620761871 -0.9957612752914429 0.0
vn -1.1070791559623038e-15 2.785086893977739e-15 1.0
vn 0.6390731930732727 -0.7691459655761719 0.0
vn -1.9357083801435935e-16 -4.482808053291097e-16 1.0
vn 0.9957612752914429 -0.09197534620761871 0.0
vn -0.0 -0.0 1.0
vn -0.0 -0.0 1.0
vn -0.0 -0.0 1.0
vn -0.9608935713768005 0.27691784501075745 -1.6036606070857218e-11
vn -0.9937217831611633 -0.11187932640314102 1.481584993578977e-11
vn -0.9608935713768005 0.27691784501075745 -1.532791218398076e-16
vn -0.7718667984008789 0.6357842683792114 1.7752972805925741e-16
vn 4.1845285772890476e-16 2.226998113795121e-16 1.0
vn -0.7718667984008789 0.6357842683792114 0.0
vn -0.46980783343315125 0.8827686905860901 0.0
vn -0.0 0.0 1.0
vn -0.46980783343315125 0.8827686905860901 0.0
vn -0.11187932640314102 0.9937217831611633 0.0
vn 4.6457599737082495e-32 2.472464581732138e-32 -1.0
vn 0.0 -0.0 -1.0
vn 5.527958492298394e-32 -6.653082910187947e-32 -1.0
vn 2.467526036090746e-32 -5.018154820807224e-32 -1.0
vn -0.955160915851593 -0.29608720541000366 0.0
vn -0.9937217831611633 -0.11187932640314102 0.0
vn -3.9476662048495406e-32 9.868989555313213e-34 -1.0
vn 4.918882265765168e-32 -5.92003934329059e-32 -1.0
vn 4.6397373284018116e-32 -5.799502977062921e-32 -1.0
vn -1.2966533764075863e-31 -1.0773720757772285e-31 -1.0
vn -0.0 -0.0 -1.0
vn 5.007114577864301e-32 2.0377642728725605e-32 -1.0
vn -5.436191762559926e-32 -2.823223867557053e-32 -1.0
vn -1.6319379256258186e-32 -8.056221146001777e-32 -1.0
vn -4.2509757795827507e-32 3.926492759792148e-33 -1.0
vn -4.604464563290275e-32 -1.2189021245886898e-32 -1.0
vn 6.354958147162626e-32 -8.120280886144188e-32 -1.0
vn 7.752764340601126e-33 8.39344755311285e-32 -1.0
vn 8.550769251807976e-33 7.89795317435424e-32 -1.0
vn 0.09197534620761871 0.9957612752914429 0.0
vn -0.6390731930732727 0.7691459655761719 0.0
vn -2.3428254811252896e-32 2.8196688787665784e-32 -1.0
vn 6.396717583975588e-32 1.0302065551385145e-32 -1.0
vn -2.042236176644035e-31 -3.2890699277992236e-32 -1.0
vn -0.0 0.0 -1.0
vn -2.6828516806811514e-31 -8.316483823734287e-32 -1.0
vn 3.52825599182149e-32 -1.7831437035377683e-31 -1.0
vn 5.229674449788537e-32 5.887889940137585e-33 -1.0
vn 0.0 0.0 -1.0
vn -0.0 -0.0 -1.0
vn 1.0165847943580713e-31 1.5914061089912984e-33 -1.0
vn -8.828948814435719e-32 -3.071258465305134e-32 -1.0
vn -1.1821568323975575e-32 -6.291416212281752e-33 -1.0
vn 1.8439312788305132e-32 -4.291225587775669e-32 -1.0
vn -7.176222565089196e-32 1.6700616171864046e-31 -1.0
vn 2.6285703460390765e-16 -1.1350353989770932e-16 1.0
vn 3.6772950729244266e-16 -2.357541508136974e-16 1.0
vn 1.2914088777570085e-15 -8.279319837168014e-16 1.0
vn 5.517856903847435e-16 -6.640925183117703e-16 1.0
vn -7.619241355053723e-16 -2.361863758448135e-16 1.0
vn 2.0274815677121796e-15 7.052844187510165e-16 1.0
vn 0.0 0.0 1.0
vn 0.0 0.0 1.0
vn 4.710471980667332e-16 5.3033397880804237e-17 1.0
f 1//1 2//1 3//1
f 3//2 4//2 5//2
f 5//3 4//3 6//3
f 7//4 6//4 4//4
f 8//5 6//5 7//5
f 7//6 9//6 8//6
f 8//7 9//7 10//7
f 10//8 11//8 12//8
f 12//9 13//9 14//9
f 15//10 14//10 13//10
f 11//11 13//11 12//11
f 12//12 16//12 17//12
f 17//13 18//13 19//13
f 19//14 20//14 21//14
f 21//15 22//15 23//15
f 23//16 24//16 25//16
f 25//17 26//17 27//17
f 27//18 28//18 29//18
f 29//19 30//19 31//19
f 31//20 32//20 17//20
f 32//21 18//21 17//21
f 17//22 19//22 10//22
f 9//23 11//23 10//23
f 10//24 23//24 33//24
f 33//25 3//25 5//25
f 5//26 34//26 33//26
f 1//27 3//27 33//27
f 35//28 1//28 33//28
f 33//29 16//29 35//29
f 36//30 37//30 35//30
f 37//31 1//31 35//31
f 35//32 16//32 38//32
f 38//33 39//33 40//33
f 40//34 41//34 42//34
f 42//35 43//35 44//35
f 44//36 45//36 46//36
f 46//37 47//37 48//37
f 48//38 49//38 50//38
f 50//39 51//39 52//39
f 52//40 53//40 38//40
f 53//41 39//41 38//41
f 38//42 16//42 54//42
f 16//43 55//43 54//43
f 56//44 54//44 55//44
f 57//45 55//45 16//45
f 58//46 57//46 16//46
f 25//47 16//47 33//47
f 23//48 25//48 33//48
f 33//49 34//49 10//49
f 21//50 23//50 10//50
f 19//51 21//51 10//51
f 10//52 12//52 17//52
f 17//53 16//53 31//53
f 30//54 32//54 31//54
f 31//55 16//55 29//55
f 28//56 30//56 29//56
f 29//57 16//57 27//57
f 26//58 28//58 27//58
f 27//59 16//59 25//59
f 24//60 26//60 25//60
f 22//61 24//61 23//61
f 24//62 59//62 60//62
f 60//63 59//63 28//63
f 28//64 59//64 30//64
f 30//65 59//65 32//65
f 32//66 59//66 11//66
f 11//67 59//67 13//67
f 13//68 59//68 15//68
f 15//69 61//69 62//69
f 62//70 61//70 63//70
f 63//71 64//71 58//71
f 64//72 57//72 58//72
f 58//73 16//73 63//73
f 61//74 64//74 63//74
f 63//75 16//75 62//75
f 62//76 14//76 15//76
f 15//77 59//77 43//77
f 43//78 45//78 44//78
f 44//79 35//79 42//79
f 41//80 43//80 42//80
f 42//81 35//81 40//81
f 39//82 41//82 40//82
f 40//83 35//83 38//83
f 38//84 54//84 52//84
f 51//85 53//85 52//85
f 52//86 54//86 50//86
f 49//87 51//87 50//87
f 50//88 65//88 48//88
f 47//89 49//89 48//89
f 48//90 65//90 46//90
f 45//91 47//91 46//91
f 46//92 35//92 44//92
f 65//93 35//93 46//93
f 36//94 35//94 65//94
f 66//95 67//95 65//95
f 59//96 65//96 67//96
f 68//97 67//97 66//97
f 69//98 68//98 66//98
f 66//99 70//99 69//99
f 71//100 68//100 69//100
f 72//101 71//101 69//101
f 69//102 70//102 72//102
f 56//103 71//103 72//103
f 72//104 54//104 56//104
f 56//105 73//105 71//105
f 71//106 73//106 68//106
f 68//107 73//107 67//107
f 67//108 74//108 59//108
f 59//109 37//109 36//109
f 36//110 65//110 59//110
f 59//111 74//111 47//111
f 47//112 74//112 49//112
f 49//113 74//113 75//113
f 75//114 74//114 53//114
f 53//115 15//115 39//115
f 39//116 15//116 41//116
f 41//117 15//117 43//117
f 43//118 59//118 45//118
f 45//119 59//119 47//119
f 1//120 59//120 24//120
f 76//121 1//121 24//121
f 20//122 1//122 76//122
f 9//123 1//123 20//123
f 20//124 22//124 21//124
f 18//125 20//125 19//125
f 18//126 9//126 20//126
f 9//127 32//127 11//127
f 32//128 9//128 18//128
f 9//129 2//129 1//129
f 37//130 59//130 1//130
f 7//131 2//131 9//131
f 77//132 2//132 7//132
f 3//133 2//133 77//133
f 57//134 15//134 53//134
f 74//135 57//135 53//135
f 64//136 15//136 57//136
f 61//137 15//137 64//137
f 67//138 73//138 74//138
f 74//139 73//139 56//139
f 54//140 65//140 50//140
f 54//141 70//141 65//141
f 65//142 70//142 66//142
f 72//143 70//143 54//143
f 14//144 16//144 12//144
f 62//145 16//145 14//145
f 10//146 34//146 8//146
f 8//147 34//147 6//147
f 6//148 34//148 5//148
