mtllib part_2.mtl
usemtl part_2

v 0.04998939037322998 -0.0010300043970346451 -0.05
v 0.045456972122192386 -0.020824596881866456 -0.05
v 0.046276183128356935 0.018934483528137206 -0.05
v -0.11088003158569336 0.4030268096923828 -0.05
v 0.046276183128356935 0.018934483528137206 0.0
v -0.11088003158569336 0.4030268096923828 0.0
v -0.12905085563659668 0.425445556640625 -0.05
v -0.12905085563659668 0.425445556640625 0.0
v -0.15658390998840332 0.43408905029296874 -0.05
v -0.15658390998840332 0.43408905029296874 0.0
v -0.1843075942993164 0.4260780715942383 -0.05
v -0.1843075942993164 0.4260780715942383 0.0
v -0.2029868507385254 0.4040811538696289 -0.05
v -0.2029868507385254 0.4040811538696289 0.0
v -0.4260620880126953 -0.10738871574401855 -0.05
v -0.4260620880126953 -0.10738871574401855 0.0
v -0.4295519256591797 -0.13559295654296874 -0.05
v -0.4295519256591797 -0.13559295654296874 0.0
v -0.41710811614990234 -0.16114309310913086 -0.05
v -0.41710811614990234 -0.16114309310913086 0.0
v -0.39275081634521486 -0.1757848358154297 -0.05
v -0.39275081634521486 -0.1757848358154297 0.0
v -0.36434898376464847 -0.1747879409790039 -0.05
v -0.36434898376464847 -0.1747879409790039 0.0
v 0.01588248610496521 -0.047410407066345216 -0.05
v 0.01588248610496521 -0.047410407066345216 0.0
v 0.0334265398979187 -0.03718422174453735 -0.05
v 0.0334265398979187 -0.03718422174453735 0.0
v 0.045456972122192386 -0.020824596881866456 0.0
v 0.04998939037322998 -0.0010300043970346451 0.0
v 0.023705203533172608 0.007941243052482606 0.0
v 0.01114680290222168 0.022377417087554932 0.0
v 0.023705203533172608 0.007941243052482606 -0.05
v 0.022377417087554932 -0.01114680290222168 -0.05
v 0.022377417087554932 -0.01114680290222168 0.0
v 0.007941243052482606 -0.023705203533172608 -0.05
v 0.007941243052482606 -0.023705203533172608 0.0
v -0.01114680290222168 -0.022377417087554932 -0.05
v -0.01114680290222168 -0.022377417087554932 0.0
v -0.023705203533172608 -0.007941243052482606 -0.05
v -0.023705203533172608 -0.007941243052482606 0.0
v -0.022377417087554932 0.01114680290222168 -0.05
v -0.022377417087554932 0.01114680290222168 0.0
v -0.007941243052482606 0.023705203533172608 -0.05
v -0.007941243052482606 0.023705203533172608 0.0
v 0.01114680290222168 0.022377417087554932 -0.05
v -0.13477879524230957 0.3729455184936524 0.0
v -0.14921497344970702 0.3603871536254883 0.0
v -0.1683030128479004 0.3617149353027344 0.0
v -0.1808614158630371 0.37615108489990234 0.0
v -0.39137825012207034 -0.14975495338439943 0.0
v -0.40393665313720706 -0.13531878471374512 0.0
v -0.40260887145996094 -0.1162307357788086 0.0
v -0.17953363418579102 0.39523914337158206 0.0
v -0.1650974655151367 0.4077975463867188 0.0
v -0.14600940704345702 0.40646976470947266 0.0
v -0.13345101356506348 0.39203357696533203 0.0
v -0.14921497344970702 0.3603871536254883 -0.05
v -0.1683030128479004 0.3617149353027344 -0.05
v -0.1808614158630371 0.37615108489990234 -0.05
v -0.17953363418579102 0.39523914337158206 -0.05
v -0.1650974655151367 0.4077975463867188 -0.05
v -0.14600940704345702 0.40646976470947266 -0.05
v -0.14600940704345702 0.40646976470947266 -1.6653345369377347e-17
v -0.13345101356506348 0.39203357696533203 -0.05
v -0.13477879524230957 0.3729455184936524 -0.05
v -0.3722902297973633 -0.15108274459838866 0.0
v -0.3578540420532227 -0.13852434158325197 0.0
v -0.3722902297973633 -0.15108274459838866 -0.05
v -0.39137825012207034 -0.14975495338439943 -0.05
v -0.39137825012207034 -0.14975495338439943 -1.6653345369377347e-17
v -0.40393665313720706 -0.13531878471374512 -0.05
v -0.40260887145996094 -0.1162307357788086 -0.05
v -0.3881726837158203 -0.10367233276367188 -0.05
v -0.3881726837158203 -0.10367233276367188 0.0
v -0.3690846633911133 -0.10500012397766113 -0.05
v -0.3690846633911133 -0.10500012397766113 0.0
v -0.35652626037597657 -0.11943629264831543 -0.05
v -0.35652626037597657 -0.11943629264831543 0.0
v -0.3578540420532227 -0.13852434158325197 -0.05
vn -2.1533885683985583e-15 4.436940888325032e-17 -1.0
vn 0.9255236983299255 0.3786896765232086 0.0
vn 0.9255236983299255 0.3786896765232086 -0.0
vn 0.7768663763999939 0.6296654939651489 -2.759983802036437e-16
vn 0.2995193600654602 0.9540902376174927 -0.0
vn -0.2776010036468506 0.9606964588165283 -1.3652318225167203e-15
vn -0.762249231338501 0.6472836136817932 0.0
vn -0.9166126847267151 0.399776428937912 0.0
vn -0.9924317598342896 0.12279731035232544 1.4539567237965953e-15
vn -0.8990411162376404 -0.4378642737865448 0.0
vn -0.5152032971382141 -0.8570680022239685 1.3411314058267305e-15
vn 0.03507772088050842 -0.9993845820426941 0.0
vn 0.3176497220993042 -0.9482081532478333 0.0
vn 0.5035826563835144 -0.8639470338821411 -1.534678248985881e-16
vn 0.8056206107139587 -0.5924317836761475 0.0
vn 0.9747734665870667 -0.22319640219211578 -1.626231525625536e-16
vn 0.9831399321556091 0.18285465240478516 -0.0
vn 0.0 0.0 1.0
vn -0.7544708251953125 -0.6563336253166199 0.0
vn -0.9975893497467041 0.06939346343278885 9.476711154744009e-17
vn -0.6563336253166199 0.7544708251953125 0.0
vn 0.06939346343278885 0.9975893497467041 6.163377751643344e-18
vn 0.7544708251953125 0.6563336253166199 -0.0
vn 0.9975893497467041 -0.06939346343278885 9.476711154744009e-17
vn 0.6563336253166199 -0.7544708251953125 0.0
vn -0.06939346343278885 -0.9975893497467041 0.0
vn -0.7544708251953125 -0.6563336253166199 0.0
vn 0.0 0.0 1.0
vn -0.06939346343278885 -0.9975893497467041 0.0
vn 0.0 0.0 1.0
vn 0.6563336253166199 -0.7544708251953125 1.3925532672771018e-16
vn 0.0 0.0 1.0
vn 0.9975893497467041 -0.06939346343278885 0.0
vn 0.0 0.0 1.0
vn 0.3176497220993042 -0.9482081532478333 0.0
vn 0.0 0.0 1.0
vn 0.03507772088050842 -0.9993845820426941 6.602116251056879e-16
vn 0.0 0.0 1.0
vn -0.5152032971382141 -0.8570680022239685 0.0
vn 0.0 -0.0 1.0
vn -0.8990411162376404 -0.4378642737865448 1.1250943820801003e-15
vn 0.0 -0.0 1.0
vn -0.9924317598342896 0.12279731035232544 0.0
vn 0.0 -0.0 1.0
vn -0.9166126847267151 0.399776428937912 0.0
vn -0.0 -0.0 1.0
vn -0.762249231338501 0.6472836136817932 -9.23329334099113e-16
vn -0.0 0.0 1.0
vn -0.2776010036468506 0.9606964588165283 0.0
vn -0.0 0.0 1.0
vn 0.2995193600654602 0.9540902376174927 -1.231105743505778e-16
vn -0.0 0.0 1.0
vn 0.7768663763999939 0.6296654939651489 0.0
vn 0.0 0.0 1.0
vn -0.6563336253166199 0.7544708251953125 0.0
vn 0.06939346343278885 0.9975893497467041 1.4176597738199724e-15
vn 0.7544708251953125 0.6563336253166199 -0.0
vn 0.9975893497467041 -0.06939346343278885 8.074439507886144e-16
vn 0.6563336253166199 -0.7544708251953125 0.0
vn -0.06939346343278885 -0.9975893497467041 -1.2697387044718097e-15
vn -0.7544708251953125 -0.6563336253166199 0.0
vn -0.9975893497467041 0.06939346343278885 -9.86140440262935e-17
vn -0.6563336253166199 0.7544708251953125 -1.0676241495209617e-15
vn 0.0 0.0 1.0
vn 0.06939346343278885 0.9975893497467041 0.0
vn 0.0 0.0 1.0
vn 0.7544708251953125 0.6563336253166199 9.515780946482808e-16
vn 0.0 0.0 1.0
vn 0.0 0.0 1.0
vn 0.0 0.0 1.0
vn 0.0 -0.0 1.0
vn -0.6563336253166199 0.7544708251953125 0.0
vn 0.06939346343278885 0.9975893497467041 4.530290073336213e-16
vn 0.7544708251953125 0.6563336253166199 -0.0
vn 0.9975893497467041 -0.06939346343278885 4.930702201314675e-17
vn 0.6563336253166199 -0.7544708251953125 0.0
vn -0.06939346343278885 -0.9975893497467041 3.544149434549931e-16
vn -0.7544708251953125 -0.6563336253166199 0.0
vn -0.9975893497467041 0.06939346343278885 0.0
vn -0.6563336253166199 0.7544708251953125 0.0
vn 0.0 -0.0 1.0
vn -0.9975893497467041 0.06939346343278885 0.0
vn 0.0 -0.0 1.0
vn -0.7544708251953125 -0.6563336253166199 2.3209221562448023e-16
vn 0.0 -0.0 1.0
vn -0.06939346343278885 -0.9975893497467041 0.0
vn 0.0 -0.0 1.0
vn 0.6563336253166199 -0.7544708251953125 5.570213069108407e-16
vn 0.0 -0.0 1.0
vn 0.6563336253166199 -0.7544708251953125 1.555017812920282e-15
vn 0.0 -0.0 1.0
vn -0.06939346343278885 -0.9975893497467041 0.0
vn -0.0 -0.0 1.0
vn -0.0 0.0 1.0
vn -0.9975893497467041 0.06939346343278885 0.0
vn -0.0 -0.0 -1.0
vn -0.0 -0.0 -1.0
vn -0.0 -0.0 -1.0
vn 0.9975893497467041 -0.06939346343278885 0.0
vn 0.0 -0.0 1.0
vn -0.0 0.0 1.0
vn 0.0 0.0 1.0
vn 0.7544708251953125 0.6563336253166199 6.962766336385509e-17
vn 0.0 0.0 1.0
vn 0.5035826563835144 -0.8639470338821411 0.0
vn 0.0 -0.0 1.0
vn 0.06939346343278885 0.9975893497467041 0.0
vn 0.0 -0.0 1.0
vn -0.6563336253166199 0.7544708251953125 1.1604610781224011e-16
vn 0.0 -0.0 1.0
vn -0.9975893497467041 0.06939346343278885 0.0
vn 0.0 0.0 1.0
vn 0.0 0.0 1.0
vn -0.0 -0.0 -1.0
vn 0.0 -0.0 -1.0
vn -0.0 0.0 -1.0
vn -0.0 0.0 -1.0
vn -1.9302620906416464e-16 4.473265697744686e-16 -1.0
vn -8.792567275458141e-16 -4.0414398309049707e-16 -1.0
vn 0.0 0.0 -1.0
vn -4.825169241450629e-16 -2.4742049441490847e-16 -1.0
vn 7.532024093010622e-17 6.552302111079955e-17 -1.0
vn -1.8958374805251496e-16 -4.521184469153229e-16 -1.0
vn -0.0 0.0 -1.0
vn 0.8056206107139587 -0.5924317836761475 -8.747569311879746e-17
vn 0.0 -0.0 1.0
vn 0.9747734665870667 -0.22319640219211578 0.0
vn 0.0 -0.0 1.0
vn 0.9831399321556091 0.18285465240478516 -1.858858404328191e-16
vn 0.0 0.0 1.0
vn -0.0 0.0 -1.0
vn 0.0 0.0 -1.0
vn -0.0 0.0 -1.0
vn -0.0 0.0 -1.0
vn -0.0 -0.0 -1.0
vn 1.8007441885011227e-15 1.0529011287109058e-15 -1.0
vn -0.0 -0.0 -1.0
vn 3.019632752292178e-17 -8.417350208670207e-18 -1.0
vn 0.0 -0.0 -1.0
vn 7.287963063613422e-16 -1.3052981534491701e-16 -1.0
vn 6.07741322155073e-16 1.0110098437550235e-15 -1.0
vn 0.7544708251953125 0.6563336253166199 1.2997163651454419e-15
vn 0.9975893497467041 -0.06939346343278885 0.0
vn 0.0 -0.0 1.0
vn 0.0 0.0 1.0
vn -9.234506715688072e-16 3.542896355183587e-16 -1.0
vn 1.1866795106231677e-18 1.7059514872942526e-17 -1.0
vn 1.0432547998702186e-15 -3.229357845334547e-16 -1.0
vn -2.1556636988948833e-15 6.152565161004684e-16 -1.0
vn 0.0 -0.0 -1.0
vn -0.0 0.0 -1.0
vn 6.524622414396277e-18 -6.095691133761294e-16 -1.0
vn 0.0 0.0 -1.0
vn -9.795004298754004e-16 -7.028091767209027e-16 -1.0
vn 0.06939346343278885 0.9975893497467041 0.0
vn 0.0 0.0 -1.0
vn 1.0635797789560592e-15 -4.465102417715522e-16 -1.0
vn -0.0 -0.0 -1.0
vn -0.0 -0.0 -1.0
vn -0.7544708251953125 -0.6563336253166199 6.730674147230808e-16
vn 0.0 -0.0 -1.0
vn 0.0 0.0 -1.0
vn -0.0 0.0 -1.0
vn -0.0 0.0 -1.0
f 1//1 2//1 3//1
f 3//2 4//2 5//2
f 5//3 4//3 6//3
f 6//4 7//4 8//4
f 8//5 9//5 10//5
f 10//6 11//6 12//6
f 12//7 13//7 14//7
f 14//8 15//8 16//8
f 16//9 17//9 18//9
f 18//10 19//10 20//10
f 20//11 21//11 22//11
f 22//12 23//12 24//12
f 24//13 25//13 26//13
f 26//14 27//14 28//14
f 28//15 2//15 29//15
f 29//16 1//16 30//16
f 30//17 3//17 5//17
f 5//18 6//18 31//18
f 32//19 33//19 31//19
f 31//20 34//20 35//20
f 35//21 36//21 37//21
f 37//22 38//22 39//22
f 39//23 40//23 41//23
f 41//24 42//24 43//24
f 43//25 44//25 45//25
f 45//26 46//26 32//26
f 46//27 33//27 32//27
f 32//28 47//28 45//28
f 44//29 46//29 45//29
f 45//30 48//30 43//30
f 42//31 44//31 43//31
f 43//32 49//32 41//32
f 40//33 42//33 41//33
f 41//34 50//34 24//34
f 23//35 25//35 24//35
f 24//36 51//36 22//36
f 21//37 23//37 22//37
f 22//38 52//38 20//38
f 19//39 21//39 20//39
f 20//40 53//40 18//40
f 17//41 19//41 18//41
f 18//42 54//42 16//42
f 15//43 17//43 16//43
f 16//44 54//44 14//44
f 13//45 15//45 14//45
f 14//46 54//46 12//46
f 11//47 13//47 12//47
f 12//48 55//48 10//48
f 9//49 11//49 10//49
f 10//50 56//50 8//50
f 7//51 9//51 8//51
f 8//52 57//52 6//52
f 4//53 7//53 6//53
f 6//54 57//54 47//54
f 47//55 58//55 48//55
f 48//56 59//56 49//56
f 49//57 60//57 50//57
f 50//58 61//58 54//58
f 54//59 62//59 55//59
f 55//60 63//60 64//60
f 64//61 65//61 57//61
f 57//62 66//62 47//62
f 66//63 58//63 47//63
f 47//64 48//64 45//64
f 58//65 59//65 48//65
f 48//66 49//66 43//66
f 59//67 60//67 49//67
f 49//68 50//68 41//68
f 39//69 41//69 24//69
f 67//70 51//70 24//70
f 24//71 54//71 68//71
f 68//72 69//72 67//72
f 67//73 70//73 71//73
f 71//74 72//74 52//74
f 52//75 73//75 53//75
f 53//76 74//76 75//76
f 75//77 76//77 77//77
f 77//78 78//78 79//78
f 79//79 80//79 68//79
f 80//80 69//80 68//80
f 68//81 54//81 79//81
f 78//82 80//82 79//82
f 79//83 54//83 77//83
f 76//84 78//84 77//84
f 77//85 54//85 75//85
f 74//86 76//86 75//86
f 75//87 54//87 53//87
f 73//88 74//88 53//88
f 53//89 54//89 18//89
f 61//90 62//90 54//90
f 54//91 55//91 12//91
f 62//92 63//92 55//92
f 55//93 56//93 10//93
f 56//94 57//94 8//94
f 65//95 66//95 57//95
f 66//96 2//96 58//96
f 58//97 2//97 59//97
f 59//98 2//98 60//98
f 60//99 61//99 50//99
f 50//100 54//100 24//100
f 67//101 24//101 68//101
f 26//102 39//102 24//102
f 38//103 40//103 39//103
f 37//104 39//104 26//104
f 25//105 27//105 26//105
f 26//106 29//106 37//106
f 36//107 38//107 37//107
f 37//108 30//108 35//108
f 34//109 36//109 35//109
f 35//110 5//110 31//110
f 33//111 34//111 31//111
f 31//112 6//112 32//112
f 6//113 47//113 32//113
f 34//114 27//114 36//114
f 36//115 27//115 25//115
f 25//116 23//116 36//116
f 36//117 23//117 38//117
f 38//118 23//118 40//118
f 40//119 13//119 42//119
f 42//120 13//120 44//120
f 44//121 13//121 46//121
f 46//122 13//122 33//122
f 33//123 2//123 34//123
f 2//124 27//124 34//124
f 27//125 2//125 28//125
f 28//126 29//126 26//126
f 2//127 1//127 29//127
f 29//128 30//128 37//128
f 1//129 3//129 30//129
f 30//130 5//130 35//130
f 3//131 2//131 4//131
f 4//132 63//132 7//132
f 7//133 62//133 9//133
f 9//134 61//134 11//134
f 11//135 60//135 13//135
f 13//136 2//136 33//136
f 60//137 2//137 13//137
f 23//138 13//138 40//138
f 80//139 13//139 23//139
f 69//140 80//140 23//140
f 23//141 17//141 70//141
f 70//142 72//142 71//142
f 72//143 73//143 52//143
f 52//144 53//144 20//144
f 51//145 52//145 22//145
f 73//146 13//146 74//146
f 74//147 13//147 76//147
f 76//148 13//148 78//148
f 78//149 13//149 80//149
f 17//150 13//150 73//150
f 72//151 17//151 73//151
f 70//152 17//152 72//152
f 21//153 17//153 23//153
f 69//154 23//154 70//154
f 69//155 70//155 67//155
f 19//156 17//156 21//156
f 15//157 13//157 17//157
f 65//158 2//158 66//158
f 4//159 2//159 65//159
f 63//160 65//160 64//160
f 63//161 4//161 65//161
f 63//162 62//162 7//162
f 62//163 61//163 9//163
f 61//164 60//164 11//164
