mtllib part_8.mtl
usemtl part_8

v -0.15841598510742189 0.4340764617919922 3.2359176021266968e-28
v -0.19112976074218752 0.41539222717285157 3.2359176021266968e-28
v -0.17816492080688476 0.42946453094482423 3.2359176021266968e-28
v -0.19445758819580078 0.41738811492919925 5.551115123125783e-18
v -0.17816492080688476 0.42946453094482423 0.05
v -0.19445758819580078 0.41738811492919925 0.05
v -0.2040945816040039 0.4013199234008789 3.2359176021266968e-28
v -0.2040945816040039 0.4013199234008789 0.05
v -0.20714033126831055 0.3828325653076172 3.2359176021266968e-28
v -0.20714033126831055 0.3828325653076172 0.05
v -0.20252838134765624 0.3630836486816406 3.2359176021266968e-28
v -0.20252838134765624 0.3630836486816406 0.05
v -0.19045196533203126 0.3467909622192383 3.2359176021266968e-28
v -0.19045196533203126 0.3467909622192383 0.05
v -0.17438379287719727 0.33715396881103515 3.2359176021266968e-28
v 0.33323623657226564 0.16644445419311524 0.05
v -0.1657699966430664 0.3606231689453125 0.05
v -0.17380409240722658 0.36544166564941405 3.2359176021266968e-28
v -0.17380409240722658 0.36544166564941405 0.05
v -0.17984230041503907 0.37358798980712893 3.2359176021266968e-28
v -0.17984230041503907 0.37358798980712893 0.05
v -0.18214828491210938 0.3834624481201172 3.2359176021266968e-28
v -0.18214828491210938 0.3834624481201172 0.05
v -0.18062540054321288 0.39270610809326173 3.2359176021266968e-28
v -0.16766056060791015 0.4067784118652344 0.05
v -0.15841598510742189 0.4340764617919922 0.05
v -0.19112976074218752 0.41539222717285157 0.05
v -0.1399286460876465 0.4310306930541992 0.05
v 0.32945507049560546 0.258754997253418 0.05
v -0.1399286460876465 0.4310306930541992 3.2359176021266968e-28
v 0.2955796241760254 0.19316593170166016 0.05
v 0.2895414161682129 0.20131227493286133 3.2359176021266968e-28
v 0.2895414161682129 0.20131227493286133 0.05
v 0.2872354507446289 0.2111867332458496 3.2359176021266968e-28
v 0.2872354507446289 0.2111867332458496 0.05
v 0.28875831604003904 0.22043041229248048 3.2359176021266968e-28
v 0.2955796241760254 0.19316593170166016 3.2359176021266968e-28
v 0.30361371994018554 0.1883474349975586 0.05
v 0.30361371994018554 0.1883474349975586 3.2359176021266968e-28
v 0.3128573989868164 0.18682456970214845 0.05
v 0.3128573989868164 0.18682456970214845 3.2359176021266968e-28
v 0.3227318572998047 0.1891305351257324 0.05
v 0.34952888488769535 0.17852087020874025 0.05
v 0.3227318572998047 0.1891305351257324 3.2359176021266968e-28
v 0.3308781814575195 0.19516874313354493 0.05
v 0.3308781814575195 0.19516874313354493 3.2359176021266968e-28
v 0.3356966781616211 0.20320283889770507 0.05
v 0.3372195816040039 0.21244651794433594 0.05
v 0.3356966781616211 0.20320283889770507 3.2359176021266968e-28
v 0.3372195816040039 0.21244651794433594 3.2359176021266968e-28
v 0.3349135971069336 0.22232097625732422 0.05
v 0.3455232620239258 0.24911800384521485 0.05
v 0.3349135971069336 0.22232097625732422 3.2359176021266968e-28
v 0.3288753890991211 0.2304673194885254 0.05
v 0.3288753890991211 0.2304673194885254 3.2359176021266968e-28
v 0.3208412933349609 0.23528581619262695 0.05
v 0.3208412933349609 0.23528581619262695 3.2359176021266968e-28
v 0.3115976142883301 0.2368086814880371 0.05
v 0.3115976142883301 0.2368086814880371 1.6653345369377347e-17
v 0.30172315597534183 0.23450271606445314 0.05
v 0.30172315597534183 0.23450271606445314 3.235942254029985e-28
v 0.29357683181762695 0.22846450805664062 0.05
v 0.29357683181762695 0.22846450805664062 3.2359176021266968e-28
v 0.28875831604003904 0.22043041229248048 0.05
v 0.32945507049560546 0.258754997253418 3.2359176021266968e-28
v 0.30172315597534183 0.23450271606445314 3.2359176021266968e-28
v 0.3115976142883301 0.2368086814880371 3.2359176021266968e-28
v 0.34952888488769535 0.17852087020874025 3.2359176021266968e-28
v 0.3575996780395508 0.23282533645629883 0.05
v 0.3455232620239258 0.24911800384521485 1.6653345369377347e-17
v 0.3575996780395508 0.23282533645629883 3.2359915578365615e-28
v 0.3622116470336914 0.21307640075683595 0.05
v 0.35838279724121097 0.21370719909667968 0.05
v 0.3622116470336914 0.21307640075683595 3.2359176021266968e-28
v 0.35916587829589847 0.19458906173706056 0.05
v 0.35916587829589847 0.19458906173706056 3.2359176021266968e-28
v -0.148542423248291 0.4075615310668945 3.2359176021266968e-28
v -0.14050833702087404 0.40274303436279296 3.2359176021266968e-28
v -0.148542423248291 0.4075615310668945 0.05
v -0.14050833702087404 0.40274303436279296 0.05
v -0.13447012901306152 0.39459671020507814 3.2359176021266968e-28
v -0.13447012901306152 0.39459671020507814 0.05
v -0.13216415405273438 0.38472221374511717 3.2359176021266968e-28
v -0.13216415405273438 0.38472221374511717 0.05
v -0.1336870288848877 0.37547855377197265 3.2359176021266968e-28
v -0.15778610229492188 0.4090843963623047 0.05
v -0.15778610229492188 0.4090843963623047 2.2204460492503132e-17
v -0.17580690383911132 0.4007402038574219 0.05
v -0.18062540054321288 0.39270610809326173 0.05
v -0.1657699966430664 0.3606231689453125 3.2359176021266968e-28
v -0.1565263271331787 0.35910026550292967 0.05
v -0.1565263271331787 0.35910026550292967 5.551115123125783e-18
v -0.14665185928344726 0.36140625 0.05
v -0.14665185928344726 0.36140625 3.2359176021266968e-28
v -0.13850552558898926 0.3674444580078125 0.05
v -0.13850552558898926 0.3674444580078125 3.2359176021266968e-28
v -0.1336870288848877 0.37547855377197265 0.05
v 0.33323623657226564 0.16644445419311524 3.2359176021266968e-28
v 0.3134872817993164 0.16183250427246093 0.05
v -0.17438379287719727 0.33715396881103515 0.05
v 0.294999942779541 0.16487825393676758 3.2359176021266968e-28
v 0.294999942779541 0.16487825393676758 0.05
v 0.3134872817993164 0.16183250427246093 3.2359176021266968e-28
v 0.3455232620239258 0.24911800384521485 3.2359176021266968e-28
v -0.1565263271331787 0.35910026550292967 3.2359176021266968e-28
v -0.17580690383911132 0.4007402038574219 3.2359176021266968e-28
v -0.16766056060791015 0.4067784118652344 3.2359176021266968e-28
v -0.15778610229492188 0.4090843963623047 3.2359176021266968e-28
v -0.19445758819580078 0.41738811492919925 3.2359176021266968e-28
v 0.35838279724121097 0.21370719909667968 3.2359176021266968e-28
v 0.3575996780395508 0.23282533645629883 3.2359176021266968e-28
vn -4.917156311315783e-42 8.608176466347351e-42 -1.0
vn -0.5954750180244446 0.8033738136291504 0.0
vn -0.5954750180244446 0.8033738136291504 -1.6035400438041414e-11
vn -0.857585072517395 0.514342188835144 1.4815888099706243e-11
vn -0.857585072517395 0.514342188835144 0.0
vn -0.9866991639137268 0.16255682706832886 0.0
vn -0.9866991639137268 0.16255682706832886 9.320990897185104e-16
vn -0.9737989902496338 -0.22741051018238068 -3.6875603181517607e-16
vn -0.8033738136291504 -0.5954750180244446 -1.603597116206501e-11
vn -0.514342188835144 -0.857585072517395 1.4815523807776287e-11
vn -0.8033738136291504 -0.5954750180244446 2.846683447539427e-16
vn -2.955220925911613e-16 -8.05181737544735e-16 1.0
vn 0.514342188835144 0.857585072517395 -1.2187016871470675e-15
vn 0.8033738136291504 0.5954750180244446 2.7538949586346586e-16
vn 0.9737989902496338 0.22741051018238068 8.018564111311743e-12
vn 0.9866991639137268 -0.16255682706832886 -7.408163492372832e-12
vn 0.9737989902496338 0.22741051018238068 -3.6678421852330686e-16
vn 0.0 0.0 1.0
vn -0.9737989902496338 -0.22741051018238068 3.613098181154227e-16
vn 0.0 0.0 1.0
vn -0.22741051018238068 0.9737989902496338 0.0
vn -0.0 0.0 1.0
vn -0.22741051018238068 0.9737989902496338 1.1386733790157708e-15
vn 0.16255682706832886 0.9866991639137268 1.5754392478829911e-15
vn -7.840281716393e-18 -4.75895072026335e-17 1.0
vn 0.3445514142513275 0.9387674331665039 -0.0
vn 0.16255682706832886 0.9866991639137268 0.0
vn -1.6650149937583831e-15 -3.0111479173804134e-15 1.0
vn 0.8033738136291504 0.5954750180244446 -1.4170523453176727e-15
vn 0.9737989902496338 0.22741051018238068 8.017225772150027e-12
vn 0.9866991639137268 -0.16255682706832886 -7.408402884212517e-12
vn 0.9737989902496338 0.22741051018238068 -1.0127623549228927e-15
vn 1.966818762095721e-15 3.638401649327114e-15 1.0
vn 0.8033738136291504 0.5954750180244446 5.693366895078854e-16
vn 0.514342188835144 0.857585072517395 3.654621059717613e-16
vn -2.5754352281039854e-15 -4.294135170059346e-15 1.0
vn 0.514342188835144 0.857585072517395 0.0
vn 0.16255682706832886 0.9866991639137268 0.0
vn 0.16255682706832886 0.9866991639137268 -7.406654282948733e-12
vn -0.22741051018238068 0.9737989902496338 8.018124358910583e-12
vn -0.0 -0.0 1.0
vn -0.22741051018238068 0.9737989902496338 6.952477136007635e-16
vn -0.5954750180244446 0.8033738136291504 5.708314379619932e-16
vn -0.0 -0.0 1.0
vn -0.5954750180244446 0.8033738136291504 -2.846683447539427e-16
vn -0.857585072517395 0.514342188835144 -8.53239528235747e-16
vn -0.0 -0.0 1.0
vn -0.9866991639137268 0.16255682706832886 0.0
vn -0.9866991639137268 0.16255682706832886 -7.407817415039375e-12
vn -0.9737989902496338 -0.22741051018238068 8.018079256100208e-12
vn 0.0 -0.0 1.0
vn -0.9737989902496338 -0.22741051018238068 0.0
vn -0.8033738136291504 -0.5954750180244446 0.0
vn 0.0 -0.0 1.0
vn -0.8033738136291504 -0.5954750180244446 -1.1386733790157708e-15
vn -0.514342188835144 -0.857585072517395 -7.309242119435226e-16
vn 0.0 -0.0 1.0
vn -0.514342188835144 -0.857585072517395 0.0
vn -0.16255682706832886 -0.9866991639137268 0.0
vn -0.16255682706832886 -0.9866991639137268 -7.406184172886743e-12
vn 0.22741051018238068 -0.9737989902496338 8.019140039505768e-12
vn -5.829705847664498e-16 -1.3552867028038891e-15 1.0
vn 0.22741051018238068 -0.9737989902496338 8.540050342618281e-16
vn 0.5954750180244446 -0.8033738136291504 9.939419181096126e-16
vn 4.215668949501464e-16 9.021818860214885e-16 1.0
vn 0.5954750180244446 -0.8033738136291504 5.693366895078854e-16
vn 0.857585072517395 -0.514342188835144 3.654621059717613e-16
vn 4.034971940259296e-16 8.635114438475407e-16 1.0
vn 0.857585072517395 -0.514342188835144 0.0
vn 0.9866991639137268 -0.16255682706832886 0.0
vn -1.455949104433485e-42 -6.270810627853556e-42 -1.0
vn 4.622182984575409e-41 -5.285277417893913e-41 -1.0
vn 0.0 -0.0 -1.0
vn 0.0 -0.0 -1.0
vn 0.0 -0.0 -1.0
vn 0.0 0.0 -1.0
vn 1.3083923761400817e-41 3.056231950692426e-42 -1.0
vn 3.2061708863751815e-42 -5.28289521050456e-43 -1.0
vn -0.857585072517395 0.514342188835144 0.0
vn 0.0 -0.0 1.0
vn 0.8033738136291504 0.5954750180244446 -1.6036541886088607e-11
vn 0.514342188835144 0.857585072517395 1.4815157781122856e-11
vn 0.8033738136291504 0.5954750180244446 -4.1605374278492536e-16
vn 0.9737989902496338 0.22741051018238068 -1.6158487545767704e-16
vn -7.70576378538228e-17 -4.677300052870485e-16 1.0
vn 0.9737989902496338 0.22741051018238068 2.770041894768608e-15
vn 0.9866991639137268 -0.16255682706832886 2.804367693197852e-15
vn 0.0 0.0 1.0
vn 0.9866991639137268 -0.16255682706832886 0.0
vn 0.857585072517395 -0.514342188835144 0.0
vn 0.857585072517395 -0.514342188835144 1.4816375557002992e-11
vn 0.5954750180244446 -0.8033738136291504 -1.6035697075755806e-11
vn 2.796364131818805e-17 -7.731920559840187e-16 1.0
vn 0.0 0.0 1.0
vn 0.514342188835144 0.857585072517395 0.0
vn 0.3445514142513275 0.9387674331665039 0.0
vn 0.0 0.0 1.0
vn 0.0 0.0 1.0
vn 0.0 0.0 1.0
vn -5.26158285049091e-16 -1.0223429328310493e-15 1.0
vn -4.558586267730427e-16 -8.857483880535711e-16 1.0
vn 0.0 -0.0 1.0
vn -1.4419192209458092e-15 -5.236361915090821e-16 1.0
vn 0.0 0.0 1.0
vn 3.527019781378489e-15 1.5576320954086877e-14 1.0
vn -0.0 -0.0 -1.0
vn -0.0 -0.0 -1.0
vn -0.514342188835144 -0.857585072517395 0.0
vn -0.514342188835144 -0.857585072517395 2.0115255845682767e-15
vn -0.8033738136291504 -0.5954750180244446 2.854157189809966e-16
vn -0.9737989902496338 -0.22741051018238068 8.018240585383474e-12
vn -0.9866991639137268 0.16255682706832886 -7.407932774150527e-12
vn -0.9737989902496338 -0.22741051018238068 3.448866433615499e-16
vn 2.974517329066801e-17 2.2047653849014923e-17 1.0
vn -0.8033738136291504 -0.5954750180244446 -3.2846346199023215e-17
vn 1.1136517875258623e-16 1.8568400836335616e-16 1.0
vn -0.16255682706832886 -0.9866991639137268 0.0
vn -0.16255682706832886 -0.9866991639137268 -7.407817415039375e-12
vn 0.22741051018238068 -0.9737989902496338 8.018079256100208e-12
vn -0.0 -0.0 1.0
vn 2.265806516460353e-17 8.437345645617451e-18 1.0
vn 0.0 -0.0 1.0
vn 0.0 0.0 1.0
vn 0.0 -0.0 1.0
vn 0.0 -0.0 1.0
vn 0.0 -0.0 1.0
vn 0.0 0.0 1.0
vn 0.0 0.0 1.0
vn -2.7604475525750587e-16 -5.141993445041627e-16 1.0
vn 0.514342188835144 0.857585072517395 0.0
vn 0.16255682706832886 0.9866991639137268 0.0
vn 0.16255682706832886 0.9866991639137268 -7.406414891109048e-12
vn -0.22741051018238068 0.9737989902496338 8.0194626980723e-12
vn 6.755555524989444e-18 -2.892809751647793e-17 1.0
vn -0.22741051018238068 0.9737989902496338 8.97800184585342e-16
vn -0.5954750180244446 0.8033738136291504 -1.2766853804909199e-16
vn 1.1955283579440149e-17 -1.6129242740647015e-17 1.0
vn -0.5954750180244446 0.8033738136291504 -3.2079932921246293e-15
vn -0.857585072517395 0.514342188835144 -1.888097214043801e-15
vn 1.4995596674226766e-17 -8.993706498440005e-18 1.0
vn -0.9866991639137268 0.16255682706832886 0.0
vn -0.857585072517395 0.514342188835144 0.0
vn 1.771534005852152e-17 -2.9185686522310618e-18 1.0
vn 2.143152506103235e-17 5.0048869019347584e-18 1.0
vn 0.5954750180244446 -0.8033738136291504 0.0
vn 0.22741051018238068 -0.9737989902496338 0.0
vn -1.3068487531382375e-17 -7.932404655776909e-17 1.0
vn 5.497054833454053e-16 1.4977318100271712e-15 1.0
vn 7.966132448945391e-17 1.328227732378038e-16 1.0
vn -0.514342188835144 -0.857585072517395 0.0
vn -0.3445514142513275 -0.9387674331665039 0.0
vn -0.3445514142513275 -0.9387674331665039 0.0
vn -0.16255682706832886 -0.9866991639137268 -9.320990897185104e-16
vn 0.22741051018238068 -0.9737989902496338 -3.613098181154227e-16
vn 5.633928475587652e-16 -2.4125156404796724e-15 1.0
vn -0.16255682706832886 -0.9866991639137268 0.0
vn 4.1793135013119213e-16 1.1386988958833068e-15 1.0
vn -1.668946471010857e-42 -5.2983094936121333e-42 -1.0
vn 2.0739217272007293e-43 2.802596928649634e-43 -1.0
vn -3.1153667458869333e-41 -1.514060951749035e-40 -1.0
vn 2.4943112664981744e-43 4.161856439044707e-43 -1.0
vn 1.5834672646870433e-43 1.1770907100328463e-43 -1.0
vn 1.3312335411085762e-43 3.0828566215145976e-44 -1.0
vn 1.1911036946760945e-43 -1.961817850054744e-44 -1.0
vn 3.44719422223905e-43 1.485376372184306e-42 -1.0
vn 7.12700398955602e-42 1.0677894298155106e-42 -1.0
vn 4.450523922695619e-42 5.832204208519889e-42 -1.0
vn -1.056579042100912e-42 -8.079886945296895e-42 -1.0
vn 8.16256355469206e-42 2.2490840352413314e-42 -1.0
vn 1.7586295727276454e-42 2.3794047924235394e-42 -1.0
vn -5.0446744715693415e-43 -8.42180377059215e-43 -1.0
vn 1.4055023597177915e-42 8.298489505731567e-42 -1.0
vn 1.1266439653171529e-41 3.0696844159499443e-41 -1.0
vn -6.824323521261859e-43 -4.028733084933849e-42 -1.0
vn 2.3149450630645978e-42 1.1252426668528281e-41 -1.0
vn 1.783852945085492e-42 3.322478658914141e-42 -1.0
vn -0.0 -0.0 -1.0
vn 0.0 0.0 -1.0
vn 0.8033738136291504 0.5954750180244446 -8.430562334460598e-16
vn -2.282715198385127e-42 -5.324934164434305e-43 -1.0
vn -2.4634827002830284e-42 6.615530050077461e-42 -1.0
vn 0.857585072517395 -0.514342188835144 0.0
vn 0.857585072517395 -0.514342188835144 -8.524975803135115e-16
vn 0.5954750180244446 -0.8033738136291504 -3.129546606264093e-15
vn 0.22741051018238068 -0.9737989902496338 -3.0875566419698557e-15
vn 0.5954750180244446 -0.8033738136291504 -1.8503443203099663e-15
vn 6.311448283318976e-42 -2.136980158095346e-42 -1.0
vn -6.615530050077461e-42 -2.4634827002830284e-42 -1.0
vn -0.0 -0.0 -1.0
vn -2.7927878393993604e-42 -9.115446510432935e-42 -1.0
vn 1.6941698433687038e-42 6.20775219695894e-42 -1.0
vn 1.6213023232238134e-42 5.942906787201549e-42 -1.0
vn 1.0789998175301091e-43 -6.445972935894159e-44 -1.0
vn -1.5876711600800177e-42 -7.363823430026914e-42 -1.0
vn -0.0 -0.0 -1.0
vn 0.0 -0.0 -1.0
vn 0.0 -0.0 -1.0
vn 0.0 -0.0 -1.0
vn 0.9866991639137268 -0.16255682706832886 0.0
vn 0.0 0.0 -1.0
vn 0.0 -0.0 -1.0
vn -5.993353531917243e-42 -1.148784481053485e-41 -1.0
vn 0.0 -0.0 -1.0
vn 1.5750594739010944e-42 2.627434620609032e-42 -1.0
vn -2.6540592914312035e-42 -9.640933434554741e-43 -1.0
vn -1.5836073945334758e-41 2.3541814200656927e-42 -1.0
vn -1.459452350594297e-41 2.404628164781386e-42 -1.0
vn -1.509198446077828e-41 -6.179726227672443e-43 -1.0
vn -0.0 -0.0 -1.0
vn 0.0 -0.0 1.0
vn 0.0 -0.0 1.0
vn -0.0 0.0 1.0
f 1//1 2//1 3//1
f 3//2 4//2 5//2
f 5//3 4//3 6//3
f 7//4 6//4 4//4
f 8//5 6//5 7//5
f 7//6 9//6 8//6
f 8//7 9//7 10//7
f 10//8 11//8 12//8
f 12//9 13//9 14//9
f 15//10 14//10 13//10
f 11//11 13//11 12//11
f 12//12 16//12 17//12
f 17//13 18//13 19//13
f 19//14 20//14 21//14
f 21//15 22//15 23//15
f 24//16 23//16 22//16
f 20//17 22//17 21//17
f 21//18 23//18 10//18
f 9//19 11//19 10//19
f 10//20 25//20 26//20
f 26//21 3//21 5//21
f 5//22 27//22 26//22
f 1//23 3//23 26//23
f 28//24 1//24 26//24
f 26//25 16//25 28//25
f 29//26 30//26 28//26
f 30//27 1//27 28//27
f 28//28 16//28 31//28
f 31//29 32//29 33//29
f 33//30 34//30 35//30
f 36//31 35//31 34//31
f 32//32 34//32 33//32
f 33//33 28//33 31//33
f 37//34 32//34 31//34
f 38//35 37//35 31//35
f 31//36 16//36 38//36
f 39//37 37//37 38//37
f 38//38 40//38 39//38
f 39//39 40//39 41//39
f 42//40 41//40 40//40
f 40//41 43//41 42//41
f 44//42 41//42 42//42
f 45//43 44//43 42//43
f 42//44 43//44 45//44
f 46//45 44//45 45//45
f 47//46 46//46 45//46
f 45//47 43//47 47//47
f 47//48 48//48 49//48
f 49//49 48//49 50//49
f 51//50 50//50 48//50
f 48//51 52//51 51//51
f 53//52 50//52 51//52
f 54//53 53//53 51//53
f 51//54 52//54 54//54
f 55//55 53//55 54//55
f 56//56 55//56 54//56
f 54//57 52//57 56//57
f 57//58 55//58 56//58
f 56//59 58//59 57//59
f 57//60 58//60 59//60
f 60//61 59//61 58//61
f 58//62 28//62 60//62
f 61//63 59//63 60//63
f 62//64 61//64 60//64
f 60//65 28//65 62//65
f 63//66 61//66 62//66
f 64//67 63//67 62//67
f 62//68 28//68 64//68
f 36//69 63//69 64//69
f 64//70 35//70 36//70
f 36//71 15//71 63//71
f 63//72 65//72 66//72
f 66//73 65//73 67//73
f 67//74 65//74 57//74
f 57//75 65//75 55//75
f 55//76 65//76 53//76
f 53//77 68//77 50//77
f 50//78 68//78 49//78
f 49//79 46//79 47//79
f 47//80 52//80 48//80
f 69//81 70//81 52//81
f 65//82 52//82 70//82
f 71//83 70//83 69//83
f 72//84 71//84 69//84
f 69//85 73//85 72//85
f 74//86 71//86 72//86
f 75//87 74//87 72//87
f 72//88 73//88 75//88
f 76//89 74//89 75//89
f 75//90 43//90 76//90
f 76//91 43//91 68//91
f 16//92 68//92 43//92
f 38//93 16//93 43//93
f 43//94 52//94 47//94
f 29//95 52//95 65//95
f 65//96 30//96 29//96
f 29//97 28//97 52//97
f 52//98 28//98 56//98
f 56//99 28//99 58//99
f 35//100 28//100 33//100
f 64//101 28//101 35//101
f 43//102 73//102 52//102
f 52//103 73//103 69//103
f 75//104 73//104 43//104
f 38//105 43//105 40//105
f 30//106 65//106 1//106
f 1//107 65//107 77//107
f 77//108 78//108 79//108
f 79//109 78//109 80//109
f 80//110 81//110 82//110
f 82//111 83//111 84//111
f 85//112 84//112 83//112
f 81//113 83//113 82//113
f 82//114 16//114 80//114
f 78//115 81//115 80//115
f 80//116 16//116 79//116
f 79//117 86//117 77//117
f 77//118 86//118 87//118
f 25//119 87//119 86//119
f 86//120 79//120 26//120
f 79//121 16//121 26//121
f 25//122 86//122 26//122
f 26//123 27//123 10//123
f 88//124 25//124 10//124
f 89//125 88//125 10//125
f 23//126 89//126 10//126
f 19//127 21//127 10//127
f 17//128 19//128 10//128
f 10//129 12//129 17//129
f 90//130 18//130 17//130
f 17//131 91//131 90//131
f 90//132 91//132 92//132
f 93//133 92//133 91//133
f 91//134 16//134 93//134
f 94//135 92//135 93//135
f 95//136 94//136 93//136
f 93//137 16//137 95//137
f 96//138 94//138 95//138
f 97//139 96//139 95//139
f 95//140 16//140 97//140
f 97//141 84//141 85//141
f 85//142 96//142 97//142
f 97//143 16//143 84//143
f 84//144 16//144 82//144
f 98//145 68//145 16//145
f 99//146 98//146 16//146
f 17//147 16//147 91//147
f 14//148 16//148 12//148
f 100//149 16//149 14//149
f 100//150 14//150 15//150
f 15//151 101//151 100//151
f 100//152 101//152 102//152
f 102//153 103//153 99//153
f 103//154 98//154 99//154
f 99//155 16//155 102//155
f 101//156 103//156 102//156
f 102//157 16//157 100//157
f 103//158 15//158 98//158
f 98//159 15//159 39//159
f 41//160 68//160 39//160
f 39//161 15//161 37//161
f 37//162 15//162 32//162
f 32//163 15//163 34//163
f 34//164 15//164 36//164
f 15//165 65//165 63//165
f 65//166 68//166 53//166
f 44//167 68//167 41//167
f 46//168 68//168 44//168
f 49//169 68//169 46//169
f 68//170 98//170 39//170
f 104//171 68//171 65//171
f 13//172 65//172 15//172
f 101//173 15//173 103//173
f 11//174 65//174 13//174
f 90//175 65//175 11//175
f 9//176 90//176 11//176
f 105//177 65//177 90//177
f 90//178 9//178 18//178
f 18//179 20//179 19//179
f 20//180 9//180 22//180
f 22//181 9//181 24//181
f 24//182 106//182 89//182
f 89//183 106//183 88//183
f 88//184 107//184 25//184
f 107//185 87//185 25//185
f 106//186 107//186 88//186
f 107//187 1//187 108//187
f 108//188 1//188 77//188
f 77//189 65//189 78//189
f 78//190 65//190 81//190
f 81//191 65//191 83//191
f 83//192 65//192 85//192
f 85//193 65//193 96//193
f 96//194 65//194 94//194
f 94//195 65//195 105//195
f 106//196 1//196 107//196
f 24//197 1//197 106//197
f 9//198 1//198 24//198
f 89//199 23//199 24//199
f 9//200 2//200 1//200
f 7//201 2//201 9//201
f 18//202 9//202 20//202
f 109//203 2//203 7//203
f 3//204 2//204 109//204
f 104//205 110//205 68//205
f 68//206 110//206 76//206
f 76//207 110//207 74//207
f 74//208 110//208 111//208
f 111//209 110//209 104//209
f 10//210 27//210 8//210
f 8//211 27//211 6//211
f 6//212 27//212 5//212
